<?xml version="1.0" encoding="UTF-8"?>
<svg width="222px" height="102px" viewBox="0 0 222 102" version="1.1" xmlns="http://www.w3.org/2000/svg" xmlns:xlink="http://www.w3.org/1999/xlink">
    <!-- Generator: Sketch 49.3 (51167) - http://www.bohemiancoding.com/sketch -->
    <title>Artboard</title>
    <desc>Created with Sketch.</desc>
    <defs></defs>
    <g id="Artboard" stroke="none" stroke-width="1" fill="none" fill-rule="evenodd">
        <g id="civico" transform="translate(31.000000, 35.000000)">
            <path d="M6.19049741,0.615507692 L6.19049741,0.39328547 L27.410423,0.39328547 C30.4434042,0.39328547 32.9250331,2.80903628 32.9250331,5.76443077 L32.9250331,26.4210462 C32.9250331,29.3764406 30.4434042,31.7921915 27.410423,31.7921915 L6.19049741,31.7921915 C3.15751624,31.7921915 0.675887392,29.3764406 0.675887392,26.4210462 L0.675887392,5.76443077 C0.675887392,2.80903628 3.15751624,0.39328547 6.19049741,0.39328547 L6.19049741,0.615507692 Z M10.7885589,3.66295385 C5.67180497,4.91403077 2.56597202,9.96633846 3.85116608,14.9472615 C5.1369923,19.9288 10.3270775,22.9521846 15.4438314,21.7011077 C19.6186575,20.6801846 22.4545555,17.1275692 22.658113,13.1491077 L20.2299623,13.7811077 C19.7899746,16.4697231 17.7543991,18.7755692 14.8710887,19.4808 C11.0129779,20.4241846 7.10113294,18.1448 6.13202203,14.3897231 C5.16354328,10.6346462 7.50445503,6.82664615 11.3619337,5.88326154 C13.1686649,5.44141538 14.9874073,5.70664615 16.5102959,6.49926154 L18.8606901,5.25249231 C16.6348327,3.62356923 13.6996846,2.95095385 10.7885589,3.66295385 Z M11.8096339,7.55963077 C9.31637003,8.16947692 7.64176155,10.3245538 7.59308474,12.7116308 L8.96551774,12.7116308 C9.01482671,10.9227077 10.274102,9.31224615 12.1440498,8.85501538 C12.4626616,8.77747692 12.7819056,8.73747692 13.0973566,8.73193846 L13.0973566,7.39532308 C12.6719087,7.40086154 12.2401391,7.4544 11.8096339,7.55963077 Z M29.3917586,25.8472 L22.200235,18.9825846 C21.4801976,19.9241231 20.6356234,20.7345846 19.6633517,21.4121231 L26.6747079,28.4921231 C28.4068435,30.1764308 31.2313625,27.6385846 29.3917586,25.8472 Z" id="Combined-Shape" fill="#8E9BA6"></path>
            <path d="M10.7885589,3.66295385 C13.6996846,2.95095385 16.6348327,3.62356923 18.8606901,5.25249231 L16.5102959,6.49926154 C14.9874073,5.70664615 13.1686649,5.44141538 11.3619337,5.88326154 C7.50445503,6.82664615 5.16354328,10.6346462 6.13202203,14.3897231 C7.10113294,18.1448 11.0129779,20.4241846 14.8710887,19.4808 C17.7543991,18.7755692 19.7899746,16.4697231 20.2299623,13.7811077 L22.658113,13.1491077 C22.4545555,17.1275692 19.6186575,20.6801846 15.4438314,21.7011077 C10.3270775,22.9521846 5.1369923,19.9288 3.85116608,14.9472615 C2.56597202,9.96633846 5.67180497,4.91403077 10.7885589,3.66295385" id="Fill-13" fill="#FFFFFF"></path>
            <path d="M11.8096339,7.55963077 C12.2401391,7.4544 12.6719087,7.40086154 13.0973566,7.39532308 L13.0973566,8.73193846 C12.7819056,8.73747692 12.4626616,8.77747692 12.1440498,8.85501538 C10.274102,9.31224615 9.01482671,10.9227077 8.96551774,12.7116308 L7.59308474,12.7116308 C7.64176155,10.3245538 9.31637003,8.16947692 11.8096339,7.55963077" id="Fill-17" fill="#FFFFFF"></path>
            <path d="M46.4787557,5.91308861 C50.0251996,5.04607 53.7120334,5.80370505 56.5804516,7.90241513 L57.3562951,8.47006967 L53.4254526,10.5552789 L53.1364368,10.4048226 C51.4068425,9.5044275 49.3971028,9.25024044 47.4547791,9.72529794 C43.2013268,10.7655741 40.622557,14.9600748 41.6893227,19.0939038 C42.7569457,23.2304839 47.0715558,25.744132 51.3280715,24.7032502 C54.4413111,23.9419657 56.7407702,21.4527416 57.2359826,18.4237775 L57.2994837,18.0353738 L61.3818969,16.9730755 L61.3394245,17.7999741 C61.0785405,22.879144 57.441891,27.2590577 52.3034548,28.5154615 C45.8994298,30.0812611 39.4012331,26.2955933 37.7909402,20.0552689 C36.1793405,13.8111666 40.0713916,7.4803533 46.4786828,5.91310643 L46.6263183,6.50043077 L46.4787557,5.91308861 Z" id="Combined-Shape" fill="#8E9BA6"></path>
            <polygon id="Fill-25" fill="#8E9BA6" points="66.2993963 4.42769231 68.0258424 1.35138462 71.1063887 1.352 69.1808102 4.42523077"></polygon>
            <polygon id="Stroke-27" stroke="#8E9BA6" stroke-width="0.5" points="66.2993963 4.42769231 68.0258424 1.35138462 71.1063887 1.352 69.1808102 4.42523077"></polygon>
            <polygon id="Fill-29" fill="#8E9BA6" points="83.2441078 28.4643692 74.6814155 6.90621538 75.8578769 6.90621538 78.2120642 6.90621538 84.8687751 23.9080615 91.5254861 6.90621538 93.8796733 6.90621538 95.056767 6.90621538 86.4934425 28.4643692 84.8807863 28.4643692 84.856764 28.4643692"></polygon>
            <path d="M86.3397621,28.242147 L94.7265445,7.12843761 L91.6799726,7.12843761 L84.8687751,24.5248564 L78.0575777,7.12843761 L75.011629,7.12843761 L83.3977923,28.242147 L86.3397621,28.242147 Z M91.3709996,6.68399316 L95.3869894,6.68399316 L86.6471228,28.6865915 L83.0904233,28.6865915 L74.3512019,6.68399316 L78.3665507,6.68399316 L84.8687751,23.2912667 L91.3709996,6.68399316 Z" id="Stroke-31" fill="#8E9BA6" fill-rule="nonzero"></path>
            <polygon id="Fill-33" fill="#8E9BA6" points="66.0478573 7.14646154 69.3705233 7.14646154 69.3711555 28.4843077 66.046593 28.4843077"></polygon>
            <path d="M66.2718809,28.2620855 L69.1458742,28.2620855 L69.1452552,7.36868376 L66.2731189,7.36868376 L66.2718809,28.2620855 Z M69.5957915,6.92423932 L69.5964368,28.7065299 L65.8213051,28.7065299 L65.8225958,6.92423932 L69.5957915,6.92423932 Z" id="Stroke-35" fill="#8E9BA6" fill-rule="nonzero"></path>
            <polygon id="Fill-37" fill="#8E9BA6" points="100.403693 7.14646154 103.726359 7.14646154 103.726991 28.4843077 100.401796 28.4843077"></polygon>
            <path d="M100.627091,28.2620855 L103.501709,28.2620855 L103.50109,7.36868376 L100.628948,7.36868376 L100.627091,28.2620855 Z M103.951627,6.92423932 L103.952272,28.7065299 L100.176502,28.7065299 L100.178438,6.92423932 L103.951627,6.92423932 Z" id="Stroke-39" fill="#8E9BA6" fill-rule="nonzero"></path>
            <path d="M117.763548,6.50043077 C121.222129,5.65489231 124.707894,6.45366154 127.352246,8.38843077 L124.559967,9.86966154 C122.75134,8.92812308 120.590595,8.61304615 118.444391,9.13796923 C113.861817,10.2585846 111.080918,14.7822769 112.231461,19.2432 C113.382635,23.7035077 118.030322,26.4112 122.612895,25.2905846 C126.037972,24.4530462 128.45664,21.7139692 128.97881,18.5201231 L131.864017,17.7693538 C131.621265,22.4955077 128.253715,26.7152 123.293106,27.9281231 C117.214827,29.4142769 111.04931,25.8222769 109.522628,19.9059692 C107.995314,13.9884308 111.685269,7.9872 117.763548,6.50043077" id="Fill-41" fill="#8E9BA6"></path>
            <path d="M110.117094,19.7566985 C111.5602,25.3491273 117.393167,28.7472509 123.145523,27.3407858 C127.472376,26.282823 130.609402,22.7614773 131.173718,18.5747887 L129.511356,19.0073576 C128.81101,22.334565 126.218778,25.0322593 122.760494,25.877918 C117.852225,27.0781783 112.87182,24.1768889 111.636976,19.3923998 C110.402102,14.6045039 113.385659,9.75159681 118.296768,8.55064189 C120.424635,8.03020378 122.625644,8.26990704 124.551009,9.18735653 L126.167272,8.32997121 C123.728368,6.86417535 120.769985,6.38885842 117.911147,7.08776402 C112.161285,8.4942215 108.674217,14.166307 110.117094,19.7566985 Z M117.615985,5.91308861 C121.162429,5.04607 124.849263,5.80370505 127.717681,7.90241513 L128.493524,8.47006967 L124.562682,10.5552789 L124.273666,10.4048226 C122.544072,9.5044275 120.534332,9.25024044 118.591989,9.72530263 C114.338278,10.7654986 111.759658,14.959756 112.82592,19.0939038 C113.893519,23.2303914 118.208691,25.7441551 122.465301,24.7032502 C125.57854,23.9419657 127.878,21.4527416 128.373212,18.4237775 L128.436713,18.0353738 L132.519126,16.9730755 L132.476654,17.7999741 C132.21577,22.879144 128.57912,27.2590577 123.440684,28.5154615 C117.036659,30.0812611 110.538462,26.2955933 108.92817,20.0552689 C107.31657,13.8111666 111.208621,7.4803533 117.615912,5.91310643 L117.763548,6.50043077 L117.615985,5.91308861 Z" id="Stroke-43" fill="#8E9BA6" fill-rule="nonzero"></path>
            <path d="M148.907599,5.87329231 C155.335466,5.87329231 160.545148,10.9452923 160.545148,17.2019077 C160.545148,23.4579077 155.335466,28.5299077 148.907599,28.5299077 C142.480996,28.5299077 137.270682,23.4579077 137.270682,17.2019077 C137.270682,10.9452923 142.480996,5.87329231 148.907599,5.87329231 M148.907599,9.23083077 C153.430117,9.23083077 157.096681,12.7994462 157.096681,17.2012923 C157.096681,21.6037538 153.430117,25.1723692 148.907599,25.1723692 C144.385714,25.1723692 140.719781,21.6037538 140.719781,17.2012923 C140.719781,12.7994462 144.385714,9.23083077 148.907599,9.23083077" id="Fill-45" fill="#8E9BA6"></path>
            <path d="M148.907599,6.09551453 C142.604653,6.09551453 137.495957,11.0687801 137.495957,17.2019077 C137.495957,23.3345132 142.604748,28.3076855 148.907599,28.3076855 C155.211398,28.3076855 160.319873,23.3348209 160.319873,17.2019077 C160.319873,11.0684724 155.211494,6.09551453 148.907599,6.09551453 Z M148.907599,5.65107009 C155.459001,5.65107009 160.770423,10.8216872 160.770423,17.2019077 C160.770423,23.5816099 155.458902,28.7521299 148.907599,28.7521299 C142.357245,28.7521299 137.045407,23.5813022 137.045407,17.2019077 C137.045407,10.8219949 142.357145,5.65107009 148.907599,5.65107009 Z M148.907599,9.45305299 C144.509465,9.45305299 140.945056,12.9228406 140.945056,17.2012923 C140.945056,21.4802669 144.50937,24.950147 148.907599,24.950147 C153.30649,24.950147 156.871406,21.4802366 156.871406,17.2012923 C156.871406,12.9228709 153.306395,9.45305299 148.907599,9.45305299 Z M148.907599,9.00860855 C153.553883,9.00860855 157.321956,12.6760658 157.321956,17.2012923 C157.321956,21.7270363 153.553984,25.3945915 148.907599,25.3945915 C144.261861,25.3945915 140.494507,21.7270505 140.494507,17.2012923 C140.494507,12.6760517 144.261962,9.00860855 148.907599,9.00860855 Z" id="Stroke-47" fill="#8E9BA6" fill-rule="nonzero"></path>
        </g>
    </g>
</svg>