<?xml version="1.0" encoding="UTF-8"?>
<svg width="179px" height="42px" viewBox="0 0 179 42" version="1.1" xmlns="http://www.w3.org/2000/svg" xmlns:xlink="http://www.w3.org/1999/xlink">
    <!-- Generator: Sketch 49.3 (51167) - http://www.bohemiancoding.com/sketch -->
    <title>espacio-publico</title>
    <desc>Created with Sketch.</desc>
    <defs></defs>
    <g id="Page-1" stroke="none" stroke-width="1" fill="none" fill-rule="evenodd">
        <g id="espacio-publico" fill="#8E9BA6">
            <path d="M18.0518016,22.8893831 L20.8117654,5.99945085 C20.8117654,5.99945085 9.3379855,3.11734915 8.37547007,3.11734915 C7.41271436,3.11734915 9.42760564,21.6011458 9.95956,22.0413153 C10.4915144,22.4814847 11.333415,22.8165356 11.333415,22.8165356 C11.333415,22.8165356 11.8841103,38.9841627 11.814913,40.1385695" id="Fill-1"></path>
            <path d="M12.0434564,1.48409492 C12.0434564,2.17365424 12.607847,2.73175593 13.3063074,2.73175593 C14.0030859,2.73175593 14.5684376,2.17365424 14.5684376,1.48409492 C14.5684376,0.795247458 14.0030859,0.237145763 13.3063074,0.237145763 C12.607847,0.237145763 12.0434564,0.795247458 12.0434564,1.48409492" id="Fill-3"></path>
            <path d="M2.75979557,24.711922 L7.20805369e-05,7.82127797 C7.20805369e-05,7.82127797 11.4733714,4.93965085 12.4361271,4.93965085 C13.3991231,4.93965085 11.3839915,23.423922 10.8520372,23.8638542 C10.3200828,24.3035492 9.47818215,24.6390746 9.47818215,24.6390746 C9.47818215,24.6390746 8.92748685,40.8064644 8.99692443,41.9608712" id="Fill-6" style="mix-blend-mode: multiply;"></path>
            <path d="M6.13292443,3.98767458 C6.13292443,4.67770847 5.56877409,5.23581017 4.87007342,5.23581017 C4.1732949,5.23581017 3.60818349,4.67770847 3.60818349,3.98767458 C3.60818349,3.29953898 4.1732949,2.74096271 4.87007342,2.74096271 C5.56877409,2.74096271 6.13292443,3.29953898 6.13292443,3.98767458" id="Fill-9"></path>
            <path d="M16.7831121,24.1648068 L14.0233886,7.27487458 C14.0233886,7.27487458 25.4971685,4.39277288 26.4596839,4.39277288 C27.4226799,4.39277288 25.4075483,22.8770441 24.875594,23.3172136 C24.3436396,23.7569085 23.5017389,24.0924339 23.5017389,24.0924339 C23.5017389,24.0924339 22.9510436,40.2595864 23.0202409,41.4144678" id="Fill-12" style="mix-blend-mode: multiply;"></path>
            <path d="M20.1567215,3.44079661 C20.1567215,4.13083051 19.5920906,4.6889322 18.8936302,4.6889322 C18.1968517,4.6889322 17.6317403,4.13083051 17.6317403,3.44079661 C17.6317403,2.75266102 18.1968517,2.19432203 18.8936302,2.19432203 C19.5920906,2.19432203 20.1567215,2.75266102 20.1567215,3.44079661" id="Fill-14"></path>
            <polygon id="Fill-17" points="27.8082627 38.6327864 35.3589392 38.6327864 35.3589392 39.9314644 26.37386 39.9314644 26.37386 26.0014644 35.1198721 26.0014644 35.1198721 27.2999051 27.8082627 27.2999051 27.8082627 32.0416339 34.6414976 32.0416339 34.6414976 33.3400746 27.8082627 33.3400746"></polygon>
            <path d="M43.6657405,28.3033254 C43.0480103,27.3983085 42.1316264,26.9458 40.9362909,26.9458 C39.4620036,26.9458 37.9281298,27.7129525 37.9281298,29.4643763 C37.9281298,33.2220712 45.1599701,31.2347831 45.1599701,36.2520034 C45.1599701,38.7898 42.7493566,40.2854271 40.5177432,40.2854271 C38.8046291,40.2854271 37.1511016,39.6755966 36.0751795,38.2193593 L37.3702264,37.2948847 C37.9677741,38.3180712 39.1035231,38.9867492 40.5775701,38.9867492 C41.9920305,38.9867492 43.6059137,38.0817322 43.6059137,36.4489525 C43.6059137,32.5137661 36.3740734,34.6975288 36.3740734,29.6020034 C36.3740734,26.9064102 38.6450909,25.6473593 40.9362909,25.6473593 C42.5299915,25.6473593 43.8050962,26.0801729 44.920903,27.339461 L43.6657405,28.3033254 Z" id="Fill-19"></path>
            <path d="M48.3070784,32.1597322 L50.6179804,32.1597322 C53.1878918,32.1597322 54.0646314,31.0575288 54.0646314,29.7201729 C54.0646314,28.3821051 53.1878918,27.3000712 50.6179804,27.3000712 L48.3070784,27.3000712 L48.3070784,32.1597322 Z M46.8726757,26.0013932 L50.9767012,26.0013932 C53.8455066,26.0013932 55.6186878,27.2212915 55.6186878,29.7201729 C55.6186878,32.2185797 53.8455066,33.4584102 50.9767012,33.4584102 L48.3070784,33.4584102 L48.3070784,39.9313932 L46.8726757,39.9313932 L46.8726757,26.0013932 Z" id="Fill-21"></path>
            <path d="M57.4905472,34.9733525 L63.6068211,34.9733525 L60.5587754,27.6539627 L57.4905472,34.9733525 Z M55.3987701,39.9314881 L53.7253003,39.9314881 L59.8612761,26.0012508 L61.2560345,26.0012508 L67.3920103,39.9314881 L65.7185405,39.9314881 L64.1644842,36.2715559 L56.9528264,36.2715559 L55.3987701,39.9314881 Z" id="Fill-23"></path>
            <path d="M79.3244867,37.7276508 C78.3884008,39.1639559 76.4359793,40.2853797 74.1048948,40.2853797 C69.9013981,40.2853797 66.7538813,37.1966 66.7538813,32.9662271 C66.7538813,28.7360915 69.9013981,25.6473119 74.1048948,25.6473119 C75.8581337,25.6473119 77.7507283,26.2965322 78.9859485,27.8510068 L77.730786,28.7754814 C77.1728827,27.8704644 75.5991243,26.9457525 74.1048948,26.9457525 C70.4792438,26.9457525 68.3074572,29.7590407 68.3074572,32.9662271 C68.3074572,36.1731763 70.4792438,38.986939 74.1048948,38.986939 C75.579182,38.986939 77.0933538,38.5144983 78.1490934,36.9014136 L79.3244867,37.7276508 Z" id="Fill-25"></path>
            <polygon id="Fill-27" points="80.5391879 39.931322 81.9735906 39.931322 81.9735906 26.001322 80.5391879 26.001322"></polygon>
            <path d="M90.9980258,26.9458712 C87.3723748,26.9458712 85.2008285,29.758922 85.2008285,32.9661085 C85.2008285,36.1732949 87.3723748,38.9868203 90.9980258,38.9868203 C94.6241573,38.9868203 96.7954634,36.1732949 96.7954634,32.9661085 C96.7954634,29.758922 94.6241573,26.9458712 90.9980258,26.9458712 M90.9980258,40.2854983 C86.7945291,40.2854983 83.6467721,37.1964814 83.6467721,32.9661085 C83.6467721,28.7362102 86.7945291,25.6471932 90.9980258,25.6471932 C95.2017627,25.6471932 98.3492795,28.7362102 98.3492795,32.9661085 C98.3492795,37.1964814 95.2017627,40.2854983 90.9980258,40.2854983" id="Fill-29"></path>
            <path d="M106.058461,32.041539 C107.493104,32.041539 109.345814,31.9627593 109.345814,30.0741831 C109.345814,28.3621492 107.692046,28.1262847 106.337172,28.1262847 L104.54453,28.1262847 L104.54453,32.041539 L106.058461,32.041539 Z M102.034445,26.0013695 L106.775422,26.0013695 C109.504872,26.0013695 111.975552,26.9457763 111.975552,30.0347932 C111.975552,33.5366915 109.325632,34.1664542 106.337172,34.1664542 L104.54453,34.1664542 L104.54453,39.9313695 L102.034445,39.9313695 L102.034445,26.0013695 Z" id="Fill-30"></path>
            <path d="M120.063013,22.2236237 L122.77252,22.2236237 L119.963541,25.0568441 L118.091129,25.0568441 L120.063013,22.2236237 Z M124.704999,34.8157932 C124.704999,38.1800644 122.254501,40.285522 119.027215,40.285522 C115.799689,40.285522 113.349672,38.1800644 113.349672,34.8157932 L113.349672,26.0012508 L115.859756,26.0012508 L115.859756,34.7370136 C115.859756,36.1144712 116.616602,37.9245051 119.027215,37.9245051 C121.438069,37.9245051 122.194915,36.1144712 122.194915,34.7370136 L122.194915,26.0012508 L124.704999,26.0012508 L124.704999,34.8157932 Z" id="Fill-31"></path>
            <path d="M129.106861,37.8064305 L131.418004,37.8064305 C132.71281,37.8064305 134.505934,37.5900237 134.505934,35.7602949 C134.505934,34.3040576 133.549425,33.7924644 131.517475,33.7924644 L129.106861,33.7924644 L129.106861,37.8064305 Z M129.106861,31.6675492 L131.397821,31.6675492 C133.071291,31.6675492 133.907906,30.9594814 133.907906,29.9166 C133.907906,28.7161593 133.071291,28.126261 131.178696,28.126261 L129.106861,28.126261 L129.106861,31.6675492 Z M126.596777,26.0013458 L132.095321,26.0013458 C134.227223,26.0013458 136.418231,26.9652102 136.418231,29.5037186 C136.418231,31.0776508 135.422318,32.1202949 133.967973,32.5531085 L133.967973,32.5924983 C135.740914,32.7889729 137.016019,34.1664305 137.016019,35.9567695 C137.016019,38.986939 134.346396,39.9313458 131.677013,39.9313458 L126.596777,39.9313458 L126.596777,26.0013458 Z" id="Fill-32"></path>
            <polygon id="Fill-33" points="137.912316 26.0013458 140.422401 26.0013458 140.422401 37.688261 146.41878 37.688261 146.41878 39.9313458 137.912316 39.9313458"></polygon>
            <polygon id="Fill-34" points="147.394366 39.931322 149.904451 39.931322 149.904451 26.001322 147.394366 26.001322"></polygon>
            <path d="M161.877701,29.2673085 C160.841904,28.1850373 159.885635,27.8898508 158.909424,27.8898508 C156.000975,27.8898508 154.068496,30.0935458 154.068496,32.8679186 C154.068496,35.8390034 156.000975,38.0422237 158.909424,38.0422237 C160.045173,38.0422237 161.141038,37.5306305 162.077124,36.3503593 L164.148959,37.8063593 C162.873854,39.5378508 160.961317,40.2855458 158.889242,40.2855458 C154.54663,40.2855458 151.438757,37.3735458 151.438757,33.025478 C151.438757,28.5592407 154.54663,25.6472407 158.889242,25.6472407 C160.802019,25.6472407 162.435604,26.2570712 163.830363,27.8509356 L161.877701,29.2673085 Z" id="Fill-35"></path>
            <path d="M171.360328,38.0423424 C174.28872,38.0423424 176.220959,35.839122 176.220959,32.8678 C176.220959,30.0936644 174.28872,27.8899695 171.360328,27.8899695 C168.451878,27.8899695 166.519399,30.0936644 166.519399,32.8678 C166.519399,35.839122 168.451878,38.0423424 171.360328,38.0423424 M171.340146,25.6473593 C175.742825,25.5685797 178.850937,28.4803424 178.850937,32.9465797 C178.850937,37.2948847 175.742825,40.2066475 171.340146,40.2854271 C166.997533,40.2854271 163.889421,37.3736644 163.889421,33.0253593 C163.889421,28.559122 166.997533,25.6473593 171.340146,25.6473593" id="Fill-36"></path>
        </g>
    </g>
</svg>