<?xml version="1.0" encoding="UTF-8"?>
<svg width="222px" height="102px" viewBox="0 0 222 102" version="1.1" xmlns="http://www.w3.org/2000/svg" xmlns:xlink="http://www.w3.org/1999/xlink">
    <!-- Generator: Sketch 49.3 (51167) - http://www.bohemiancoding.com/sketch -->
    <title>Artboard</title>
    <desc>Created with Sketch.</desc>
    <defs></defs>
    <g id="Artboard" stroke="none" stroke-width="1" fill="none" fill-rule="evenodd">
        <g id="hivos" transform="translate(61.000000, 20.000000)">
            <polygon id="Fill-1" fill="#8E9BA6" points="0 61.1293043 100.971143 61.1293043 100.971143 0 0 0"></polygon>
            <path d="M37.5747054,37.8245069 C37.1914464,37.4938403 36.9732143,36.9789707 36.9732143,36.2646229 C36.9795268,34.4818982 41.6516786,23.7289417 41.6462679,21.8869127 C41.63725,21.4232606 41.4316429,21.1707678 41.0231339,21.1662751 C40.3954911,21.1527968 39.1988214,22.2382461 38.6009375,22.9786519 L38.5558482,23.0307678 L37.6044643,22.298449 L37.6306161,22.2490287 C38.3448304,20.8221301 41.4893571,18.0330287 43.1378214,17.9710287 C43.8204732,17.9692316 44.3507232,18.1381591 44.7060268,18.4948838 C45.0649375,18.8498113 45.2398839,19.384449 45.2398839,20.0934055 C45.2335714,21.5697243 40.5614196,33.0226519 40.5668304,34.2985939 C40.5668304,34.7415794 40.9347589,35.1054924 41.5119018,35.1072895 C42.7293125,35.1306519 44.7150446,32.1249997 45.6474911,31.1500722 L45.6664286,31.1312026 L45.6979911,31.1312026 C45.8314554,31.1401881 45.9973839,31.2641881 46.1705268,31.4097533 C46.3355536,31.5616084 46.4888571,31.7071736 46.4987768,31.8518403 L46.4987768,31.8698113 L46.4888571,31.8850866 C45.0965,34.2078403 41.9429554,38.2881591 39.1131518,38.2998403 C38.4954286,38.2998403 37.9588661,38.1560722 37.5747054,37.8245069" id="Fill-2" fill="#FEFEFE"></path>
            <path d="M44.5734643,13.2257681 C45.7836607,13.2257681 46.7620982,12.2751014 46.7620982,11.106087 C46.7620982,9.93617391 45.7836607,8.98550725 44.5734643,8.98550725 C43.3650714,8.98550725 42.3839286,9.93617391 42.3839286,11.106087 C42.3839286,12.2751014 43.3650714,13.2257681 44.5734643,13.2257681" id="Fill-4" fill="#FEFEFE"></path>
            <polygon id="Fill-6" fill="#FEFEFE" points="24.5132411 37.9098551 24.5132411 35.7416522 27.4124821 35.7416522 27.4124821 24.4127246 14.7261607 24.4127246 14.7261607 35.7416522 17.8815089 35.7416522 17.8815089 37.9098551 8.11607143 37.9098551 8.11607143 35.7416522 11.0901607 35.7416522 11.0901607 11.1537101 8.11607143 11.1537101 8.11607143 8.98550725 17.8815089 8.98550725 17.8815089 11.1537101 14.7261607 11.1537101 14.7261607 22.0055072 27.4124821 22.0055072 27.4124821 11.1537101 24.5132411 11.1537101 24.5132411 8.98550725 34.2876964 8.98550725 34.2876964 11.1537101 31.2604018 11.1537101 31.2604018 35.7416522 34.2876964 35.7416522 34.2876964 37.9098551"></polygon>
            <polygon id="Fill-8" fill="#FEFEFE" points="54.9935982 38.2611884 49.6910982 19.8525797 47.7946429 19.8525797 47.7946429 17.9710145 55.0107321 17.9710145 55.0107321 19.8525797 53.2747946 19.8525797 56.5401607 31.3728986 60.3673393 19.8525797 58.5322054 19.8525797 58.5322054 17.9710145 63.7291964 17.9710145 63.7291964 19.8525797 62.2304286 19.8525797 56.0063036 38.2611884"></polygon>
            <path d="M82.0625,38.5972464 L82.0625,34.4603188 L82.0625,34.2824058 L83.0454464,34.2824058 L83.0950446,34.3183478 C83.1004554,34.3228406 83.1662857,34.3677681 83.2294107,34.4414493 C83.2907321,34.5151304 84.133,35.6383188 84.1366071,35.6455072 C84.5947143,36.2825797 86.0258482,36.8190145 87.2567857,36.8109275 C88.9259911,36.8064348 90.2083304,35.5915942 90.2101339,34.0065507 C90.2101339,33.9535362 90.2083304,33.9005217 90.205625,33.8502029 C90.1343839,32.4924928 89.4012321,31.5004928 87.3036786,29.8804058 C83.9643661,27.3590725 82.9922411,26.0426957 82.8867321,23.8807826 C82.8795179,23.7756522 82.8759107,23.6678261 82.8759107,23.5626957 C82.8759107,22.0225797 83.4692857,20.6801449 84.4846964,19.7249855 C85.5001071,18.7716232 86.9321429,18.2091304 88.5932321,18.2091304 C89.6257768,18.2073333 90.3481071,18.3448116 91.6024911,18.8767536 L91.6024911,17.9710145 L92.8956518,17.9710145 L92.8956518,22.8591304 L91.8450714,22.8591304 L91.7999821,22.7423188 C91.064125,20.8257101 89.8440089,19.8076522 88.3163839,19.8058551 C86.7454732,19.813942 85.7030089,20.8634493 85.6921875,22.4008696 C85.6921875,22.4601739 85.6939911,22.5167826 85.6966964,22.576087 C85.7643304,23.9194203 86.7157143,25.2151304 89.2695714,27.1182609 C92.3004732,29.3502609 93.1201964,30.5408406 93.2284107,32.7809275 C93.2347232,32.9058261 93.2392321,33.0289275 93.2392321,33.1511304 C93.2392321,34.7541449 92.6647946,36.0822029 91.6277411,36.9942319 C90.5915893,37.908058 89.1099554,38.4067536 87.3199107,38.4067536 C86.0934821,38.4067536 85.1078304,38.2746667 83.6748929,37.8092174 L83.6748929,38.5972464 L82.0625,38.5972464 Z" id="Fill-10" fill="#FEFEFE"></path>
            <path d="M8.15665179,46.0013043 L9.81142857,46.0013043 L9.81142857,46.3526377 C10.1712411,46.0686957 10.6627143,45.8557391 11.2263304,45.826087 C12.7611696,45.826087 13.5330982,47.1074203 13.5330982,48.3033913 C13.5330982,49.8282319 12.5898304,51.0718261 10.9639107,51.0718261 C10.5526964,51.0718261 10.1523036,50.9738841 9.82225,50.8103478 L9.80060714,53.346058 L8.11607143,53.346058 L8.15665179,46.0013043 Z M9.80060714,49.5766377 C9.98276786,49.7707246 10.3543036,49.8488986 10.6149196,49.8488986 C11.4265268,49.8488986 11.7881429,49.2172174 11.7881429,48.4678261 C11.7881429,47.8091884 11.5257232,47.226029 10.743875,47.226029 C10.4129196,47.226029 10.0927857,47.3617101 9.8411875,47.5656812 L9.80060714,49.5766377 Z" id="Fill-12" fill="#FEFEFE"></path>
            <path d="M19.3938036,50.3422029 C18.8031339,50.8283188 17.9004464,51.0718261 17.0969554,51.0718261 C15.2618214,51.0718261 14.4285714,49.8075652 14.4285714,48.5558841 C14.4285714,47.0777681 15.5711339,45.826087 17.1483571,45.826087 C19.0745714,45.826087 19.6742589,47.1469565 19.6742589,48.8281449 L16.1735268,48.8281449 C16.1735268,49.2064348 16.425125,49.8462029 17.3873304,49.8462029 C17.9996429,49.8462029 18.3405179,49.6727826 18.81125,49.360087 L19.3938036,50.3422029 Z M18.1096607,47.8361449 C18.1096607,47.3311594 17.8598661,46.8755942 17.2764107,46.8755942 C16.7263214,46.8755942 16.3042857,47.350029 16.1942679,47.8361449 L18.1096607,47.8361449 Z" id="Fill-14" fill="#FEFEFE"></path>
            <path d="M23.570875,45.826087 C25.4357679,45.826087 26.4006786,46.9726377 26.4006786,48.4489565 C26.4006786,49.9252754 25.4357679,51.0718261 23.570875,51.0718261 C21.7059821,51.0718261 20.7410714,49.9252754 20.7410714,48.4489565 C20.7410714,46.9726377 21.7059821,45.826087 23.570875,45.826087 M23.570875,49.7895942 C24.404125,49.7895942 24.6539196,49.0914203 24.6539196,48.4489565 C24.6539196,47.8064928 24.404125,47.1083188 23.570875,47.1083188 C22.737625,47.1083188 22.4878304,47.8064928 22.4878304,48.4489565 C22.4878304,49.0914203 22.737625,49.7895942 23.570875,49.7895942" id="Fill-16" fill="#FEFEFE"></path>
            <path d="M27.9950357,46.0013043 L29.6507143,46.0013043 L29.6507143,46.3526377 C30.0123304,46.0686957 30.502,45.8557391 31.0656161,45.826087 C32.6004554,45.826087 33.3723839,47.1074203 33.3723839,48.3033913 C33.3723839,49.8282319 32.4291161,51.0718261 30.805,51.0718261 C30.3919821,51.0718261 29.9915893,50.9738841 29.6615357,50.8103478 L29.6398929,53.346058 L27.9553571,53.346058 L27.9950357,46.0013043 Z M29.6398929,49.5766377 C29.8220536,49.7707246 30.1935893,49.8488986 30.4542054,49.8488986 C31.2658125,49.8488986 31.6274286,49.2172174 31.6274286,48.4678261 C31.6274286,47.8091884 31.3668125,47.226029 30.5831607,47.226029 C30.2522054,47.226029 29.9320714,47.3617101 29.6804732,47.5656812 L29.6398929,49.5766377 Z" id="Fill-18" fill="#FEFEFE"></path>
            <polygon id="Fill-20" fill="#FEFEFE" points="34.3102411 43.1304348 34.2678571 50.4158841 36.0173214 50.4158841 36.0551964 43.1304348"></polygon>
            <path d="M41.9384464,50.3422029 C41.346875,50.8283188 40.4441875,51.0718261 39.6406964,51.0718261 C37.8055625,51.0718261 36.9732143,49.8075652 36.9732143,48.5558841 C36.9732143,47.0777681 38.1157768,45.826087 39.6920982,45.826087 C41.6192143,45.826087 42.218,47.1469565 42.218,48.8281449 L38.7172679,48.8281449 C38.7172679,49.2064348 38.9688661,49.8462029 39.9310714,49.8462029 C40.5433839,49.8462029 40.8851607,49.6727826 41.3558929,49.360087 L41.9384464,50.3422029 Z M40.6543036,47.8361449 C40.6543036,47.3311594 40.4045089,46.8755942 39.8210536,46.8755942 C39.2700625,46.8755942 38.8480268,47.350029 38.7380089,47.8361449 L40.6543036,47.8361449 Z" id="Fill-22" fill="#FEFEFE"></path>
            <path d="M49.3222679,45.826087 L51.0690268,45.826087 L51.0284464,50.7204928 L49.2816875,50.7204928 L49.2816875,50.1876522 C48.8812946,50.5668406 48.2689821,50.8966087 47.6458482,50.8966087 C46.5727232,50.8966087 45.9910714,50.3242319 45.9910714,48.9835942 C45.9910714,47.9817101 46.0009911,46.9052464 46.0118125,45.826087 L47.7585714,45.826087 C47.74775,46.7677681 47.7369286,47.7202319 47.7369286,48.7293043 C47.7369286,49.1291594 47.8469464,49.4391594 48.3681786,49.4391594 C48.6504375,49.4391594 49.0508304,49.2073333 49.2816875,48.9934783 L49.3222679,45.826087 Z" id="Fill-24" fill="#FEFEFE"></path>
            <path d="M52.34325,46.0013043 L54.0900089,46.0013043 L54.0900089,46.535942 C54.4904018,46.1576522 55.1036161,45.826087 55.7240446,45.826087 C56.7980714,45.826087 57.3788214,46.4002609 57.3788214,47.74 C57.3788214,48.740087 57.3698036,49.8192464 57.3589821,50.8957101 L55.6140268,50.8957101 C55.6248482,49.954029 55.6347679,49.0024638 55.6347679,47.9933913 C55.6347679,47.5935362 55.52475,47.2835362 55.0008125,47.2835362 C54.7212589,47.2835362 54.3181607,47.5171594 54.0900089,47.7310145 L54.0503304,50.8957101 L52.3035714,50.8957101 L52.34325,46.0013043 Z" id="Fill-26" fill="#FEFEFE"></path>
            <polygon id="Fill-28" fill="#FEFEFE" points="58.6566518 43.1304348 58.6160714 50.4158841 60.3628304 50.4158841 60.4007054 43.1304348"></polygon>
            <path d="M61.3620089,44.5285797 L63.1087679,44.5285797 L63.1087679,43.1304348 L61.3620089,43.1304348 L61.3620089,44.5285797 Z M61.3620089,45.3067246 L61.3214286,50.2029275 L63.0672857,50.2029275 L63.1060625,45.3067246 L61.3620089,45.3067246 Z" id="Fill-30" fill="#FEFEFE"></path>
            <path d="M64.9285714,50.8966087 L64.9691518,46.0022029 L66.7150089,46.0022029 L66.7150089,46.5844638 C67.1659018,46.1477681 67.7385357,45.826087 68.3697857,45.826087 C68.9911161,45.826087 69.4338929,46.0318551 69.8045268,46.5844638 C70.3365804,46.1477681 71.0381696,45.826087 71.6910625,45.826087 C72.8742054,45.826087 73.3350179,46.6338841 73.3350179,47.6618261 C73.3350179,48.7409855 73.3250982,49.8201449 73.3169821,50.8966087 L71.5702232,50.8966087 C71.5810446,49.9549275 71.5891607,49.0033623 71.5891607,48.0607826 C71.5891607,47.6537391 71.4602054,47.2835362 70.9579107,47.2835362 C70.6467946,47.2835362 70.2455,47.5162609 70.0335804,47.7301159 L69.9957054,50.8966087 L68.2498482,50.8966087 C68.2597679,49.9549275 68.2687857,49.0033623 68.2687857,48.0607826 C68.2687857,47.6537391 68.1398304,47.2835362 67.6366339,47.2835362 C67.3255179,47.2835362 66.925125,47.5162609 66.7150089,47.7301159 L66.6753304,50.8966087 L64.9285714,50.8966087 Z" id="Fill-32" fill="#FEFEFE"></path>
            <path d="M73.9870089,44.5285797 L75.7337679,44.5285797 L75.7337679,43.1304348 L73.9870089,43.1304348 L73.9870089,44.5285797 Z M73.9870089,45.3067246 L73.9464286,50.2029275 L75.6931875,50.2029275 L75.7337679,45.3067246 L73.9870089,45.3067246 Z" id="Fill-33" fill="#FEFEFE"></path>
            <path d="M76.6923661,45.6886087 L77.4336339,45.6886087 L77.4742143,44.0289855 L79.1605536,44.0289855 L79.120875,45.6886087 L80.5556161,45.6886087 L80.5240536,46.9133333 L79.0893125,46.9133333 C79.0893125,47.5935362 79.0406161,48.3114783 79.0406161,48.7293043 C79.0406161,49.1561159 79.1506339,49.3609855 79.5402054,49.3609855 C79.7818839,49.3609855 79.9829821,49.2450725 80.1822768,49.1264638 L80.5637321,50.273913 C80.0542232,50.5749275 79.4301875,50.7591304 78.8395179,50.7591304 C77.4246161,50.7591304 77.353375,49.8956232 77.353375,48.767942 C77.353375,48.165913 77.4047768,47.5638841 77.4047768,46.9133333 L76.6517857,46.9133333 L76.6923661,45.6886087 Z" id="Fill-34" fill="#FEFEFE"></path>
            <path d="M86.1259464,50.3422029 C85.5352768,50.8283188 84.6325893,51.0718261 83.8281964,51.0718261 C81.9930625,51.0718261 81.1607143,49.8075652 81.1607143,48.5558841 C81.1607143,47.0777681 82.3032768,45.826087 83.8795982,45.826087 C85.8067143,45.826087 86.4064018,47.1469565 86.4064018,48.8281449 L82.9047679,48.8281449 C82.9047679,49.2064348 83.1572679,49.8462029 84.1185714,49.8462029 C84.7317857,49.8462029 85.0726607,49.6727826 85.5433929,49.360087 L86.1259464,50.3422029 Z M84.8418036,47.8361449 C84.8418036,47.3311594 84.5920089,46.8755942 84.0085536,46.8755942 C83.4575625,46.8755942 83.0355268,47.350029 82.9255089,47.8361449 L84.8418036,47.8361449 Z" id="Fill-35" fill="#FEFEFE"></path>
            <path d="M92.8496607,50.4149855 L91.1939821,50.4149855 L91.1939821,50.0645507 C90.8341696,50.3475942 90.3426964,50.5605507 89.7808839,50.5902029 C88.2451429,50.5902029 87.4732143,49.3088696 87.4732143,48.1128986 C87.4732143,46.5889565 88.4155804,45.3444638 90.0415,45.3444638 C90.4527143,45.3444638 90.8531071,45.4424058 91.1831607,45.6068406 L91.2048036,43.1304348 L92.8902411,43.1304348 L92.8496607,50.4149855 Z M91.2048036,46.8396522 C91.0226429,46.6464638 90.6511071,46.5682899 90.3904911,46.5682899 C89.5797857,46.5682899 89.2172679,47.1990725 89.2172679,47.9493623 C89.2172679,48.6071014 89.4778839,49.1911594 90.2624375,49.1911594 C90.5924911,49.1911594 90.912625,49.0554783 91.165125,48.8506087 L91.2048036,46.8396522 Z" id="Fill-36" fill="#FEFEFE"></path>
            <path d="M79.7566339,26.6770725 C79.4978214,21.7062899 76.4497857,17.9764058 72.4747143,17.9710145 C68.0550625,17.9871884 64.9339821,22.9103478 64.9285714,29.3844058 C64.9285714,29.7384348 64.9357857,30.0978551 64.955625,30.4635652 C65.2027143,35.1989275 68.2976429,38.9225217 72.126625,38.9306087 C76.4371607,38.9054493 79.7737679,33.6749855 79.7791786,27.5594493 C79.7791786,27.2656232 79.7710625,26.9726957 79.7566339,26.6770725 M75.0646429,35.0057391 C74.3684643,36.3373913 73.4116696,37.0472464 72.2438571,37.0472464 C71.2031964,37.0445507 70.3726518,36.3966957 69.7260714,34.9967536 C69.0858036,33.6013043 68.6772946,31.4834203 68.5303036,28.679942 C68.5303036,28.679942 68.5239911,27.350087 68.5239911,27.0104348 C68.5221875,24.6957681 68.882,22.8483478 69.5303839,21.6029565 C70.1859821,20.3521739 71.0904732,19.7124058 72.2519732,19.7106087 C73.5036518,19.7043188 74.6065357,20.8041449 75.1972054,22.7764638 C75.6255536,24.4297971 76.0367679,26.6204638 76.1197321,28.2207826 C76.1404732,28.6233333 76.1512946,29.0151014 76.1512946,29.396087 C76.1512946,31.7404058 75.7554107,33.6749855 75.0646429,35.0057391" id="Fill-37" fill="#FEFEFE"></path>
        </g>
    </g>
</svg>