<?xml version="1.0" encoding="UTF-8"?>
<svg width="222px" height="102px" viewBox="0 0 222 102" version="1.1" xmlns="http://www.w3.org/2000/svg" xmlns:xlink="http://www.w3.org/1999/xlink">
    <!-- Generator: Sketch 49.3 (51167) - http://www.bohemiancoding.com/sketch -->
    <title>Artboard</title>
    <desc>Created with Sketch.</desc>
    <defs></defs>
    <g id="Artboard" stroke="none" stroke-width="1" fill="none" fill-rule="evenodd">
        <g id="horizontal" transform="translate(36.000000, 38.000000)" fill="#8E9BA6">
            <path d="M15.0105176,25.7900861 C12.4089882,25.7900861 11.2848706,24.1719472 11.2848706,21.4755306 L11.2848706,14.6404194 C11.2848706,13.5263917 10.7921647,12.8413639 9.6324,12.8413639 C8.43592941,12.8413639 7.34745882,13.6708361 6.85616471,14.0648083 L6.85616471,21.6560861 L8.96357647,21.6560861 L8.96357647,25.4318639 L-7.05882363e-05,25.4318639 L-7.05882363e-05,21.6560861 L2.10910588,21.6560861 L2.10910588,4.138225 L-7.05882363e-05,4.138225 L-7.05882363e-05,0.361002778 L6.85616471,0.361002778 L6.85616471,10.4681417 C7.62981176,9.71305833 9.10510588,8.16894722 11.6349882,8.16894722 C14.2015765,8.16894722 16.0315765,9.81994722 16.0315765,13.273975 L16.0315765,20.5756417 C16.0315765,21.3310861 16.3121647,21.6560861 16.8373412,21.6560861 C17.4366353,21.6560861 17.8580471,21.4755306 18.1396941,21.3675583 L18.1396941,25.1433361 C17.6833412,25.3596417 16.4889882,25.7900861 15.0105176,25.7900861" id="Fill-1"></path>
            <path d="M27.8365412,12.1953361 C26.0439529,12.1953361 24.6388941,13.273975 24.6388941,16.9796972 C24.6388941,20.5041417 25.9761882,21.7250583 27.8365412,21.7250583 C29.6294824,21.7250583 31.0380706,20.6843361 31.0380706,16.9796972 C31.0380706,13.3469194 29.7000706,12.1953361 27.8365412,12.1953361 M27.8365412,25.7900861 C23.0912471,25.7900861 19.7153647,23.020725 19.7153647,16.9796972 C19.7153647,10.9383083 23.0199529,8.16678056 27.8365412,8.16678056 C32.4780706,8.16678056 35.9563059,10.9383083 35.9563059,16.9796972 C35.9563059,23.020725 32.4427765,25.7900861 27.8365412,25.7900861" id="Fill-4"></path>
            <path d="M44.3915294,15.4693139 L44.3915294,21.6558694 L47.2016471,21.6558694 L47.2016471,25.4320083 L37.5356471,25.4320083 L37.5356471,21.6558694 L39.6423529,21.6558694 L39.6423529,12.3023694 L37.5356471,12.3023694 L37.5356471,8.52550833 L44.3915294,8.52550833 L44.3915294,10.8972861 C45.3056471,9.28131389 46.6034118,8.16620278 49.1714118,8.16620278 L49.1714118,13.0588972 C47.3085882,13.0588972 45.3056471,14.1736472 44.3915294,15.4693139" id="Fill-7"></path>
            <path d="M55.7073529,25.7900861 C53.1047647,25.7900861 51.9799412,24.1719472 51.9799412,21.4755306 L51.9799412,12.3025861 L49.8693529,12.3025861 L49.8693529,8.52464167 L56.7262941,8.52464167 L56.7262941,20.5756417 C56.7262941,21.3310861 57.0065294,21.6560861 57.5348824,21.6560861 C58.1306471,21.6560861 58.5562941,21.4755306 58.8368824,21.3675583 L58.8368824,25.1433361 C58.3780588,25.3596417 57.1826471,25.7900861 55.7073529,25.7900861" id="Fill-9"></path>
            <polygon id="Fill-12" points="51.9790588 6.29691111 74.3710588 6.29691111 74.3710588 1.43924444 51.9790588 1.43924444"></polygon>
            <polygon id="Fill-14" points="67.9022471 21.2957694 70.5041294 21.2957694 70.5041294 18.7416306 74.1962471 18.7416306 74.1962471 25.4308528 60.0627176 25.4308528 66.4244824 12.6626861 63.9306 12.6626861 63.9306 14.9997972 60.2395412 14.9997972 60.2395412 8.52543611 74.3709529 8.52543611"></polygon>
            <path d="M84.5943882,12.1953361 C82.8010941,12.1953361 81.3960353,13.273975 81.3960353,16.9796972 C81.3960353,20.5041417 82.7340353,21.7250583 84.5943882,21.7250583 C86.3869765,21.7250583 87.7959176,20.6843361 87.7959176,16.9796972 C87.7959176,13.3469194 86.4586235,12.1953361 84.5943882,12.1953361 M84.5943882,25.7900861 C79.8490941,25.7900861 76.4728588,23.020725 76.4728588,16.9796972 C76.4728588,10.9383083 79.7785059,8.16678056 84.5943882,8.16678056 C89.2362706,8.16678056 92.7152118,10.9383083 92.7152118,16.9796972 C92.7152118,23.020725 89.2002706,25.7900861 84.5943882,25.7900861" id="Fill-15"></path>
            <path d="M109.304082,25.7900861 C106.701847,25.7900861 105.577729,24.1719472 105.577729,21.4755306 L105.577729,14.6404194 C105.577729,13.5263917 105.085729,12.8413639 103.924906,12.8413639 C102.835729,12.8413639 101.675612,13.6354472 101.149376,14.0648083 L101.149376,21.6560861 L103.257141,21.6560861 L103.257141,25.4318639 L94.2934941,25.4318639 L94.2934941,21.6560861 L96.4026706,21.6560861 L96.4026706,12.3025861 L94.2934941,12.3025861 L94.2934941,8.52464167 L101.149376,8.52464167 L101.149376,10.4681417 C101.922671,9.71305833 103.397965,8.16894722 105.928553,8.16894722 C108.494435,8.16894722 110.325141,9.81994722 110.325141,13.273975 L110.325141,20.5756417 C110.325141,21.3310861 110.606082,21.6560861 111.1302,21.6560861 C111.729141,21.6560861 112.150906,21.4755306 112.431847,21.3675583 L112.431847,25.1433361 C111.976906,25.3596417 110.781494,25.7900861 109.304082,25.7900861" id="Fill-16"></path>
            <path d="M118.966518,25.7900861 C116.364635,25.7900861 115.240871,24.1719472 115.240871,21.4755306 L115.240871,12.3025861 L113.129224,12.3025861 L113.129224,8.52464167 L115.240871,8.52464167 L115.944282,3.84969722 L119.985812,3.84969722 L119.985812,8.52464167 L122.445106,8.52464167 L122.445106,12.3025861 L119.985812,12.3025861 L119.985812,20.466225 C119.985812,21.2231139 120.267106,21.5463083 120.795106,21.5463083 C121.357341,21.5463083 122.130635,21.2960583 122.445106,21.1859194 L122.445106,25.0364472 C121.990518,25.2881417 120.652518,25.7900861 118.966518,25.7900861" id="Fill-17"></path>
            <path d="M133.341635,17.8761556 L131.479871,17.8761556 C129.719047,17.8761556 128.771753,18.6352111 128.771753,20.1092667 C128.771753,21.3666556 129.439165,22.0159333 130.564694,22.0159333 C131.654576,22.0159333 132.672812,21.2586833 133.341635,20.7921278 L133.341635,17.8761556 Z M137.067282,25.7902667 C135.274694,25.7902667 134.326341,25.0362667 133.938106,23.6691 C132.850341,24.7477389 131.407871,25.7902667 128.912576,25.7902667 C126.347753,25.7902667 123.851047,24.4938778 123.851047,20.7574611 C123.851047,16.29485 127.188106,14.9995444 130.879871,14.9995444 L133.341635,14.9995444 L133.341635,14.4607667 C133.341635,13.0939611 132.778341,12.3049333 131.231047,12.3049333 C130.0374,12.3049333 129.053047,12.5880444 128.699047,12.6627944 L128.699047,14.2812944 L125.008694,14.2812944 L125.008694,9.53376667 C126.625165,8.99246111 129.053047,8.16696111 132.074576,8.16696111 C136.400576,8.16696111 138.088694,10.3957389 138.088694,14.1029056 L138.088694,20.5754611 C138.088694,21.3309056 138.368576,21.6559056 138.893753,21.6559056 C139.494106,21.6559056 139.914812,21.4746278 140.195047,21.3666556 L140.195047,25.1424333 C139.740106,25.3598222 138.5454,25.7902667 137.067282,25.7902667 Z" id="Fill-18"></path>
            <path d="M146.731024,25.7900861 C144.127376,25.7900861 143.004318,24.1719472 143.004318,21.4755306 L143.004318,4.138225 L140.893729,4.138225 L140.893729,0.361002778 L147.749259,0.361002778 L147.749259,20.5756417 C147.749259,21.3310861 148.029847,21.6560861 148.559259,21.6560861 C149.153612,21.6560861 149.579612,21.4755306 149.859494,21.3675583 L149.859494,25.1433361 C149.401729,25.3596417 148.206318,25.7900861 146.731024,25.7900861" id="Fill-19"></path>
        </g>
    </g>
</svg>