<?xml version="1.0" encoding="UTF-8"?>
<svg width="60px" height="147px" viewBox="0 0 60 147" version="1.1" xmlns="http://www.w3.org/2000/svg" xmlns:xlink="http://www.w3.org/1999/xlink">
    <!-- Generator: Sketch 49.3 (51167) - http://www.bohemiancoding.com/sketch -->
    <title>pnud</title>
    <desc>Created with Sketch.</desc>
    <defs></defs>
    <g id="Page-1" stroke="none" stroke-width="1" fill="none" fill-rule="evenodd">
        <g id="pnud">
            <path d="M4.8353271,76.1330954 L4.8353271,51.9487901 L29.0057944,51.9487901 L29.0057944,76.1330954 L4.8353271,76.1330954 Z M22.4381495,60.5215271 C22.4381495,59.0812637 21.8886168,57.9086302 21.003757,57.1422103 C20.0454393,56.2804088 18.539271,55.8012561 16.4768411,55.8012561 C14.8018879,55.8012561 13.4852523,55.9460118 12.4781495,56.1384584 L12.4781495,72.0694431 L14.5624486,72.0694431 L14.5624486,65.6014431 C15.0424486,65.7209508 15.6155327,65.7439546 16.2402056,65.7439546 C18.2734766,65.7439546 20.0695514,65.1424889 21.1697383,63.9732218 C22.0091776,63.1310576 22.4381495,61.9819889 22.4381495,60.5215271 Z" id="Combined-Shape" fill="#8E9BA6"></path>
            <path d="M20.3331028,60.7392218 C20.3331028,58.5802294 18.8246916,57.5523515 16.5239439,57.5523515 C15.6155327,57.5523515 14.9213271,57.6477332 14.5624486,57.7206721 L14.5624486,63.9956645 C15.0155327,64.1168553 15.6155327,64.163424 16.2850654,64.163424 C18.8246916,64.163424 20.3331028,62.9189737 20.3331028,60.7392218" id="Path" fill="#8E9BA6"></path>
            <path d="M30.4923364,76.1302901 L30.4923364,51.9459847 L54.6734579,51.9459847 L54.6734579,76.1302901 L30.4923364,76.1302901 Z M38.5018318,72.1161802 L38.5018318,65.213913 C38.5018318,62.5297603 38.4777196,60.5929511 38.3549159,58.5551496 L38.4283738,58.5321458 C39.2201495,60.2781916 40.2979065,62.1235466 41.4216449,63.9223328 L46.5451963,72.1161802 L48.6536075,72.1161802 L48.6536075,55.9669397 L46.6898692,55.9669397 L46.6898692,62.748016 C46.6898692,65.2397221 46.736972,67.2040237 46.9281869,69.3607718 L46.854729,69.3826534 C46.1122991,67.7056191 45.1595888,66.0274626 43.9831402,64.1366611 L38.8349159,55.9669397 L36.532486,55.9669397 L36.532486,72.1161802 L38.5018318,72.1161802 Z" id="Combined-Shape" fill="#8E9BA6"></path>
            <path d="M4.83420561,101.68192 L4.83420561,77.4976145 L29.0046729,77.4976145 L29.0046729,101.68192 L4.83420561,101.68192 Z M10.9625047,81.5223286 L10.9625047,91.0358095 C10.9625047,96.0685958 13.4533458,97.9352714 16.7589533,97.9352714 C20.252972,97.9352714 22.8649346,95.9204737 22.8649346,90.9651149 L22.8649346,81.5223286 L20.7570841,81.5223286 L20.7570841,91.1053821 C20.7570841,94.6541416 19.1998879,96.2369164 16.8312897,96.2369164 C14.675215,96.2369164 13.0720374,94.6990271 13.0720374,91.1053821 L13.0720374,81.5223286 L10.9625047,81.5223286 Z" id="Combined-Shape" fill="#8E9BA6"></path>
            <path d="M30.4945794,101.683603 L30.4945794,77.4992977 L54.6768224,77.4992977 L54.6768224,101.683603 L30.4945794,101.683603 Z M49.7990467,89.1170107 C49.7990467,86.5057969 48.9612897,84.6138733 47.5044673,83.2936786 C46.0874579,81.9774115 43.9582991,81.3052511 40.9639065,81.3052511 C39.3125047,81.3052511 37.8040935,81.4483237 36.5087664,81.6430145 L36.5087664,97.5279916 C37.5870841,97.6710641 38.809514,97.7170718 40.3179252,97.7170718 C43.4541869,97.7170718 45.9439065,96.9057664 47.4792336,95.3942473 C48.9612897,93.9096595 49.7990467,91.7506672 49.7990467,89.1170107 Z" id="Combined-Shape" fill="#8E9BA6"></path>
            <path d="M47.5975514,89.1882664 C47.6216636,85.3320412 45.465028,82.9604038 41.0603551,82.9604038 C39.9837196,82.9604038 39.1700748,83.0546634 38.6188598,83.1747321 L38.6188598,95.9452168 C39.1425981,96.0405985 39.9080187,96.0405985 40.725028,96.0405985 C45.178486,96.0641634 47.5975514,93.5483313 47.5975514,89.1882664" id="Path" fill="#8E9BA6"></path>
            <path d="M4.83476636,50.453542 L4.83476636,0.561068702 L54.6998131,0.561068702 L54.6998131,50.453542 L4.83476636,50.453542 Z M42.466486,36.0910809 C44.6808785,35.3869397 47.0259252,33.1724015 47.3191963,30.8114244 C47.0466729,31.5093939 46.4814393,32.1546229 45.8640561,32.6466802 C44.322,33.8036038 42.459757,34.2025237 41.0315327,35.625955 C40.8795701,35.7258252 40.7270467,35.8784359 40.553215,35.8846076 C41.0853645,35.4194817 41.5704112,34.8477527 41.9091028,34.2558252 C42.7861121,32.7661878 42.4547103,30.7783214 43.2178879,29.2415542 C42.7524673,29.754371 42.4216262,30.3193672 42.0218131,30.8574321 C40.7668598,32.759455 40.8717196,35.2601382 38.9915327,36.875455 C40.1018131,36.4972947 41.324243,36.3968634 42.466486,36.0910809 Z M47.6052336,26.5280015 C48.5820561,24.7331427 48.8551402,22.1668145 47.9579439,20.2445931 C48.2568224,21.8733756 47.5250467,23.2367725 46.9340187,24.5872649 C46.5218692,25.5242496 46.3895327,26.5818641 46.1231776,27.5861771 L46.0435514,27.6787534 L46.0104673,27.6456504 C46.1024299,27.2068947 46.2560748,26.7877763 46.2162617,26.2901084 C46.3295327,24.2410855 44.5340187,22.9837305 44.1291589,21.1552076 L44.1095327,21.8408336 C44.2626168,23.6289595 44.7336449,25.2852344 45.2725234,26.9145779 C45.5854206,27.6731427 45.491215,28.6561351 45.4183178,29.4550969 C46.0631776,28.4440511 46.9076636,27.5194099 47.6052336,26.5280015 Z M46.5023551,16.1745447 C46.2965607,15.915892 46.1636636,15.5826172 45.8636636,15.4092469 C46.3290841,16.055037 46.4081495,16.8663424 46.4221682,17.7040179 C46.2102056,19.2469569 46.1429159,20.8830332 46.3621682,22.4456095 C46.3621682,22.4725408 46.3358131,22.4921782 46.3083364,22.4921782 C46.182729,22.0792317 46.1967477,21.6006401 45.9909533,21.2157469 C45.4913271,19.6991782 43.658243,18.9871821 42.9124486,17.6108805 C43.0195514,18.2095408 43.2057196,18.7812698 43.424972,19.3328004 C44.1214206,21.0227393 45.8165607,22.2997317 46.2831028,24.0878576 C46.3358131,24.254495 46.349271,24.4542355 46.4081495,24.6006744 C46.5354393,23.7428004 46.7608598,22.9180294 47.0793645,22.1398271 C47.9373084,20.3113042 47.6788037,17.770224 46.5023551,16.1745447 Z M45.6721682,15.8690427 C45.4046916,14.6318863 44.2820748,13.2813939 42.9934766,13.0160084 C43.5177757,13.3683595 43.9097383,13.9198901 44.1093645,14.4787145 C44.5013271,15.7691725 44.6931028,17.1325695 45.2583364,18.3422336 L45.2263738,18.3758977 C45.0138505,18.0364511 44.9078692,17.6240656 44.574785,17.324455 C43.5901121,16.034558 41.8753458,15.6956725 41.2377757,14.1600275 C41.3975888,15.0773748 41.6768411,15.9414206 42.3217009,16.6528557 C43.4314206,17.8501763 45.0458131,18.5554397 45.8045047,20.0518099 L45.8168411,20.0383443 C45.5319813,18.6289397 45.9845047,17.2649817 45.6721682,15.8690427 Z M42.2145981,12.6634328 C41.3846916,11.9183336 40.3405794,11.6725855 39.370486,11.2602 L40.4740374,12.3772878 C41.3779626,13.8209176 42.6603925,15.1904863 44.0762804,16.2077038 L43.9164673,15.8351542 C43.630486,14.6647649 43.1914206,13.5342115 42.2145981,12.6634328 Z M19.8726168,11.4468115 C18.5430841,11.9652389 17.0542991,12.4572962 16.2501869,13.860529 C15.685514,14.6179718 15.6714953,15.6026473 15.2733645,16.4274183 C16.0107477,15.7356206 16.8417757,15.2037275 17.492243,14.399155 C18.2172897,13.3886702 18.8952336,12.3041244 19.8726168,11.4468115 Z M14.5279626,14.4321458 C13.4322617,15.5828977 13.5444112,17.3519473 13.6980561,18.901058 C13.7317009,19.3796496 13.6307664,19.831871 13.6644112,20.2773595 C13.9834766,19.619787 14.5481495,19.0340313 15.1330093,18.5223366 C16.5488972,17.5247565 18.0303925,16.1282565 18.0500187,14.352474 C17.5924486,15.6289053 16.2096449,16.1675313 15.2731963,17.0321382 C14.7943178,17.504558 14.4085234,18.0499168 14.189271,18.6283786 L14.1556262,18.6020084 C14.2700187,18.0897527 14.5016075,17.6307985 14.6345047,17.1325695 C15.0533832,15.7826382 14.967028,14.1600275 16.2831028,13.2550237 C15.6057196,13.4278328 15.0006729,13.8402183 14.5279626,14.4321458 Z M11.8638505,19.7324496 C11.7365607,21.6675756 12.9791776,23.0309725 13.1188037,24.8527626 C13.4053458,22.9507397 14.980486,21.5873427 15.8311402,19.9254573 C16.1294579,19.2600298 16.356,18.5356901 16.4423551,17.8175221 C16.3229159,18.1227435 16.1165607,18.3892511 15.8844112,18.6484649 C14.7887103,19.646045 13.5371215,20.6699954 13.2993645,22.1130641 C13.2589907,22.3189763 13.2455327,22.5321824 13.184972,22.7313618 C13.1389907,22.7515603 13.1389907,22.6982588 13.1188037,22.6853542 L13.2528224,20.8961061 C13.2993645,19.147255 12.4616075,17.212129 13.4720748,15.6759229 C13.4389907,15.6691901 13.4193645,15.6955603 13.3924486,15.709587 C12.4756262,16.8794153 11.8234766,18.1625794 11.8638505,19.7324496 Z M11.0988785,21.9668496 C10.8594393,23.2371092 11.0927103,24.5870405 11.4442991,25.7506969 C11.8693458,27.2139641 13.3054206,28.258113 14.0304673,29.5945786 L14.1291589,29.6742504 C14.0231776,28.9487885 13.9699065,28.1644145 14.1762617,27.4731779 C14.4880374,26.3622618 14.8474766,25.2788382 15.0863551,24.1348191 C15.2136449,23.2371092 15.4323364,22.239529 15.3263551,21.3743611 C15.2063551,21.8406092 15.066729,22.2922695 14.826729,22.6979221 C13.8381308,24.1942924 12.8534579,25.9700748 13.5375701,27.8855634 C13.5185047,27.9057618 13.4983178,27.9321321 13.4719626,27.9186664 C13.1994393,27.2869031 13.1523364,26.5620023 12.96,25.8904031 C12.5024299,24.0882504 11.1061682,22.5913191 11.511028,20.5170481 C11.2985047,20.9692695 11.2121495,21.4747924 11.0988785,21.9668496 Z M11.0325981,26.0236569 C10.9518505,27.0010385 10.9933458,28.058092 11.3645607,28.9097943 C12.2421308,31.3829851 14.9410093,32.6661492 16.9215701,34.0166416 C16.7348411,33.5442218 16.4488598,33.105466 16.3097944,32.6134088 C15.7714766,30.3590347 16.0641869,27.7652141 15.0997009,25.6847714 C15.2791402,26.8675042 14.8081121,27.9116531 14.7015701,29.0360347 C14.608486,29.9601149 14.7481121,30.8718515 15.1333458,31.635466 C15.2135327,31.8750424 15.4322243,32.0742218 15.4854953,32.3076263 C15.139514,31.9951111 14.9146542,31.5832866 14.655028,31.210737 C13.5587664,29.3878248 11.1924112,28.2247294 11.0325981,26.0236569 Z M12.2148785,31.077371 C12.5143178,32.9131878 13.9436636,34.581245 15.5451589,35.5659206 C17.0081495,36.589871 18.9550654,36.4372603 20.616,36.9826191 C19.0812336,35.7465847 18.8288972,33.8967412 18.1632897,32.2606649 C17.7180561,31.2563519 17.0474019,30.3395656 16.3100187,29.4547603 C17.1208598,31.077371 16.7406729,33.1926 17.8245981,34.7013137 C18.1234766,35.2001038 18.6158131,35.6388595 19.0414206,36.0248748 L19.0212336,36.0450733 C18.6354393,35.8649702 18.2771215,35.6063176 17.9384299,35.3067069 C16.0829159,33.7839664 13.3195514,33.5769321 12.2148785,31.077371 Z M15.0531028,35.7393469 C15.7243178,37.0561752 17.1003925,38.1126676 18.4360935,38.5323469 C20.4895514,39.2308775 22.6433832,38.4521141 24.5774019,37.9735225 C24.8560935,37.9005836 25.1953458,37.9263927 25.4544112,37.8338164 C24.3777757,37.6144385 23.354972,37.2688202 22.503757,36.5231599 C21.3211402,35.413366 20.2445047,34.2631752 18.961514,33.412034 C19.9652523,34.7619653 20.237215,36.7632973 22.086,37.4146981 C22.3916075,37.5746027 22.7824486,37.5544042 23.0622617,37.7339462 C22.7101121,37.7866866 22.4033832,37.6542744 22.0719813,37.6077057 C19.7129159,37.0819844 16.8205794,37.7535836 15.0531028,35.7393469 Z M39.0845047,40.4336405 C39.9828224,40.1149534 40.8458131,39.5493962 41.4777757,38.7577282 C40.2474953,39.6363618 38.3869346,39.7822397 36.9508598,39.2503466 L35.399271,38.6314878 C33.8942243,37.8336481 31.9175888,37.5211328 30.1736636,37.9733542 C29.8288037,38.2864305 29.4693645,37.9200527 29.1043178,37.9133198 C26.757028,37.4021863 24.7377757,38.4721443 22.7897383,39.3165527 C21.3413271,39.8888427 19.4398318,39.7957053 18.1635701,38.9181939 C18.794972,39.7087397 19.6388972,40.1946252 20.5102991,40.5273389 C22.1325421,41.1720069 24.0603925,40.7332511 25.4022617,39.7957053 C26.5523551,39.1499153 27.5426355,37.8802168 29.0583364,38.3593695 C27.5157196,39.0775374 26.1065607,40.0818504 24.8302991,41.3711863 L25.628243,42.0298809 C26.5579626,40.7865527 27.7944112,39.768774 29.043757,38.9776672 C29.3168411,38.8317893 29.6017009,38.6516863 29.9017009,38.6118504 C31.4387103,39.3631214 32.8153458,40.6468466 34.0540374,41.9827511 C34.321514,41.7706672 34.6007664,41.5383847 34.8200187,41.2915145 C33.5286168,40.0476252 32.1233832,39.0775374 30.6048785,38.372274 C30.8583364,38.2998962 31.1443178,38.2864305 31.4387103,38.2926023 C32.2568411,38.2393008 32.8153458,38.8177626 33.4484299,39.2172435 C35.0073084,40.4005374 37.0910467,41.1793008 39.0845047,40.4336405 Z" id="Combined-Shape" fill="#8E9BA6"></path>
            <path d="M41.2245421,38.3723302 C38.9849159,39.2167385 36.7307103,38.1793225 34.5808037,37.8337042 L34.1680935,37.7804027 L34.1680935,37.7674981 C35.1931402,37.5346546 36.1918318,37.2283111 37.0110841,36.4905057 C38.2150093,35.3335821 39.2837944,34.1429943 40.6200561,33.2318187 C39.6297757,34.5026393 39.5237944,36.3109637 37.8886542,37.1290019 C37.4832336,37.3943874 36.9707103,37.4409561 36.551271,37.6412576 C37.1501495,37.6541622 37.6946355,37.4409561 38.2873458,37.3814828 C40.4809907,37.0358645 42.9931402,37.3887767 44.5279065,35.5192958 C43.9570654,36.8226584 42.5265981,37.913376 41.2245421,38.3723302" id="Fill-25" fill="#FEFEFE"></path>
            <path d="M45.2921495,32.0679939 C44.4084112,32.6464557 43.511215,33.1850817 42.6605607,33.8432153 L42.6605607,33.7635435 C43.9637383,31.595574 43.3250467,28.6235931 44.1291589,26.2429786 L44.4280374,25.4445779 C44.2626168,26.9280435 44.9074766,28.1848374 44.8603738,29.6744748 C44.813271,30.5721847 44.5211215,31.3694634 44.048972,32.0881924 L44.1291589,32.0881924 C44.7661682,31.2505168 45.2657944,30.3589786 46.0104673,29.5611389 C47.1672897,28.4440511 48.3431776,27.3000321 48.4968224,25.7503603 C48.8876636,28.3380092 47.4386916,30.6052878 45.2921495,32.0679939" id="Fill-26" fill="#FEFEFE"></path>
            <path d="M42.4216262,23.9946641 C42.2943364,27.1069122 41.1380748,29.7938702 39.104243,32.1150115 L39.0515327,32.2148817 C38.633215,31.7559275 38.0747103,31.1567061 37.5689159,30.7583473 C37.8756449,30.5524351 38.1077944,30.1927901 38.3528411,29.9004733 C39.6156449,28.1645267 40.3535888,26.2097634 40.4601308,23.9946641 L40.3945234,23.8151221 L40.5072336,23.895355 L42.402,23.8824504 L42.5006916,23.8358817 L42.4216262,23.9946641 Z M30.2079813,36.1844427 L30.0812523,36.2641145 C30.1277944,35.5857824 30.1277944,34.8541489 30.0812523,34.1763779 C30.413215,34.2891527 30.7653645,34.1629122 31.1180748,34.1629122 L32.137514,33.9833702 C32.6438692,34.0832405 33.0027477,34.9007176 33.5623738,34.4024885 C33.755271,34.169645 34.0945234,34.1887214 34.2150841,33.8700344 C34.5403178,33.7510878 34.6205047,33.418374 34.8548972,33.205729 C35.0735888,32.5801374 35.7801308,32.4875611 36.210785,32.054416 C36.5248037,31.7755649 36.9380748,31.5432824 37.124243,31.1769046 L37.1567664,31.3362481 L38.559757,32.6732748 C36.1844299,34.8283397 33.4154579,36.0452977 30.2079813,36.1844427 Z M30.1866729,31.9292977 C30.4266729,32.0280458 30.8393832,31.8288664 30.9722804,32.1015458 C30.8977009,32.2547176 30.7793832,32.4005954 30.826486,32.5801374 C30.9251776,32.8264466 31.0720935,33.1524275 31.3849907,33.1720649 C31.4651776,33.2781069 31.5711589,33.3050382 31.6777009,33.3454351 C31.1444299,33.4312786 30.5724673,33.4049084 30.0812523,33.5709847 C30.1479813,33.0323588 30.0812523,32.4740954 30.0812523,31.9292977 L29.9814393,31.7822977 C30.0739626,31.7952023 30.1210654,31.874874 30.1866729,31.9292977 Z M29.6948972,28.5572748 C29.5485421,28.5769122 29.4302243,28.5640076 29.3102243,28.5107061 C29.2491028,28.5034122 29.2692897,28.4372061 29.2491028,28.3973702 C29.4425607,28.403542 29.5362056,28.1712595 29.7414393,28.2049237 C29.8614393,28.0977595 29.8816262,27.9187786 30.0470467,27.8587443 C29.9937757,27.6864962 30.2079813,27.7987099 30.2528411,27.6994008 C30.3134019,27.6455382 30.3924673,27.5860649 30.4793832,27.6326336 C30.6122804,27.8256412 30.8859252,27.7454084 31.0193832,27.9653473 C31.0849907,27.9917176 31.1057383,27.9187786 31.0995701,27.8722099 L31.0995701,27.7925382 C31.3120935,27.7717786 31.4180748,28.0781221 31.6457383,27.8722099 C31.6984486,27.8256412 31.6844299,27.7252099 31.6457383,27.6797634 C31.6182617,27.6662977 31.5857383,27.652271 31.5790093,27.6191679 C31.7315327,27.546229 31.8246168,27.8520115 32.010785,27.7454084 C32.1638692,27.6191679 32.2698505,27.4598244 32.4773271,27.4598244 L32.5233084,27.5192977 C32.5569533,27.9187786 32.2177009,28.158355 31.9177009,28.3378969 C31.7248037,28.4175687 31.3720935,28.3900763 31.3849907,28.7031527 C31.1662991,28.9028931 30.9593832,28.583645 30.6857383,28.6700496 C30.5584486,28.6038435 30.6795701,28.4175687 30.5057383,28.3839046 C30.226486,28.5034122 29.8939626,28.2380267 29.6948972,28.5572748 Z M28.0866729,36.0913053 C25.4147103,35.7260496 23.075271,34.5680038 21.0016262,32.773145 L22.3715327,31.3968435 L22.3917196,31.3160496 C24.2853645,33.1456947 26.5788224,34.063042 29.1711589,34.242584 L29.3763925,34.1887214 L29.3102243,34.2891527 L29.3102243,36.0913053 L29.4089159,36.2512099 C28.9967664,36.1244084 28.5122804,36.1642443 28.0866729,36.0913053 Z M18.7216262,29.7871374 C17.7655514,28.011355 17.2003178,26.076229 17.0943364,23.9480954 L18.9408785,23.9615611 L19.122,23.895355 C19.0945234,23.9946641 19.1074206,24.1214656 19.1018131,24.2679046 L19.0883551,24.2477061 C19.0350841,24.2881031 19.1276075,24.3077405 19.122,24.3470153 C19.1545234,25.0517176 19.2801308,25.717145 19.4399439,26.3696679 L19.533028,26.5149847 C19.3934019,26.3898664 19.3406916,26.2361336 19.2347103,26.1025992 C19.0810654,26.1295305 18.9156449,26.1626336 18.8018131,26.2630649 C18.875271,26.4549504 18.6823738,26.3954771 18.5965794,26.4487786 C18.5696636,26.402771 18.5163925,26.3489084 18.4631215,26.3225382 C18.3234953,26.3298321 18.1771402,26.3432977 18.1177009,26.4824427 C18.1373271,26.5817519 18.0240561,26.6283206 17.984243,26.7085534 C17.9444299,27.0076031 17.8451776,27.399229 18.0638692,27.6455382 C18.0705981,27.8654771 18.1771402,28.0646565 18.3363925,28.2043626 C18.4031215,28.2178282 18.4362056,28.1645267 18.4827477,28.1443282 C18.6616262,28.2773015 18.755271,28.6038435 19.0210654,28.5438092 C19.1018131,28.5034122 19.0748972,28.4243015 19.1018131,28.3648282 C19.2414393,28.5034122 19.3070467,28.7895573 19.5661121,28.763187 C19.6322804,28.8299542 19.6653645,28.9489008 19.7724673,28.9561947 C20.0511589,28.8826947 19.950785,29.2748817 20.1577009,29.3876565 C20.317514,29.4880878 20.4044299,29.7276641 20.6360187,29.6143282 L20.7162056,29.514458 C20.7891028,29.5683206 20.7291028,29.7007328 20.795271,29.7736718 C20.9091028,29.9868779 21.1350841,30.1400496 21.3543364,30.1995229 C21.5466729,30.4189008 21.7462991,30.6781145 21.9728411,30.8380191 L21.813028,30.9047863 L20.4896636,32.274355 C19.8851776,31.4563168 19.1948972,30.6640878 18.7216262,29.7871374 Z M17.1868598,22.0135305 C17.5261121,19.2670992 18.6947103,16.8595534 20.5894766,14.7510573 L20.6360187,14.9305992 C21.0891028,15.3766489 21.5399439,15.8490687 21.9728411,16.2547214 C21.5993832,16.5072023 21.3806916,16.9324924 21.0823738,17.2719389 C19.8919065,18.9601947 19.2145234,20.849874 19.0883551,22.9712748 L19.1348972,23.2304885 C18.4704112,23.177187 17.7453645,23.177187 17.0808785,23.2304885 C17.1610654,22.8248359 17.1145234,22.4124504 17.1868598,22.0135305 Z M22.1326542,13.3949542 C24.2388224,11.8789466 26.6113458,10.9672099 29.2838692,10.8611679 L29.2300374,11.0468817 L29.2491028,12.6431221 L29.3102243,12.8030267 C26.7173271,12.9225344 24.4580748,13.8937443 22.5173271,15.6622328 L22.484243,15.7548092 C22.0395701,15.2767786 21.5399439,14.724687 21.0156449,14.3397939 L20.9562056,14.3397939 C21.3677944,14.0996565 21.7266729,13.6738053 22.1326542,13.3949542 Z M29.3298505,18.1034427 C28.9838692,18.0226489 28.6580748,18.1831145 28.3255514,18.2162176 C27.5825607,18.4030534 26.930972,18.8143168 26.3001308,19.2670992 C26.266486,19.3198397 26.2322804,19.3669695 26.1991963,19.4135382 C25.7399439,19.0073244 25.2896636,18.4423282 24.7827477,18.0899771 C26.0662991,17.0318015 27.5292897,16.3276603 29.2177009,16.2075916 L29.3298505,16.1413855 C29.2580748,16.7866145 29.2580748,17.4778511 29.3298505,18.1034427 Z M28.8044299,20.2579466 C28.7646168,20.1648092 28.8778879,20.0643779 28.7713458,20.0049046 C28.4657383,20.1446107 28.5790093,20.4840573 28.3726542,20.7034351 C28.3390093,20.8762443 28.1135888,20.7892786 28.0070467,20.8829771 C27.9268598,20.7567366 27.7676075,20.7629084 27.6548972,20.8364084 C27.4956449,20.8364084 27.468729,20.5109885 27.3027477,20.6765038 C27.2562056,20.7303664 27.282,20.849874 27.1569533,20.8027443 C27.1294766,20.7567366 27.0834953,20.7500038 27.0504112,20.7236336 C27.0431215,20.6232023 27.2169533,20.637229 27.1569533,20.5171603 C27.0369533,20.3039542 26.7773271,20.3376183 26.6180748,20.1782748 L26.4722804,20.1782748 C27.2562056,19.346771 28.239757,18.9809542 29.3102243,18.8412481 C29.2962056,19.3198397 29.2580748,19.8584656 29.4089159,20.2910496 C29.2440561,20.0851374 29.0102243,20.3443511 28.8044299,20.2579466 Z M26.9494766,25.6711374 C27.0694766,25.5510687 27.1833084,25.4046298 27.2231215,25.2385534 L27.4485421,25.3513282 C27.2427477,25.3647939 27.1294766,25.5718282 26.970785,25.6846031 L26.9494766,25.6711374 Z M29.0904112,27.6662977 C28.9967664,27.8183473 29.070785,28.0455802 29.0236822,28.2251221 C28.1399439,28.0713893 27.3425607,27.7050115 26.630972,27.1203779 C27.0302243,26.688355 27.5747103,26.2630649 27.8612523,25.7968168 C27.9016262,26.0100229 28.1534019,26.1098931 28.3255514,26.2097634 C28.6816262,26.3685458 29.1094766,26.6131718 29.5126542,26.443729 C29.4795701,26.468416 29.4543364,26.5065687 29.4229346,26.5278893 C29.5362056,26.6417863 29.3365794,26.7612939 29.4694766,26.8678969 C29.4963925,26.9543015 29.3831215,26.9413969 29.3763925,27.0076031 C29.4425607,27.1271107 29.3562056,27.3403168 29.5485421,27.3795916 C29.5962056,27.4463588 29.5485421,27.546229 29.4694766,27.5524008 C29.3365794,27.5260305 29.1571402,27.5192977 29.0904112,27.6662977 Z M24.9902243,20.4964008 C24.8034953,20.6035649 24.6577009,20.7892786 24.5444299,20.9626489 C24.3846168,21.0625191 24.1788224,21.0557863 24.0459252,21.2353282 C24.0459252,21.3077061 24.1322804,21.4014046 24.0335888,21.4547061 C23.8793832,21.600584 23.5614393,21.4148702 23.4885421,21.6937214 C23.4599439,21.9400305 23.1694766,22.0791756 23.1885421,22.352416 C23.0292897,22.4595802 23.0562056,22.6649313 23.075271,22.8315687 C23.1616262,22.9370496 23.0360187,23.1306183 23.1885421,23.2102901 C22.9300374,23.177187 22.5896636,23.1367901 22.357514,23.2439542 C22.484243,22.9443435 22.4444299,22.5717939 22.5173271,22.2525458 C22.7634953,20.8762443 23.388729,19.6660191 24.3049907,18.5685687 C24.764243,19.0207901 25.2548972,19.5459504 25.7741495,19.9381374 C25.3956449,19.9516031 25.3889159,20.5109885 24.9902243,20.4964008 Z M24.0666729,28.3648282 L23.9993832,27.9518817 C23.6214393,27.6129962 23.7391963,27.0272405 23.6808785,26.5957786 C23.4145234,26.3825725 23.6276075,26.0363931 23.4414393,25.7968168 C23.4476075,25.4113626 22.8425607,25.2789504 23.0292897,24.8525382 C22.9558318,24.7464962 22.8633084,24.6073511 22.9491028,24.4738168 C23.0691028,24.3335496 23.3276075,24.4872824 23.4077944,24.2813702 L23.4599439,23.928458 C23.6006916,23.8487863 23.799757,24.0283282 23.8726542,23.8358817 C24.0066729,23.5031679 23.3808785,23.0975153 23.919757,22.924145 C24.099757,22.9045076 24.3453645,22.8646718 24.4177009,23.0834885 C24.4580748,23.3365305 24.524243,23.6092099 24.4311589,23.8689847 C24.6038692,23.9357519 24.4446168,24.0883626 24.4446168,24.2016985 C24.3380748,24.2477061 24.2388224,24.3537481 24.1120935,24.3139122 C24.0599439,24.2275076 23.9657383,24.0748969 23.8395701,24.0883626 C23.7391963,24.2275076 23.8793832,24.3739466 23.8591963,24.5332901 C23.8261121,24.6269885 23.8524673,24.7330305 23.7935888,24.8059695 C23.7470467,24.7728664 23.7010654,24.7537901 23.6337757,24.7599618 C23.5205047,24.8194351 23.5945234,24.9395038 23.6214393,25.0124427 C23.7391963,25.0859427 23.8261121,25.1987176 23.9657383,25.2054504 L24.0335888,25.1257786 C24.0184486,24.9125725 24.1188224,24.7464962 24.1255514,24.5332901 L24.3184486,24.6331603 C24.4973271,25.4573702 24.8702243,26.2097634 25.3423738,26.9150267 L25.5958318,27.1669466 C24.9902243,27.6921069 24.3986355,28.3176985 23.8866729,28.909626 L23.8866729,28.9225305 C23.8793832,28.8967214 23.8591963,28.7895573 23.7795701,28.8299542 C23.7274206,28.5769122 24.1457383,28.6498511 24.0666729,28.3648282 Z M28.3059252,30.7117786 L28.6249907,30.8576565 C27.468729,30.5726336 26.2261121,30.1731527 25.2285421,29.3410878 C25.0569533,29.2417786 24.9431215,29.0156679 24.7373271,29.0027634 C25.2021869,28.624042 25.6681682,28.1246908 26.0590093,27.6455382 C26.2322804,27.9653473 26.6040561,28.1375954 26.8905981,28.3508015 C27.393028,28.5842061 27.9162056,29.0089351 28.5055514,28.8894275 C28.3227477,28.9561947 28.1539626,29.0583092 28.0070467,29.2154084 C27.9268598,29.3949504 27.9537757,29.6603359 27.7143364,29.7405687 C27.7277944,30.1198511 28.066486,30.4390992 28.3059252,30.7117786 Z M26.3326542,25.5246985 C26.3388224,25.5914656 26.4184486,25.6509389 26.4919065,25.6043702 C26.5648037,25.5050611 26.3326542,25.3316908 26.5048037,25.2722176 C26.6113458,25.3917252 26.557514,25.5914656 26.6180748,25.7306107 C26.6719065,25.8035496 26.6904112,25.8899542 26.6780748,25.9903855 C26.4980748,26.2097634 26.2462991,26.402771 26.1190093,26.6417863 C25.9995701,26.3432977 25.7337757,26.1025992 25.6143364,25.7968168 C25.4214393,25.4511985 25.3227477,25.0584504 25.1354579,24.7133931 C25.295271,24.9125725 25.7214393,24.6864618 25.7214393,25.0657443 C25.7472336,25.0859427 25.7870467,25.0786489 25.8206916,25.0786489 C25.8734019,25.0191756 25.8801308,25.0124427 25.9468598,25.0461069 C25.9805047,25.1117519 26.1391963,25.145416 26.013028,25.2250878 C26.0590093,25.3647939 26.1790093,25.4977672 26.3326542,25.5246985 Z M29.3102243,15.4894237 C28.964243,15.4164847 28.6126542,15.5359924 28.2605047,15.5690954 C26.7773271,15.8754389 25.4023738,16.5072023 24.2719065,17.591187 L24.2248037,17.4643855 C23.7795701,17.052 23.375271,16.5335725 22.8829346,16.2216183 C23.3085421,15.9685763 23.6870467,15.5960267 24.099757,15.3098817 C25.6412523,14.2730267 27.3689159,13.687271 29.2962056,13.5744962 C29.2300374,14.1995267 29.2838692,14.8576603 29.3102243,15.4894237 Z M21.766486,23.2439542 L21.5926542,23.177187 L19.7724673,23.2102901 C19.9384486,21.175855 20.497514,19.3069351 21.6734019,17.6910573 L22.3917196,16.7798817 L22.4034953,16.6530802 C22.8302243,17.1524313 23.3018131,17.6175573 23.8059252,18.056874 C22.4971402,19.4668397 21.833215,21.1556565 21.6862991,23.0509466 C21.713215,23.1171527 21.6935888,23.1973855 21.766486,23.2439542 Z M20.4105981,26.3225382 C20.2300374,26.3432977 20.2777009,26.541916 20.2036822,26.6412252 C20.2182617,26.1760992 20.0124673,25.7244389 19.950785,25.2520191 L19.8055514,24.0283282 L19.7253645,23.9149924 C20.3102243,24.0013969 20.9562056,23.9480954 21.5741495,23.9615611 L21.7199439,23.895355 C21.6661121,24.1882328 21.6526542,24.6135229 21.8662991,24.8727366 C21.7922804,24.7930649 21.6862991,24.5602214 21.513028,24.5669542 C21.1748972,24.5871527 21.1485421,25.0326412 20.8092897,25.0461069 C20.5294766,25.2789504 20.4896636,25.6043702 20.430785,25.9236183 C20.5502243,26.0504198 20.3365794,26.1760992 20.4105981,26.3225382 Z M22.424243,24.0283282 L22.3244299,23.8689847 C22.5240561,24.0148626 22.7304112,23.9682939 22.9625607,23.928458 C22.6367664,24.0350611 22.7567664,24.434542 22.6305981,24.6802901 C22.6104112,24.7997977 22.7898505,24.8329008 22.7702243,24.9529695 C22.6104112,25.0326412 22.5896636,25.2054504 22.5173271,25.3316908 C22.6104112,24.8862023 22.4371402,24.467645 22.424243,24.0283282 Z M29.3892897,33.6169924 L29.2031215,33.4901908 C26.730785,33.3583397 24.6178879,32.3472939 22.7702243,30.731416 C23.0691028,30.698313 23.1812523,31.0972328 23.5076075,30.9968015 C23.866486,30.9569656 24.1457383,30.6713817 24.524243,30.731416 C24.710972,30.7381489 24.9431215,30.731416 25.0569533,30.5524351 C25.1158318,30.3532557 24.9038692,30.2522634 24.8634953,30.0929198 C26.1190093,31.0304656 27.5354579,31.6223931 29.1504112,31.7020649 L29.3102243,31.6358588 L29.3102243,33.3914427 L29.3892897,33.6169924 Z M29.6948972,21.282458 L29.8070467,21.3413702 C29.6679813,21.3481031 29.5098505,21.2616985 29.3892897,21.3615687 C29.3102243,21.4216031 29.3629346,21.527645 29.3892897,21.600584 C29.6281682,21.6937214 29.682,22.0864695 30.0010654,21.9338588 C30.1339626,21.960229 30.2993832,21.9865992 30.346486,22.139771 C30.5388224,22.2127099 30.5651776,22.5521565 30.826486,22.4786565 C30.8119065,22.6048969 30.7726542,22.8248359 30.9251776,22.924145 C30.8859252,23.0374809 30.7395701,23.0840496 30.7462991,23.2304885 C30.7126542,23.2703244 30.6795701,23.3365305 30.7199439,23.3903931 C30.9655514,23.4162023 30.9526542,23.6956145 31.0653645,23.8487863 C31.0115327,24.0412328 31.0793832,24.2409733 31.2448037,24.3470153 C31.2195701,24.573687 31.1180748,24.7661336 31.0193832,24.965874 C30.759757,25.0921145 30.3324673,24.7728664 30.2405047,25.2385534 C30.0941495,25.398458 30.2203178,25.7502481 29.9343364,25.7637137 C29.3892897,25.8035496 28.8840561,25.6846031 28.4657383,25.3647939 C28.7377009,25.2250878 29.2031215,25.4180954 29.2962056,25.0124427 C29.3696636,24.9529695 29.3960187,24.8463664 29.3629346,24.7599618 C29.4896636,24.6331603 29.5362056,24.467645 29.6018131,24.3139122 C29.5025607,24.2151641 29.5485421,24.1613015 29.5698505,24.0412328 C29.2962056,23.7623817 28.9255514,23.9082595 28.5790093,23.9149924 C28.3726542,24.0350611 28.5717196,24.2611718 28.4320935,24.4070496 C28.1668598,24.4407137 28.1601308,24.6999275 27.9739626,24.8525382 C27.8674206,24.8059695 27.7877944,24.6600916 27.7945234,24.5534885 L27.8281682,24.5534885 C27.8147103,24.6073511 27.8477944,24.6533588 27.8943364,24.6668244 C28.1466729,24.7072214 28.066486,24.4210763 28.1466729,24.2942748 C28.1870467,24.1349313 28.5593832,23.9149924 28.2605047,23.8022176 C28.2453645,23.7360115 28.2991963,23.6490458 28.2134019,23.6092099 C28.1203178,23.6490458 27.9666729,23.6490458 27.9537757,23.7887519 C28.0008785,23.9082595 27.9537757,24.0283282 27.8477944,24.108 L27.7945234,24.108 C27.8147103,24.0283282 27.7541495,23.9744656 27.7014393,23.9480954 C27.5483551,23.9553893 27.4227477,24.0681641 27.2685421,24.0283282 C27.0565794,24.0748969 26.8165794,24.1147328 26.5984486,24.1214656 C26.5715327,23.9946641 26.7705981,24.0350611 26.810972,23.9149924 C26.7773271,23.715813 26.910785,23.5963053 26.9977009,23.4498664 C27.0504112,23.3965649 27.1496636,23.4162023 27.210785,23.4364008 C27.2623738,23.4897023 27.3167664,23.5357099 27.3958318,23.5160725 L27.462,23.4027366 C27.6621869,23.5228053 27.5483551,24.0945344 27.939757,23.8487863 C28.0008785,23.6030382 27.9476075,23.3101603 28.0541495,23.0834885 C27.9666729,22.8714046 28.193215,22.7844389 28.2605047,22.6385611 C28.4657383,22.6581985 28.4461121,22.4264771 28.5324673,22.319313 C28.844243,22.2261756 29.1773271,22.1526756 29.3763925,21.8205229 C29.2962056,21.6538855 29.3494766,21.4148702 29.2177009,21.282458 C29.3562056,21.2353282 29.5889159,21.1623893 29.6948972,21.282458 Z M30.8119065,13.6210649 C31.9777009,13.7602099 33.0094766,14.079458 34.0412523,14.5457061 C34.1943364,14.7779885 34.4943364,14.8907634 34.5341495,15.1842023 C34.3816262,15.5892939 35.0735888,15.5825611 34.7618131,15.9949466 C34.7410654,16.1279198 34.8548972,16.2014198 34.899757,16.3012901 C34.9401308,16.4140649 34.8812523,16.5874351 35.0147103,16.6530802 C35.2535888,16.7069427 35.3539626,16.3871336 35.5928411,16.4735382 C35.9051776,16.6996489 35.9719065,17.0721985 35.9719065,17.4183779 C36.0122804,17.6377557 36.1984486,17.7836336 36.3913458,17.8638664 C36.7844299,17.7437977 36.5982617,18.1831145 36.8713458,18.2958893 C37.177514,18.3357252 37.3300374,18.7284733 37.6681682,18.6953702 C37.968729,18.9214809 38.1341495,19.2536336 38.3999439,19.5061145 C38.393215,19.5661489 38.4274206,19.6194504 38.4801308,19.6390878 C38.6399439,19.6794847 38.739757,19.5661489 38.8777009,19.559416 C39.3902243,20.6102977 39.642,21.7739542 39.7429346,23.0043779 L39.8029346,23.1306183 C39.1580748,23.1238855 38.5137757,23.1367901 37.8554579,23.177187 C37.8358318,22.7984656 37.8621869,22.3989847 37.6496636,22.0926412 C37.7562056,21.8934618 37.7747103,21.633687 37.7623738,21.4081374 C37.722,21.3077061 37.6345234,21.3952328 37.5896636,21.4081374 C37.3771402,21.6140496 37.3496636,21.9001947 37.2369533,22.139771 C37.057514,22.3989847 37.0311589,22.7911718 37.1371402,23.0840496 L37.2173271,23.1642824 L36.4726542,23.1502557 C36.650972,23.0374809 36.3190093,22.817542 36.4984486,22.638 L36.8382617,22.5717939 C36.9431215,22.3254847 37.2105981,22.1465038 37.2038692,21.854187 C37.3496636,21.674084 37.4831215,21.4418015 37.3771402,21.2016641 C37.2173271,20.8364084 37.6496636,20.4638588 37.3165794,20.1182405 C37.3496636,20.0183702 37.2773271,19.8719313 37.1567664,19.8786641 C37.050785,19.8455611 36.9302243,19.8786641 36.9302243,19.7322252 C36.9913458,19.6390878 37.1438692,19.5459504 37.1096636,19.4000725 C37.0311589,19.3002023 36.9038692,19.3866069 36.8040561,19.379874 C36.7782617,19.2199695 37.0771402,19.0477214 36.817514,18.9007214 C36.6386355,18.8681794 36.5382617,19.093729 36.3582617,19.0140573 C36.2786355,18.9478511 36.2191963,18.8350763 36.2915327,18.7419389 L35.8928411,18.2498817 C35.8524673,18.203313 35.739757,18.2756908 35.7319065,18.1831145 C35.7593832,17.7903664 35.2799439,17.5709885 35.2535888,17.1793626 C35.1066729,17.0458282 35.2261121,16.7995191 35.033215,16.6867443 C34.9261121,16.6070725 34.8066729,16.5139351 34.6608785,16.5734084 C34.4943364,16.3338321 34.3008785,16.1015496 34.0737757,15.8883435 C34.0092897,15.8692672 33.9621869,15.908542 33.9285421,15.9483779 C33.9621869,16.1346527 34.1814393,16.2406947 34.1679813,16.447729 C34.1354579,16.4404351 34.1079813,16.447729 34.0872336,16.4735382 C34.115271,16.6665458 34.2689159,16.8197176 34.3939626,16.9526908 C33.348729,16.1486794 32.1178879,15.729 30.8119065,15.516916 C30.5584486,15.5096221 30.2993832,15.4030191 30.0470467,15.4894237 C30.1076075,14.9115229 30.0672336,14.2528282 30.0812523,13.6339695 L30.0145234,13.507729 C30.2606916,13.6407023 30.526486,13.581229 30.8119065,13.6210649 Z M31.3261121,10.9543053 C33.9885421,11.3206832 36.3795701,12.3771756 38.3870467,14.2926641 L38.1610654,14.3858015 C37.7954579,14.7779885 37.3704112,15.0972366 37.1567664,15.549458 C37.1304112,15.4226565 36.9431215,15.336813 36.884243,15.2167443 C36.8438692,14.8509275 36.4922804,14.5053092 36.1788224,14.3190344 C35.9191963,14.2730267 35.8603178,13.8802786 35.5395701,14.0003473 C35.273215,13.7742366 34.9401308,13.940313 34.6816262,14.0665534 L34.6816262,14.1002176 C33.4154579,13.3814885 32.0040561,12.936 30.4793832,12.8232252 C30.406486,12.8232252 30.3661121,12.8821374 30.2881682,12.8697939 C30.3661121,12.8164924 30.3262991,12.6565878 30.3195701,12.5634504 C30.2791963,12.4972443 30.2001308,12.4175725 30.1076075,12.470313 C30.0739626,12.5168817 30.0470467,12.5707443 30.0470467,12.6302176 C30.0868598,12.0382901 30.1076075,11.3206832 30.0274206,10.7944008 C30.4328411,10.9212023 30.8977009,10.8813664 31.3261121,10.9543053 Z M32.5704112,28.0977595 C33.1563925,28.1510611 33.7092897,28.2773015 34.2347103,28.477042 C34.3676075,28.477042 34.5139626,28.4635763 34.6008785,28.3648282 C34.5677944,28.1443282 34.8341495,28.0455802 34.8066729,27.8250802 C34.9205047,27.6399275 34.8403178,27.3795916 34.9995701,27.2208092 C35.0203178,26.9868435 34.9872336,26.7276298 34.8403178,26.5492099 C34.6939626,26.4549504 34.5599439,26.5755802 34.4208785,26.5957786 C34.2621869,26.7147252 34.3216262,27.0676374 34.0412523,26.9946985 C33.9745234,27.0872748 33.8483551,27.0872748 33.755271,27.0603435 C33.7356449,27.0272405 33.6874206,27.0210687 33.7025607,26.9812328 C33.9021869,26.8808015 34.2548972,26.9475687 34.2806916,26.6283206 C34.4276075,26.5015191 34.6541495,26.5553817 34.793215,26.402771 C34.893028,26.2428664 34.9401308,26.1025992 35.0803178,25.9567214 C35.0937757,25.8899542 35.1201308,25.8237481 35.1134019,25.7502481 C35.1526542,25.8439466 35.1526542,25.970187 35.273215,26.0234885 C35.4262991,26.0694962 35.4941495,25.9432557 35.5603178,25.8439466 C35.5535888,25.790645 35.5928411,25.7109733 35.6534019,25.7637137 C35.8199439,25.8972481 36.053215,25.7833511 36.2455514,25.7968168 C36.410972,25.7440763 36.5920935,25.7109733 36.7715327,25.7036794 C36.6117196,26.435874 36.2371402,27.1198168 35.7986355,27.758874 C35.6343364,27.9653473 35.4857383,28.1847252 35.3006916,28.3839046 C35.2401308,28.2312939 35.2468598,28.0253817 35.1134019,27.8856756 L35.033215,27.905874 C34.9261121,28.117958 34.7135888,28.2975 34.7410654,28.5438092 C34.5812523,28.795729 34.1814393,28.583645 33.9414393,28.7166183 C33.6554579,28.8030229 33.5023738,28.5236107 33.275271,28.4635763 C33.0223738,28.3569733 32.7302243,28.3508015 32.4902243,28.2251221 C32.4823738,28.1645267 32.5165794,28.117958 32.5704112,28.0977595 Z M34.3939626,18.2498817 C34.0412523,18.6482405 33.588729,19.0073244 33.2898505,19.4264427 L33.2427477,19.2872977 C32.370785,18.5753015 31.3586355,18.2229504 30.2528411,18.0697786 L30.0812523,18.1034427 L30.0941495,16.3012901 L30.0274206,16.1542901 C30.759757,16.267626 31.4988224,16.3674962 32.1705981,16.6070725 C33.0369533,16.912855 33.8343364,17.378542 34.5677944,17.9901069 L34.7276075,18.056874 L34.3939626,18.2498817 Z M37.1713458,23.895355 C37.057514,24.2544389 37.0704112,24.6668244 36.9784486,25.0326412 C36.9588224,25.0921145 36.9588224,25.1656145 36.9184486,25.2250878 C36.8040561,24.9995382 36.710972,24.6999275 36.4519065,24.5669542 C36.2315327,24.4474466 36.3717196,24.1478359 36.1659252,24.0086908 L35.9590093,23.8022176 C36.3122804,23.9553893 36.7715327,23.9149924 37.1713458,23.895355 Z M36.0061121,20.3707214 C36.2248037,20.4178511 36.3582617,20.6765038 36.5786355,20.7236336 C36.7782617,21.029416 36.8511589,21.3817672 36.950972,21.7268244 C36.7715327,21.9265649 36.7580748,22.3726145 36.3717196,22.2996756 C36.2786355,22.0864695 36.5455514,21.960229 36.4844299,21.7610496 C36.5511589,21.707187 36.6588224,21.6808168 36.6784486,21.5809466 C36.6638692,21.3817672 36.410972,21.4216031 36.3717196,21.2156908 C36.2915327,21.102355 36.1580748,21.1158206 36.053215,21.0759847 C35.7986355,20.955916 35.5603178,21.5871183 35.4941495,21.0894504 C35.573215,21.0226832 35.6191963,20.922813 35.5603178,20.8364084 C35.3399439,20.7163397 35.3203178,20.4099962 35.0803178,20.2910496 C34.7539626,20.2983435 34.4539626,20.1513435 34.1354579,20.2248435 C33.9285421,20.1782748 33.6874206,20.0385687 33.528729,20.2579466 C33.515271,20.4234618 33.4289159,20.5631679 33.4025607,20.7236336 C33.3291028,20.6832366 33.2623738,20.6102977 33.222,20.5300649 C33.8091028,19.8786641 34.4814393,19.2199695 35.0937757,18.5820344 L35.1262991,18.5018015 C35.433028,18.881084 35.7924673,19.2603664 36.0190093,19.6856565 C36.0717196,19.9381374 35.5799439,20.204084 36.0061121,20.3707214 Z M32.2373271,26.7416565 C32.2238692,26.9812328 31.8846168,26.9745 31.7248037,27.1405763 C31.6317196,27.1069122 31.7051776,27.0137748 31.7248037,26.9615954 C31.8846168,26.8347939 32.0040561,26.7085534 32.2373271,26.7416565 Z M31.6777009,21.2353282 C31.5711589,21.2751641 31.4573271,21.3481031 31.3390093,21.2953626 C31.2240561,21.175855 31.0793832,21.0159504 30.8920935,20.9957519 C30.7653645,21.029416 30.6795701,21.1887595 30.526486,21.102355 C30.7653645,20.8425802 31.1926542,20.7960115 31.3720935,20.4374885 C31.4248037,20.2646794 31.4719065,20.0851374 31.4522804,19.9050344 C31.3849907,19.8253626 31.2857383,19.7524237 31.1977009,19.8253626 C31.0653645,20.0447405 30.759757,20.0913092 30.6190093,20.3241527 L30.1412523,20.1648092 C30.0610654,19.7260534 30.1737757,19.167229 30.0470467,18.7873855 C30.2993832,18.881084 30.5791963,18.8872557 30.8461121,18.9478511 C31.5240561,19.1200992 32.144243,19.4399084 32.7431215,19.8118969 C32.6029346,19.8584656 32.4565794,20.0251031 32.3433084,20.131145 C32.3382617,20.2512137 32.4705981,20.2175496 32.5233084,20.2910496 L32.6500374,20.2444809 C32.444243,20.7629084 31.7522804,20.6832366 31.6777009,21.2353282 Z M35.3993832,31.5432824 C35.0528411,31.2234733 35.6124673,30.9569656 35.7201308,30.6640878 C35.6595701,30.3532557 35.3124673,30.1793244 35.0477944,30.0929198 C34.9205047,30.0199809 34.9608785,29.8606374 34.9535888,29.7540344 C35.0735888,29.6339656 35.193028,29.5346565 35.2535888,29.3747519 L35.3006916,29.5009924 L36.1188224,30.3454008 C36.1188224,30.5389695 36.1513458,30.7044847 36.337514,30.7908893 C36.4317196,30.8312863 36.5326542,30.7510534 36.6117196,30.7779847 L36.5646168,30.7779847 C36.210785,31.164 35.7801308,31.4563168 35.3791963,31.7688321 L35.2861121,31.8950725 C35.2401308,31.7626603 35.5120935,31.7020649 35.3993832,31.5432824 Z M36.9644299,29.6277939 C36.7978879,29.4678893 36.7911589,29.155374 36.4984486,29.1621069 C36.3991963,29.1492023 36.3582617,29.2417786 36.3582617,29.3214504 C36.3520935,29.3680191 36.3717196,29.4213206 36.337514,29.4549847 L35.7319065,28.9225305 C36.0190093,28.7760916 36.2315327,28.3900763 36.4519065,28.1112252 C37.0115327,27.333584 37.3378879,26.4611221 37.6171402,25.5718282 C37.7091028,25.6442061 37.8296636,25.6509389 37.9216262,25.5914656 C38.0091028,25.5179656 38.0276075,25.3782595 37.968729,25.2851221 L37.7483551,25.0461069 C37.7747103,24.647187 37.8829346,24.2544389 37.8425607,23.8487863 L37.9883551,23.895355 C38.6068598,23.8886221 39.2377009,23.928458 39.8360187,23.8689847 L39.7429346,23.9744656 C39.5892897,26.3752786 38.7526542,28.5438092 37.0771402,30.3128588 C37.1505981,30.0794542 36.9302243,29.8808359 36.9644299,29.6277939 Z M42.3745234,22.4320878 C42.4076075,22.6581985 42.3548972,22.9308779 42.4805047,23.1171527 L40.5649907,23.1502557 C40.5212523,23.1844809 40.4679813,23.2102901 40.4062991,23.2102901 L40.4601308,23.1306183 C40.4208785,21.6275153 40.0283551,20.278145 39.4502243,19.0000305 C39.4294766,18.4288626 38.8777009,18.0439695 38.6399439,17.5446183 C38.2148972,17.2517405 38.0876075,16.7327519 37.6025607,16.4735382 C37.5094766,16.3736679 37.4702243,16.2075916 37.3300374,16.1744885 L37.5565794,16.1279198 C38.0147103,15.6555 38.5137757,15.1971069 38.8777009,14.7044885 C40.8599439,16.9397863 42.1227477,19.4730115 42.3745234,22.4320878 Z M41.7492897,17.737626 C39.5696636,13.0953435 34.7803178,10.1502939 29.7616262,10.143 C27.5691028,10.1828359 25.5543364,10.6681603 23.7134019,11.5793359 C20.4363925,13.1419122 17.7588224,16.5403053 16.8683551,19.9050344 C15.3986355,25.5718282 17.3870467,31.3093168 22.244243,34.6415038 C25.7399439,37.1483588 31.3120935,37.6275115 35.2401308,35.7058511 C38.7251776,34.242584 41.7162056,30.6444504 42.6274206,27.0872748 C43.5246168,24.0748969 43.1315327,20.4043855 41.7492897,17.737626 Z" id="Fill-27" fill="#FEFEFE"></path>
            <path d="M35.6531776,13.5546344 C35.6464486,13.6275733 35.6599065,13.6943405 35.6991589,13.7470809 C35.9784112,13.8469511 36.0126168,14.2531649 36.3714953,14.1600275 C36.4791589,14.0393977 36.3036449,13.9125962 36.3378505,13.7605466 C36.2918692,13.6208405 36.1713084,13.5608061 36.0384112,13.5204092 C35.8982243,13.6545046 35.7804673,13.4020237 35.6531776,13.5546344" id="Fill-28" fill="#FEFEFE"></path>
            <path d="M30.3324112,12.4240248 C30.6856822,12.8762462 31.2985794,12.6232042 31.7376449,12.5367996 C32.0578318,12.6697729 32.3645607,12.5098683 32.6028785,12.31125 L32.6028785,12.2641202 C32.3763364,11.9448721 31.9512897,11.8983034 31.5638131,11.8652004 L30.6049346,12.2775859 C30.5264299,12.2444828 30.3733458,12.2040859 30.3200748,12.31125 C30.2791402,12.3443531 30.3200748,12.3909218 30.3324112,12.4240248" id="Fill-29" fill="#FEFEFE"></path>
            <path d="M14.0028224,118.009861 L13.7431963,116.079784 C13.7061869,115.7308 13.6574019,115.240987 13.6248785,114.849922 L13.6018879,114.849922 C13.4241308,115.248281 13.257028,115.665155 13.0551589,116.06688 L12.059271,118.009861 L14.0028224,118.009861 Z M11.7598318,118.664067 L10.697215,120.778174 L9.83254206,120.778174 L13.2828224,114.095845 L14.2529159,114.095845 L15.1759065,120.778174 L14.3336636,120.778174 L14.0645047,118.664067 L11.7598318,118.664067 Z" id="Fill-30" fill="#8E9BA6"></path>
            <polygon id="Fill-31" fill="#8E9BA6" points="16.006486 120.777949 17.3483551 113.738781 18.1698505 113.738781 16.8262991 120.777949"></polygon>
            <path d="M20.1083551,119.945099 C20.3348972,120.080316 20.744243,120.243587 21.1390093,120.243026 C21.6924673,120.242465 22.050785,119.885626 22.050785,119.460335 C22.050785,119.086103 21.8825607,118.851576 21.3851776,118.576652 C20.8305981,118.269187 20.5188224,117.84558 20.5188224,117.353523 C20.5188224,116.516408 21.2449907,115.874545 22.2560187,115.874545 C22.6900374,115.874545 23.0735888,115.990687 23.253028,116.112439 L23.0225607,116.732981 C22.8577009,116.637038 22.5543364,116.514725 22.1965794,116.514725 C21.695271,116.514725 21.342,116.826679 21.342,117.235137 C21.342,117.588049 21.5719065,117.801255 22.0003178,118.041954 C22.5341495,118.34437 22.895271,118.763488 22.895271,119.302114 C22.895271,120.309232 22.0760187,120.882084 21.0655514,120.882084 C20.5502243,120.882084 20.090972,120.719935 19.8734019,120.553297 L20.1083551,119.945099 Z" id="Fill-32" fill="#8E9BA6"></path>
            <path d="M26.3074766,116.514052 C25.5246729,116.514052 24.9342056,117.278227 24.7340187,118.028937 C26.0254206,118.044647 27.0364486,117.871838 27.0364486,117.124494 C27.0364486,116.730624 26.7358879,116.514052 26.3074766,116.514052 Z M27.2164486,120.502689 C26.8542056,120.706918 26.2743925,120.881971 25.6317757,120.881971 C24.3588785,120.881971 23.808785,120.013998 23.808785,118.953017 C23.808785,117.508826 24.8809346,115.874433 26.4235514,115.874433 C27.3353271,115.874433 27.8299065,116.418109 27.8304673,117.104296 C27.8304673,118.363895 26.4123364,118.695487 24.6409346,118.661823 C24.6011215,118.869418 24.6291589,119.31659 24.7379439,119.57412 C24.9308411,120.006704 25.311028,120.218788 25.804486,120.218788 C26.3742056,120.218788 26.8014953,120.049345 27.0953271,119.890002 L27.2164486,120.502689 Z" id="Fill-33" fill="#8E9BA6"></path>
            <path d="M28.245757,120.777949 L28.8311776,117.689827 C28.9489346,117.064797 29.021271,116.427984 29.0745421,115.983617 L29.7984673,115.983617 C29.7597757,116.316892 29.7205234,116.65185 29.6650093,117.025522 L29.6936075,117.025522 C30.0081869,116.36851 30.5201495,115.87477 31.1622056,115.87477 C31.2384673,115.87477 31.3332336,115.880381 31.3971589,115.892163 L31.2373458,116.703468 C31.1801495,116.692808 31.1072523,116.686636 31.0141682,116.686636 C30.3025794,116.686636 29.6694953,117.548999 29.4614579,118.66272 L29.0655701,120.777949 L28.245757,120.777949 Z" id="Fill-34" fill="#8E9BA6"></path>
            <path d="M32.4661121,115.983673 L32.8782617,118.713834 C32.9511589,119.259192 33.0128411,119.628376 33.0324673,119.891517 L33.0599439,119.891517 C33.1648037,119.637353 33.293215,119.32091 33.570785,118.774429 L35.033215,115.983673 L35.9343364,115.983673 L33.2668598,120.778005 L32.4571402,120.778005 L31.6294766,115.983673 L32.4661121,115.983673 Z" id="Fill-35" fill="#8E9BA6"></path>
            <path d="M36.9745794,114.644515 C36.9779439,114.328072 37.2179439,114.087934 37.5151402,114.087934 C37.811215,114.087934 38.0041121,114.303946 38.0041121,114.604679 C37.9934579,114.928415 37.7641121,115.157892 37.4472897,115.157892 C37.1573832,115.157892 36.968972,114.936831 36.9745794,114.644515 Z M35.9074766,120.778118 L36.8226168,115.983785 L37.6424299,115.983785 L36.7278505,120.778118 L35.9074766,120.778118 Z" id="Fill-36" fill="#8E9BA6"></path>
            <path d="M41.4693084,120.587803 C41.2242617,120.708994 40.7285607,120.881803 40.0775327,120.881803 C38.8438879,120.881803 38.2337944,120.045811 38.2337944,119.027471 C38.2337944,117.391395 39.4506168,115.875948 41.1737944,115.875948 C41.6201495,115.875948 42.0233271,116.006677 42.1691215,116.093082 L41.9341682,116.745044 C41.743514,116.654711 41.4810841,116.564379 41.1205234,116.564379 C39.8762243,116.564379 39.0889346,117.79312 39.0889346,118.922551 C39.0889346,119.702437 39.4965981,120.205154 40.2827664,120.205154 C40.7694953,120.205154 41.1446355,120.05591 41.3896822,119.938085 L41.4693084,120.587803 Z" id="Fill-37" fill="#8E9BA6"></path>
            <path d="M43.4341121,114.644515 C43.4374766,114.328072 43.6774766,114.087934 43.9746729,114.087934 C44.2707477,114.087934 44.4636449,114.303946 44.4636449,114.604679 C44.4529907,114.928415 44.2236449,115.157892 43.9068224,115.157892 C43.6169159,115.157892 43.4285047,114.936831 43.4341121,114.644515 Z M42.3670093,120.778118 L43.2821495,115.983785 L44.1019626,115.983785 L43.1873832,120.778118 L42.3670093,120.778118 Z" id="Fill-38" fill="#8E9BA6"></path>
            <path d="M45.5451589,118.885969 C45.5451589,119.665294 45.9774953,120.23534 46.6806729,120.23534 C47.6474019,120.23534 48.3825421,118.981351 48.3825421,117.867069 C48.3825421,117.307122 48.1234766,116.526115 47.264972,116.526115 C46.2298318,116.526115 45.5445981,117.786836 45.5451589,118.885969 M49.2298318,117.868752 C49.2298318,119.349412 48.1795514,120.88674 46.5679626,120.88674 C45.3685234,120.88674 44.6967477,119.996324 44.6967477,118.918511 C44.6967477,117.334053 45.7958131,115.874714 47.3552523,115.874714 C48.647215,115.874714 49.2298318,116.852656 49.2298318,117.868752" id="Fill-39" fill="#8E9BA6"></path>
            <path d="M3.67906542,128.632911 C3.51308411,128.520136 3.2388785,128.429243 2.89514019,128.429243 C1.74504673,128.429243 0.851214953,129.654617 0.851214953,130.928243 C0.851214953,131.508388 1.04915888,132.110976 1.75514019,132.110976 C2.38598131,132.110976 3.15252336,131.388881 3.35831776,130.309384 L3.67906542,128.632911 Z M5.05794393,125.637365 L4.00654206,131.156598 C3.91401869,131.653144 3.83271028,132.21309 3.8046729,132.676533 L3.05158879,132.676533 L3.17943925,131.728327 L3.15981308,131.728327 C2.72186916,132.408342 2.11962617,132.785381 1.43102804,132.785381 C0.507476636,132.785381 0,132.025694 0,131.040457 C0,129.33593 1.26560748,127.773354 2.9646729,127.773354 C3.26523364,127.773354 3.60336449,127.837877 3.81084112,127.937186 L4.24037383,125.637365 L5.05794393,125.637365 Z" id="Fill-40" fill="#8E9BA6"></path>
            <path d="M7.70915888,128.412635 C6.92635514,128.412635 6.33588785,129.176811 6.13570093,129.927521 C7.4271028,129.943231 8.43813084,129.770422 8.43813084,129.023078 C8.43813084,128.629208 8.13757009,128.412635 7.70915888,128.412635 Z M8.61813084,132.401273 C8.25588785,132.605502 7.67607477,132.780555 7.03345794,132.780555 C5.76056075,132.780555 5.21046729,131.912582 5.21046729,130.851601 C5.21046729,129.40741 6.28261682,127.773017 7.82523364,127.773017 C8.73700935,127.773017 9.23158879,128.316693 9.23214953,129.00288 C9.23214953,130.262479 7.81401869,130.594071 6.04261682,130.560406 C6.00280374,130.768002 6.03084112,131.215174 6.13962617,131.472704 C6.33252336,131.905288 6.71271028,132.117372 7.20616822,132.117372 C7.77588785,132.117372 8.20317757,131.947929 8.49700935,131.788586 L8.61813084,132.401273 Z" id="Fill-41" fill="#8E9BA6"></path>
            <polygon id="Fill-42" fill="#8E9BA6" points="11.4482243 132.676533 12.7900935 125.637365 13.6115888 125.637365 12.2680374 132.676533"></polygon>
            <path d="M17.421757,128.495393 C17.3068037,128.458363 17.1290467,128.427504 16.8514766,128.427504 C15.6111028,128.427504 14.5978318,129.719084 14.592785,131.053305 C14.5894206,131.589126 14.7783925,132.11092 15.4109159,132.11092 C16.0989533,132.11092 16.9041869,131.217137 17.1430654,129.942389 L17.421757,128.495393 Z M16.888486,132.676477 C16.8851215,132.387527 16.9339065,131.934744 16.9955888,131.437637 L16.9742804,131.437637 C16.4567103,132.434095 15.795028,132.785324 15.1187664,132.785324 C14.2697944,132.785324 13.7410093,132.110359 13.7410093,131.201427 C13.7410093,129.531126 14.9690467,127.773298 17.0539065,127.773298 C17.5131589,127.773298 18.015028,127.851847 18.3469907,127.954523 L17.8580187,130.454084 C17.6993271,131.288393 17.6331589,132.145145 17.655028,132.676477 L16.888486,132.676477 Z" id="Fill-43" fill="#8E9BA6"></path>
            <path d="M18.9263551,131.843683 C19.1528972,131.9789 19.562243,132.142171 19.9570093,132.14161 C20.5104673,132.141049 20.868785,131.78421 20.868785,131.358919 C20.868785,130.984687 20.7005607,130.75016 20.2031776,130.475236 C19.6485981,130.167771 19.3368224,129.744164 19.3368224,129.252106 C19.3368224,128.414992 20.0629907,127.773129 21.0740187,127.773129 C21.5080374,127.773129 21.8915888,127.889271 22.071028,128.011023 L21.8405607,128.631565 C21.6757009,128.535622 21.3723364,128.413309 21.0145794,128.413309 C20.513271,128.413309 20.16,128.725263 20.16,129.133721 C20.16,129.486633 20.3899065,129.699839 20.8183178,129.940538 C21.3521495,130.242954 21.713271,130.662072 21.713271,131.200698 C21.713271,132.207816 20.8940187,132.780668 19.8835514,132.780668 C19.3682243,132.780668 18.908972,132.618519 18.6914019,132.451881 L18.9263551,131.843683 Z" id="Fill-44" fill="#8E9BA6"></path>
            <path d="M25.2935888,131.872185 C25.5049907,132.038261 25.8156449,132.136448 26.2081682,132.136448 C27.2679813,132.136448 28.1545234,130.81962 28.1545234,129.565632 C28.1545234,129.062353 27.9324673,128.455838 27.2354579,128.455838 C26.5894766,128.455838 25.7848037,129.192521 25.5363925,130.533475 L25.2935888,131.872185 Z M23.9449907,134.639937 L24.9044299,129.581342 C25.0126542,129.004563 25.1102243,128.365506 25.1741495,127.882426 L25.9249907,127.882426 L25.790972,128.784624 L25.8105981,128.784624 C26.2462991,128.151739 26.8771402,127.773017 27.5343364,127.773017 C28.5734019,127.773017 29.010785,128.626403 29.010785,129.505036 C29.010785,131.192731 27.8001308,132.785605 26.2036822,132.785605 C25.6945234,132.785605 25.3558318,132.673952 25.170785,132.570716 L25.1505981,132.570716 L24.7636822,134.639937 L23.9449907,134.639937 Z" id="Fill-45" fill="#8E9BA6"></path>
            <path d="M32.1310093,128.412635 C31.3482056,128.412635 30.7577383,129.176811 30.5575514,129.927521 C31.8483925,129.943231 32.8599813,129.770422 32.8599813,129.023078 C32.8599813,128.629208 32.5594206,128.412635 32.1310093,128.412635 Z M33.0399813,132.401273 C32.6777383,132.605502 32.0979252,132.780555 31.4558692,132.780555 C30.1824112,132.780555 29.6323178,131.912582 29.6323178,130.851601 C29.6323178,129.40741 30.7044673,127.773017 32.2470841,127.773017 C33.1582991,127.773017 33.6534393,128.316693 33.654,129.00288 C33.654,130.262479 32.2358692,130.594071 30.4644673,130.560406 C30.4246542,130.768002 30.4526916,131.215174 30.5614766,131.472704 C30.7543738,131.905288 31.1351215,132.117372 31.6280187,132.117372 C32.1971776,132.117372 32.625028,131.947929 32.9182991,131.788586 L33.0399813,132.401273 Z" id="Fill-46" fill="#8E9BA6"></path>
            <path d="M34.0689533,132.676533 L34.6549346,129.588411 C34.7726916,128.963381 34.845028,128.326568 34.8982991,127.882201 L35.6222243,127.882201 C35.582972,128.215476 35.5442804,128.550434 35.4882056,128.924106 L35.5173645,128.924106 C35.8319439,128.267094 36.3433458,127.773354 36.9859626,127.773354 C37.0616636,127.773354 37.1569907,127.778965 37.2209159,127.790747 L37.0611028,128.602052 C37.0033458,128.591392 36.9310093,128.58522 36.8373645,128.58522 C36.1263364,128.58522 35.4926916,129.447583 35.285215,130.561304 L34.8893271,132.676533 L34.0689533,132.676533 Z" id="Fill-47" fill="#8E9BA6"></path>
            <path d="M37.2538318,131.843683 C37.4798131,131.9789 37.8897196,132.142171 38.284486,132.14161 C38.8379439,132.141049 39.1962617,131.78421 39.1962617,131.358919 C39.1962617,130.984687 39.0280374,130.75016 38.5306542,130.475236 C37.9760748,130.167771 37.6642991,129.744164 37.6642991,129.252106 C37.6642991,128.414992 38.3904673,127.773129 39.4009346,127.773129 C39.835514,127.773129 40.2190654,127.889271 40.3985047,128.011023 L40.1680374,128.631565 C40.0026168,128.535622 39.6998131,128.413309 39.3420561,128.413309 C38.8407477,128.413309 38.4869159,128.725263 38.4869159,129.133721 C38.4869159,129.486633 38.7173832,129.699839 39.1457944,129.940538 C39.6796262,130.242954 40.0407477,130.662072 40.0407477,131.200698 C40.0407477,132.207816 39.2214953,132.780668 38.211028,132.780668 C37.6957009,132.780668 37.2364486,132.618519 37.0188785,132.451881 L37.2538318,131.843683 Z" id="Fill-48" fill="#8E9BA6"></path>
            <path d="M41.819215,130.784553 C41.819215,131.563878 42.2515514,132.133924 42.954729,132.133924 C43.9214579,132.133924 44.6565981,130.879935 44.6565981,129.765653 C44.6565981,129.205706 44.3975327,128.424698 43.539028,128.424698 C42.5038879,128.424698 41.8186542,129.68542 41.819215,130.784553 M45.5038879,129.767336 C45.5038879,131.247996 44.4536075,132.785324 42.8420187,132.785324 C41.6425794,132.785324 40.9708037,131.894908 40.9708037,130.817095 C40.9708037,129.232637 42.0698692,127.773298 43.6293084,127.773298 C44.921271,127.773298 45.5038879,128.75124 45.5038879,129.767336" id="Fill-49" fill="#8E9BA6"></path>
            <path d="M46.0834206,132.676533 L46.7249159,129.277018 C46.8308972,128.744003 46.8959439,128.279438 46.9508972,127.882201 L47.6882804,127.882201 L47.5654766,128.824235 L47.5851028,128.824235 C48.015757,128.14927 48.6606168,127.773354 49.3626729,127.773354 C49.931271,127.773354 50.5738879,128.101579 50.5738879,129.104209 C50.5738879,129.317976 50.5351963,129.621514 50.4886542,129.878484 L49.9565047,132.676533 L49.1361308,132.676533 L49.6604299,129.906537 C49.693514,129.720262 49.7254766,129.496957 49.7254766,129.293289 C49.7254766,128.811892 49.5398692,128.457297 48.9740748,128.457297 C48.384729,128.457297 47.5531402,129.159755 47.3350093,130.345854 L46.9037944,132.676533 L46.0834206,132.676533 Z" id="Fill-50" fill="#8E9BA6"></path>
            <path d="M55.0756822,128.495393 C54.960729,128.458363 54.782972,128.427504 54.5054019,128.427504 C53.265028,128.427504 52.2523178,129.719084 52.2467103,131.053305 C52.2433458,131.589126 52.4323178,132.11092 53.0648411,132.11092 C53.7528785,132.11092 54.5581121,131.217137 54.7969907,129.942389 L55.0756822,128.495393 Z M54.542972,132.676477 C54.5390467,132.387527 54.5878318,131.934744 54.649514,131.437637 L54.6282056,131.437637 C54.1106355,132.434095 53.449514,132.785324 52.7732523,132.785324 C51.9237196,132.785324 51.3949346,132.110359 51.3949346,131.201427 C51.3949346,129.531126 52.622972,127.773298 54.7078318,127.773298 C55.1670841,127.773298 55.6689533,127.851847 56.0003551,127.954523 L55.5113832,130.454084 C55.3532523,131.288393 55.2870841,132.145145 55.3089533,132.676477 L54.542972,132.676477 Z" id="Fill-51" fill="#8E9BA6"></path>
            <path d="M56.5799439,131.843683 C56.8059252,131.9789 57.2158318,132.142171 57.6105981,132.14161 C58.1640561,132.141049 58.5223738,131.78421 58.5223738,131.358919 C58.5223738,130.984687 58.3541495,130.75016 57.8567664,130.475236 C57.3021869,130.167771 56.9904112,129.744164 56.9904112,129.252106 C56.9904112,128.414992 57.7165794,127.773129 58.7270467,127.773129 C59.1616262,127.773129 59.5451776,127.889271 59.7246168,128.011023 L59.4941495,128.631565 C59.328729,128.535622 59.0259252,128.413309 58.6681682,128.413309 C58.1668598,128.413309 57.813028,128.725263 57.813028,129.133721 C57.813028,129.486633 58.0434953,129.699839 58.4719065,129.940538 C59.0057383,130.242954 59.3668598,130.662072 59.3668598,131.200698 C59.3668598,132.207816 58.5476075,132.780668 57.5371402,132.780668 C57.0218131,132.780668 56.5625607,132.618519 56.3449907,132.451881 L56.5799439,131.843683 Z" id="Fill-52" fill="#8E9BA6"></path>
            <path d="M3.82228037,139.781402 L4.2966729,142.360074 C4.40321495,142.911605 4.46545794,143.2662 4.5131215,143.624162 L4.53835514,143.624162 C4.66452336,143.316696 4.80527103,142.980055 5.04695327,142.449845 L6.27386916,139.781402 L7.14639252,139.781402 L5.34639252,143.424982 C4.83274766,144.464643 4.34657944,145.306807 3.69442991,145.948108 C3.15891589,146.487856 2.57405607,146.716773 2.30097196,146.776246 L2.09966355,146.06986 C2.30545794,145.997482 2.65368224,145.863387 2.97779439,145.608662 C3.30190654,145.357864 3.64788785,144.971288 3.90414953,144.501673 C3.94676636,144.422563 3.94284112,144.368139 3.92826168,144.283979 L2.96826168,139.781402 L3.82228037,139.781402 Z" id="Fill-53" fill="#8E9BA6"></path>
            <polygon id="Fill-54" fill="#8E9BA6" points="8.94459813 144.575678 10.2864673 137.53651 11.1079626 137.53651 9.76441121 144.575678"></polygon>
            <path d="M14.9184112,140.394538 C14.8034579,140.357508 14.6257009,140.326649 14.3481308,140.326649 C13.107757,140.326649 12.094486,141.618229 12.0894393,142.95245 C12.0860748,143.488271 12.2750467,144.010065 12.9075701,144.010065 C13.5956075,144.010065 14.4008411,143.116282 14.6397196,141.841534 L14.9184112,140.394538 Z M14.3851402,144.575622 C14.3817757,144.286672 14.4305607,143.833889 14.492243,143.336782 L14.4709346,143.336782 C13.9533645,144.33324 13.2916822,144.684469 12.6154206,144.684469 C11.7664486,144.684469 11.2376636,144.009504 11.2376636,143.100573 C11.2376636,141.430271 12.4657009,139.672443 14.5505607,139.672443 C15.0098131,139.672443 15.5116822,139.750992 15.8436449,139.853668 L15.3546729,142.353229 C15.1959813,143.187538 15.1298131,144.04429 15.1516822,144.575622 L14.3851402,144.575622 Z" id="Fill-55" fill="#8E9BA6"></path>
            <path d="M16.4229533,143.742884 C16.6494953,143.878102 17.0588411,144.041373 17.4536075,144.040811 C18.0070654,144.04025 18.3653832,143.683411 18.3653832,143.258121 C18.3653832,142.883888 18.1971589,142.649361 17.6997757,142.374437 C17.1451963,142.066972 16.8334206,141.643365 16.8334206,141.151308 C16.8334206,140.314193 17.5595888,139.672331 18.5706168,139.672331 C19.0046355,139.672331 19.3881869,139.788472 19.5676262,139.910224 L19.3371589,140.530766 C19.1722991,140.434823 18.8689346,140.31251 18.5111776,140.31251 C18.0098692,140.31251 17.6565981,140.624464 17.6565981,141.032922 C17.6565981,141.385834 17.8865047,141.59904 18.3149159,141.839739 C18.8487477,142.142155 19.2098692,142.561273 19.2098692,143.099899 C19.2098692,144.107018 18.3906168,144.679869 17.3801495,144.679869 C16.8648224,144.679869 16.4055701,144.51772 16.188,144.351082 L16.4229533,143.742884 Z" id="Fill-56" fill="#8E9BA6"></path>
            <path d="M21.8740935,144.575678 L22.515028,141.176724 C22.6210093,140.643148 22.6866168,140.178583 22.7410093,139.781346 L23.4789533,139.781346 L23.3555888,140.723381 L23.375215,140.723381 C23.8064299,140.048415 24.4512897,139.672499 25.152785,139.672499 C25.7213832,139.672499 26.364,140.000724 26.364,141.003354 C26.364,141.217121 26.3253084,141.520659 26.2787664,141.777629 L25.7466168,144.575678 L24.9268037,144.575678 L25.4505421,141.805682 C25.4836262,141.619407 25.5161495,141.396102 25.5161495,141.192434 C25.5161495,140.711037 25.3305421,140.356442 24.7647477,140.356442 C24.1754019,140.356442 23.3432523,141.0589 23.1256822,142.244999 L22.6939065,144.575678 L21.8740935,144.575678 Z" id="Fill-57" fill="#8E9BA6"></path>
            <path d="M30.8758879,140.394538 C30.7609346,140.357508 30.5831776,140.326649 30.3056075,140.326649 C29.0652336,140.326649 28.0519626,141.618229 28.0469159,142.95245 C28.0435514,143.488271 28.2325234,144.010065 28.8650467,144.010065 C29.5530841,144.010065 30.3583178,143.116282 30.5971963,141.841534 L30.8758879,140.394538 Z M30.3426168,144.575622 C30.3392523,144.286672 30.3880374,143.833889 30.4497196,143.336782 L30.4284112,143.336782 C29.9108411,144.33324 29.2491589,144.684469 28.5728972,144.684469 C27.7239252,144.684469 27.1951402,144.009504 27.1951402,143.100573 C27.1951402,141.430271 28.4231776,139.672443 30.5080374,139.672443 C30.9672897,139.672443 31.4691589,139.750992 31.8005607,139.853668 L31.3115888,142.353229 C31.1534579,143.187538 31.0872897,144.04429 31.1091589,144.575622 L30.3426168,144.575622 Z" id="Fill-58" fill="#8E9BA6"></path>
            <path d="M35.6367477,144.385588 C35.3917009,144.506779 34.896,144.679588 34.244972,144.679588 C33.0113271,144.679588 32.4012336,143.843596 32.4012336,142.825256 C32.4012336,141.18918 33.6180561,139.673733 35.3412336,139.673733 C35.7875888,139.673733 36.1907664,139.804462 36.3365607,139.890867 L36.1016075,140.542829 C35.9109533,140.452497 35.6485234,140.362165 35.2879626,140.362165 C34.0436636,140.362165 33.2563738,141.590905 33.2563738,142.720336 C33.2563738,143.500222 33.6640374,144.002939 34.4502056,144.002939 C34.9369346,144.002939 35.3120748,143.853695 35.5571215,143.735871 L35.6367477,144.385588 Z" id="Fill-59" fill="#8E9BA6"></path>
            <path d="M37.6016075,138.4423 C37.604972,138.125857 37.844972,137.885719 38.1421682,137.885719 C38.438243,137.885719 38.6311402,138.101731 38.6311402,138.402464 C38.620486,138.7262 38.3911402,138.955677 38.0743178,138.955677 C37.7844112,138.955677 37.596,138.734616 37.6016075,138.4423 Z M36.5345047,144.575903 L37.4496449,139.781571 L38.2694579,139.781571 L37.3548785,144.575903 L36.5345047,144.575903 Z" id="Fill-60" fill="#8E9BA6"></path>
            <path d="M39.7131589,142.683755 C39.7131589,143.463079 40.1454953,144.033125 40.8486729,144.033125 C41.8154019,144.033125 42.5505421,142.779136 42.5505421,141.664854 C42.5505421,141.104907 42.2914766,140.3239 41.432972,140.3239 C40.3978318,140.3239 39.7125981,141.584621 39.7131589,142.683755 M43.3978318,141.666537 C43.3978318,143.147197 42.3475514,144.684526 40.7359626,144.684526 C39.5365234,144.684526 38.8647477,143.794671 38.8647477,142.716297 C38.8647477,141.131839 39.9638131,139.672499 41.5232523,139.672499 C42.815215,139.672499 43.3978318,140.650442 43.3978318,141.666537" id="Fill-61" fill="#8E9BA6"></path>
            <path d="M43.9773645,144.575678 L44.6188598,141.176724 C44.7248411,140.643148 44.7898879,140.178583 44.8448411,139.781346 L45.5822243,139.781346 L45.4594206,140.723381 L45.4790467,140.723381 C45.9097009,140.048415 46.5545607,139.672499 47.2566168,139.672499 C47.825215,139.672499 48.4678318,140.000724 48.4678318,141.003354 C48.4678318,141.217121 48.4291402,141.520659 48.3825981,141.777629 L47.8504486,144.575678 L47.0300748,144.575678 L47.5543738,141.805682 C47.5874579,141.619407 47.6194206,141.396102 47.6194206,141.192434 C47.6194206,140.711037 47.4338131,140.356442 46.8680187,140.356442 C46.2786729,140.356442 45.4470841,141.0589 45.2289533,142.244999 L44.7977383,144.575678 L43.9773645,144.575678 Z" id="Fill-62" fill="#8E9BA6"></path>
            <path d="M51.8163364,140.311781 C51.0335327,140.311781 50.4430654,141.075956 50.2423178,141.826666 C51.5337196,141.842376 52.5447477,141.669567 52.5447477,140.922223 C52.5447477,140.528353 52.2441869,140.311781 51.8163364,140.311781 Z M52.7247477,144.300418 C52.3630654,144.504647 51.7832523,144.6797 51.1406355,144.6797 C49.8671776,144.6797 49.3176449,143.811727 49.3176449,142.750746 C49.3176449,141.306555 50.3892336,139.672162 51.9318505,139.672162 C52.8436262,139.672162 53.3382056,140.215838 53.3393271,140.902025 C53.3393271,142.161624 51.9211963,142.493216 50.1497944,142.459552 C50.1094206,142.667147 50.1380187,143.114319 50.2468037,143.371849 C50.4397009,143.804433 50.8198879,144.016517 51.3133458,144.016517 C51.8825047,144.016517 52.3103551,143.847074 52.6036262,143.687731 L52.7247477,144.300418 Z" id="Fill-63" fill="#8E9BA6"></path>
            <path d="M53.7937009,143.742884 C54.0196822,143.878102 54.4295888,144.041373 54.8243551,144.040811 C55.3778131,144.04025 55.7361308,143.683411 55.7361308,143.258121 C55.7361308,142.883888 55.5679065,142.649361 55.0705234,142.374437 C54.5159439,142.066972 54.2041682,141.643365 54.2041682,141.151308 C54.2041682,140.314193 54.9303364,139.672331 55.9408037,139.672331 C56.3753832,139.672331 56.7589346,139.788472 56.9383738,139.910224 L56.7079065,140.530766 C56.542486,140.434823 56.2396822,140.31251 55.8819252,140.31251 C55.3806168,140.31251 55.026785,140.624464 55.026785,141.032922 C55.026785,141.385834 55.2572523,141.59904 55.6856636,141.839739 C56.2194953,142.142155 56.5806168,142.561273 56.5806168,143.099899 C56.5806168,144.107018 55.7613645,144.679869 54.7508972,144.679869 C54.2355701,144.679869 53.7763178,144.51772 53.5587477,144.351082 L53.7937009,143.742884 Z" id="Fill-64" fill="#8E9BA6"></path>
        </g>
    </g>
</svg>