<?xml version="1.0" encoding="UTF-8"?>
<svg width="222px" height="102px" viewBox="0 0 222 102" version="1.1" xmlns="http://www.w3.org/2000/svg" xmlns:xlink="http://www.w3.org/1999/xlink">
    <!-- Generator: Sketch 49.3 (51167) - http://www.bohemiancoding.com/sketch -->
    <title>Artboard</title>
    <desc>Created with Sketch.</desc>
    <defs></defs>
    <g id="Artboard" stroke="none" stroke-width="1" fill="none" fill-rule="evenodd">
        <g id="pnud" transform="translate(86.000000, 0.000000)">
            <path d="M0.835327103,76.1330954 L0.835327103,51.9487901 L25.0057944,51.9487901 L25.0057944,76.1330954 L0.835327103,76.1330954 Z M18.4381495,60.5215271 C18.4381495,59.0812637 17.8886168,57.9086302 17.003757,57.1422103 C16.0454393,56.2804088 14.539271,55.8012561 12.4768411,55.8012561 C10.8018879,55.8012561 9.48525234,55.9460118 8.47814953,56.1384584 L8.47814953,72.0694431 L10.5624486,72.0694431 L10.5624486,65.6014431 C11.0424486,65.7209508 11.6155327,65.7439546 12.2402056,65.7439546 C14.2734766,65.7439546 16.0695514,65.1424889 17.1697383,63.9732218 C18.0091776,63.1310576 18.4381495,61.9819889 18.4381495,60.5215271 Z" id="Combined-Shape" fill="#8E9BA6"></path>
            <path d="M16.3331028,60.7392218 C16.3331028,58.5802294 14.8246916,57.5523515 12.5239439,57.5523515 C11.6155327,57.5523515 10.9213271,57.6477332 10.5624486,57.7206721 L10.5624486,63.9956645 C11.0155327,64.1168553 11.6155327,64.163424 12.2850654,64.163424 C14.8246916,64.163424 16.3331028,62.9189737 16.3331028,60.7392218" id="Path" fill="#8E9BA6"></path>
            <path d="M26.4923364,76.1302901 L26.4923364,51.9459847 L50.6734579,51.9459847 L50.6734579,76.1302901 L26.4923364,76.1302901 Z M34.5018318,72.1161802 L34.5018318,65.213913 C34.5018318,62.5297603 34.4777196,60.5929511 34.3549159,58.5551496 L34.4283738,58.5321458 C35.2201495,60.2781916 36.2979065,62.1235466 37.4216449,63.9223328 L42.5451963,72.1161802 L44.6536075,72.1161802 L44.6536075,55.9669397 L42.6898692,55.9669397 L42.6898692,62.748016 C42.6898692,65.2397221 42.736972,67.2040237 42.9281869,69.3607718 L42.854729,69.3826534 C42.1122991,67.7056191 41.1595888,66.0274626 39.9831402,64.1366611 L34.8349159,55.9669397 L32.532486,55.9669397 L32.532486,72.1161802 L34.5018318,72.1161802 Z" id="Combined-Shape" fill="#8E9BA6"></path>
            <path d="M0.834205607,101.68192 L0.834205607,77.4976145 L25.0046729,77.4976145 L25.0046729,101.68192 L0.834205607,101.68192 Z M6.96250467,81.5223286 L6.96250467,91.0358095 C6.96250467,96.0685958 9.45334579,97.9352714 12.7589533,97.9352714 C16.252972,97.9352714 18.8649346,95.9204737 18.8649346,90.9651149 L18.8649346,81.5223286 L16.7570841,81.5223286 L16.7570841,91.1053821 C16.7570841,94.6541416 15.1998879,96.2369164 12.8312897,96.2369164 C10.675215,96.2369164 9.07203738,94.6990271 9.07203738,91.1053821 L9.07203738,81.5223286 L6.96250467,81.5223286 Z" id="Combined-Shape" fill="#8E9BA6"></path>
            <path d="M26.4945794,101.683603 L26.4945794,77.4992977 L50.6768224,77.4992977 L50.6768224,101.683603 L26.4945794,101.683603 Z M45.7990467,89.1170107 C45.7990467,86.5057969 44.9612897,84.6138733 43.5044673,83.2936786 C42.0874579,81.9774115 39.9582991,81.3052511 36.9639065,81.3052511 C35.3125047,81.3052511 33.8040935,81.4483237 32.5087664,81.6430145 L32.5087664,97.5279916 C33.5870841,97.6710641 34.809514,97.7170718 36.3179252,97.7170718 C39.4541869,97.7170718 41.9439065,96.9057664 43.4792336,95.3942473 C44.9612897,93.9096595 45.7990467,91.7506672 45.7990467,89.1170107 Z" id="Combined-Shape" fill="#8E9BA6"></path>
            <path d="M43.5975514,89.1882664 C43.6216636,85.3320412 41.465028,82.9604038 37.0603551,82.9604038 C35.9837196,82.9604038 35.1700748,83.0546634 34.6188598,83.1747321 L34.6188598,95.9452168 C35.1425981,96.0405985 35.9080187,96.0405985 36.725028,96.0405985 C41.178486,96.0641634 43.5975514,93.5483313 43.5975514,89.1882664" id="Path" fill="#8E9BA6"></path>
            <path d="M0.834766355,50.453542 L0.834766355,0.561068702 L50.6998131,0.561068702 L50.6998131,50.453542 L0.834766355,50.453542 Z M38.466486,36.0910809 C40.6808785,35.3869397 43.0259252,33.1724015 43.3191963,30.8114244 C43.0466729,31.5093939 42.4814393,32.1546229 41.8640561,32.6466802 C40.322,33.8036038 38.459757,34.2025237 37.0315327,35.625955 C36.8795701,35.7258252 36.7270467,35.8784359 36.553215,35.8846076 C37.0853645,35.4194817 37.5704112,34.8477527 37.9091028,34.2558252 C38.7861121,32.7661878 38.4547103,30.7783214 39.2178879,29.2415542 C38.7524673,29.754371 38.4216262,30.3193672 38.0218131,30.8574321 C36.7668598,32.759455 36.8717196,35.2601382 34.9915327,36.875455 C36.1018131,36.4972947 37.324243,36.3968634 38.466486,36.0910809 Z M43.6052336,26.5280015 C44.5820561,24.7331427 44.8551402,22.1668145 43.9579439,20.2445931 C44.2568224,21.8733756 43.5250467,23.2367725 42.9340187,24.5872649 C42.5218692,25.5242496 42.3895327,26.5818641 42.1231776,27.5861771 L42.0435514,27.6787534 L42.0104673,27.6456504 C42.1024299,27.2068947 42.2560748,26.7877763 42.2162617,26.2901084 C42.3295327,24.2410855 40.5340187,22.9837305 40.1291589,21.1552076 L40.1095327,21.8408336 C40.2626168,23.6289595 40.7336449,25.2852344 41.2725234,26.9145779 C41.5854206,27.6731427 41.491215,28.6561351 41.4183178,29.4550969 C42.0631776,28.4440511 42.9076636,27.5194099 43.6052336,26.5280015 Z M42.5023551,16.1745447 C42.2965607,15.915892 42.1636636,15.5826172 41.8636636,15.4092469 C42.3290841,16.055037 42.4081495,16.8663424 42.4221682,17.7040179 C42.2102056,19.2469569 42.1429159,20.8830332 42.3621682,22.4456095 C42.3621682,22.4725408 42.3358131,22.4921782 42.3083364,22.4921782 C42.182729,22.0792317 42.1967477,21.6006401 41.9909533,21.2157469 C41.4913271,19.6991782 39.658243,18.9871821 38.9124486,17.6108805 C39.0195514,18.2095408 39.2057196,18.7812698 39.424972,19.3328004 C40.1214206,21.0227393 41.8165607,22.2997317 42.2831028,24.0878576 C42.3358131,24.254495 42.349271,24.4542355 42.4081495,24.6006744 C42.5354393,23.7428004 42.7608598,22.9180294 43.0793645,22.1398271 C43.9373084,20.3113042 43.6788037,17.770224 42.5023551,16.1745447 Z M41.6721682,15.8690427 C41.4046916,14.6318863 40.2820748,13.2813939 38.9934766,13.0160084 C39.5177757,13.3683595 39.9097383,13.9198901 40.1093645,14.4787145 C40.5013271,15.7691725 40.6931028,17.1325695 41.2583364,18.3422336 L41.2263738,18.3758977 C41.0138505,18.0364511 40.9078692,17.6240656 40.574785,17.324455 C39.5901121,16.034558 37.8753458,15.6956725 37.2377757,14.1600275 C37.3975888,15.0773748 37.6768411,15.9414206 38.3217009,16.6528557 C39.4314206,17.8501763 41.0458131,18.5554397 41.8045047,20.0518099 L41.8168411,20.0383443 C41.5319813,18.6289397 41.9845047,17.2649817 41.6721682,15.8690427 Z M38.2145981,12.6634328 C37.3846916,11.9183336 36.3405794,11.6725855 35.370486,11.2602 L36.4740374,12.3772878 C37.3779626,13.8209176 38.6603925,15.1904863 40.0762804,16.2077038 L39.9164673,15.8351542 C39.630486,14.6647649 39.1914206,13.5342115 38.2145981,12.6634328 Z M15.8726168,11.4468115 C14.5430841,11.9652389 13.0542991,12.4572962 12.2501869,13.860529 C11.685514,14.6179718 11.6714953,15.6026473 11.2733645,16.4274183 C12.0107477,15.7356206 12.8417757,15.2037275 13.492243,14.399155 C14.2172897,13.3886702 14.8952336,12.3041244 15.8726168,11.4468115 Z M10.5279626,14.4321458 C9.43226168,15.5828977 9.54441121,17.3519473 9.69805607,18.901058 C9.73170093,19.3796496 9.63076636,19.831871 9.66441121,20.2773595 C9.98347664,19.619787 10.5481495,19.0340313 11.1330093,18.5223366 C12.5488972,17.5247565 14.0303925,16.1282565 14.0500187,14.352474 C13.5924486,15.6289053 12.2096449,16.1675313 11.2731963,17.0321382 C10.7943178,17.504558 10.4085234,18.0499168 10.189271,18.6283786 L10.1556262,18.6020084 C10.2700187,18.0897527 10.5016075,17.6307985 10.6345047,17.1325695 C11.0533832,15.7826382 10.967028,14.1600275 12.2831028,13.2550237 C11.6057196,13.4278328 11.0006729,13.8402183 10.5279626,14.4321458 Z M7.86385047,19.7324496 C7.73656075,21.6675756 8.97917757,23.0309725 9.11880374,24.8527626 C9.40534579,22.9507397 10.980486,21.5873427 11.8311402,19.9254573 C12.1294579,19.2600298 12.356,18.5356901 12.4423551,17.8175221 C12.3229159,18.1227435 12.1165607,18.3892511 11.8844112,18.6484649 C10.7887103,19.646045 9.5371215,20.6699954 9.29936449,22.1130641 C9.25899065,22.3189763 9.24553271,22.5321824 9.18497196,22.7313618 C9.13899065,22.7515603 9.13899065,22.6982588 9.11880374,22.6853542 L9.25282243,20.8961061 C9.29936449,19.147255 8.46160748,17.212129 9.47207477,15.6759229 C9.43899065,15.6691901 9.41936449,15.6955603 9.3924486,15.709587 C8.47562617,16.8794153 7.82347664,18.1625794 7.86385047,19.7324496 Z M7.0988785,21.9668496 C6.85943925,23.2371092 7.09271028,24.5870405 7.44429907,25.7506969 C7.86934579,27.2139641 9.30542056,28.258113 10.0304673,29.5945786 L10.1291589,29.6742504 C10.0231776,28.9487885 9.96990654,28.1644145 10.1762617,27.4731779 C10.4880374,26.3622618 10.8474766,25.2788382 11.0863551,24.1348191 C11.2136449,23.2371092 11.4323364,22.239529 11.3263551,21.3743611 C11.2063551,21.8406092 11.066729,22.2922695 10.826729,22.6979221 C9.83813084,24.1942924 8.85345794,25.9700748 9.53757009,27.8855634 C9.51850467,27.9057618 9.49831776,27.9321321 9.47196262,27.9186664 C9.19943925,27.2869031 9.15233645,26.5620023 8.96,25.8904031 C8.50242991,24.0882504 7.10616822,22.5913191 7.51102804,20.5170481 C7.29850467,20.9692695 7.21214953,21.4747924 7.0988785,21.9668496 Z M7.03259813,26.0236569 C6.95185047,27.0010385 6.99334579,28.058092 7.36456075,28.9097943 C8.24213084,31.3829851 10.9410093,32.6661492 12.9215701,34.0166416 C12.7348411,33.5442218 12.4488598,33.105466 12.3097944,32.6134088 C11.7714766,30.3590347 12.0641869,27.7652141 11.0997009,25.6847714 C11.2791402,26.8675042 10.8081121,27.9116531 10.7015701,29.0360347 C10.608486,29.9601149 10.7481121,30.8718515 11.1333458,31.635466 C11.2135327,31.8750424 11.4322243,32.0742218 11.4854953,32.3076263 C11.139514,31.9951111 10.9146542,31.5832866 10.655028,31.210737 C9.55876636,29.3878248 7.19241121,28.2247294 7.03259813,26.0236569 Z M8.2148785,31.077371 C8.51431776,32.9131878 9.94366355,34.581245 11.5451589,35.5659206 C13.0081495,36.589871 14.9550654,36.4372603 16.616,36.9826191 C15.0812336,35.7465847 14.8288972,33.8967412 14.1632897,32.2606649 C13.7180561,31.2563519 13.0474019,30.3395656 12.3100187,29.4547603 C13.1208598,31.077371 12.7406729,33.1926 13.8245981,34.7013137 C14.1234766,35.2001038 14.6158131,35.6388595 15.0414206,36.0248748 L15.0212336,36.0450733 C14.6354393,35.8649702 14.2771215,35.6063176 13.9384299,35.3067069 C12.0829159,33.7839664 9.3195514,33.5769321 8.2148785,31.077371 Z M11.0531028,35.7393469 C11.7243178,37.0561752 13.1003925,38.1126676 14.4360935,38.5323469 C16.4895514,39.2308775 18.6433832,38.4521141 20.5774019,37.9735225 C20.8560935,37.9005836 21.1953458,37.9263927 21.4544112,37.8338164 C20.3777757,37.6144385 19.354972,37.2688202 18.503757,36.5231599 C17.3211402,35.413366 16.2445047,34.2631752 14.961514,33.412034 C15.9652523,34.7619653 16.237215,36.7632973 18.086,37.4146981 C18.3916075,37.5746027 18.7824486,37.5544042 19.0622617,37.7339462 C18.7101121,37.7866866 18.4033832,37.6542744 18.0719813,37.6077057 C15.7129159,37.0819844 12.8205794,37.7535836 11.0531028,35.7393469 Z M35.0845047,40.4336405 C35.9828224,40.1149534 36.8458131,39.5493962 37.4777757,38.7577282 C36.2474953,39.6363618 34.3869346,39.7822397 32.9508598,39.2503466 L31.399271,38.6314878 C29.8942243,37.8336481 27.9175888,37.5211328 26.1736636,37.9733542 C25.8288037,38.2864305 25.4693645,37.9200527 25.1043178,37.9133198 C22.757028,37.4021863 20.7377757,38.4721443 18.7897383,39.3165527 C17.3413271,39.8888427 15.4398318,39.7957053 14.1635701,38.9181939 C14.794972,39.7087397 15.6388972,40.1946252 16.5102991,40.5273389 C18.1325421,41.1720069 20.0603925,40.7332511 21.4022617,39.7957053 C22.5523551,39.1499153 23.5426355,37.8802168 25.0583364,38.3593695 C23.5157196,39.0775374 22.1065607,40.0818504 20.8302991,41.3711863 L21.628243,42.0298809 C22.5579626,40.7865527 23.7944112,39.768774 25.043757,38.9776672 C25.3168411,38.8317893 25.6017009,38.6516863 25.9017009,38.6118504 C27.4387103,39.3631214 28.8153458,40.6468466 30.0540374,41.9827511 C30.321514,41.7706672 30.6007664,41.5383847 30.8200187,41.2915145 C29.5286168,40.0476252 28.1233832,39.0775374 26.6048785,38.372274 C26.8583364,38.2998962 27.1443178,38.2864305 27.4387103,38.2926023 C28.2568411,38.2393008 28.8153458,38.8177626 29.4484299,39.2172435 C31.0073084,40.4005374 33.0910467,41.1793008 35.0845047,40.4336405 Z" id="Combined-Shape" fill="#8E9BA6"></path>
            <path d="M37.2245421,38.3723302 C34.9849159,39.2167385 32.7307103,38.1793225 30.5808037,37.8337042 L30.1680935,37.7804027 L30.1680935,37.7674981 C31.1931402,37.5346546 32.1918318,37.2283111 33.0110841,36.4905057 C34.2150093,35.3335821 35.2837944,34.1429943 36.6200561,33.2318187 C35.6297757,34.5026393 35.5237944,36.3109637 33.8886542,37.1290019 C33.4832336,37.3943874 32.9707103,37.4409561 32.551271,37.6412576 C33.1501495,37.6541622 33.6946355,37.4409561 34.2873458,37.3814828 C36.4809907,37.0358645 38.9931402,37.3887767 40.5279065,35.5192958 C39.9570654,36.8226584 38.5265981,37.913376 37.2245421,38.3723302" id="Fill-25" fill="#FEFEFE"></path>
            <path d="M41.2921495,32.0679939 C40.4084112,32.6464557 39.511215,33.1850817 38.6605607,33.8432153 L38.6605607,33.7635435 C39.9637383,31.595574 39.3250467,28.6235931 40.1291589,26.2429786 L40.4280374,25.4445779 C40.2626168,26.9280435 40.9074766,28.1848374 40.8603738,29.6744748 C40.813271,30.5721847 40.5211215,31.3694634 40.048972,32.0881924 L40.1291589,32.0881924 C40.7661682,31.2505168 41.2657944,30.3589786 42.0104673,29.5611389 C43.1672897,28.4440511 44.3431776,27.3000321 44.4968224,25.7503603 C44.8876636,28.3380092 43.4386916,30.6052878 41.2921495,32.0679939" id="Fill-26" fill="#FEFEFE"></path>
            <path d="M38.4216262,23.9946641 C38.2943364,27.1069122 37.1380748,29.7938702 35.104243,32.1150115 L35.0515327,32.2148817 C34.633215,31.7559275 34.0747103,31.1567061 33.5689159,30.7583473 C33.8756449,30.5524351 34.1077944,30.1927901 34.3528411,29.9004733 C35.6156449,28.1645267 36.3535888,26.2097634 36.4601308,23.9946641 L36.3945234,23.8151221 L36.5072336,23.895355 L38.402,23.8824504 L38.5006916,23.8358817 L38.4216262,23.9946641 Z M26.2079813,36.1844427 L26.0812523,36.2641145 C26.1277944,35.5857824 26.1277944,34.8541489 26.0812523,34.1763779 C26.413215,34.2891527 26.7653645,34.1629122 27.1180748,34.1629122 L28.137514,33.9833702 C28.6438692,34.0832405 29.0027477,34.9007176 29.5623738,34.4024885 C29.755271,34.169645 30.0945234,34.1887214 30.2150841,33.8700344 C30.5403178,33.7510878 30.6205047,33.418374 30.8548972,33.205729 C31.0735888,32.5801374 31.7801308,32.4875611 32.210785,32.054416 C32.5248037,31.7755649 32.9380748,31.5432824 33.124243,31.1769046 L33.1567664,31.3362481 L34.559757,32.6732748 C32.1844299,34.8283397 29.4154579,36.0452977 26.2079813,36.1844427 Z M26.1866729,31.9292977 C26.4266729,32.0280458 26.8393832,31.8288664 26.9722804,32.1015458 C26.8977009,32.2547176 26.7793832,32.4005954 26.826486,32.5801374 C26.9251776,32.8264466 27.0720935,33.1524275 27.3849907,33.1720649 C27.4651776,33.2781069 27.5711589,33.3050382 27.6777009,33.3454351 C27.1444299,33.4312786 26.5724673,33.4049084 26.0812523,33.5709847 C26.1479813,33.0323588 26.0812523,32.4740954 26.0812523,31.9292977 L25.9814393,31.7822977 C26.0739626,31.7952023 26.1210654,31.874874 26.1866729,31.9292977 Z M25.6948972,28.5572748 C25.5485421,28.5769122 25.4302243,28.5640076 25.3102243,28.5107061 C25.2491028,28.5034122 25.2692897,28.4372061 25.2491028,28.3973702 C25.4425607,28.403542 25.5362056,28.1712595 25.7414393,28.2049237 C25.8614393,28.0977595 25.8816262,27.9187786 26.0470467,27.8587443 C25.9937757,27.6864962 26.2079813,27.7987099 26.2528411,27.6994008 C26.3134019,27.6455382 26.3924673,27.5860649 26.4793832,27.6326336 C26.6122804,27.8256412 26.8859252,27.7454084 27.0193832,27.9653473 C27.0849907,27.9917176 27.1057383,27.9187786 27.0995701,27.8722099 L27.0995701,27.7925382 C27.3120935,27.7717786 27.4180748,28.0781221 27.6457383,27.8722099 C27.6984486,27.8256412 27.6844299,27.7252099 27.6457383,27.6797634 C27.6182617,27.6662977 27.5857383,27.652271 27.5790093,27.6191679 C27.7315327,27.546229 27.8246168,27.8520115 28.010785,27.7454084 C28.1638692,27.6191679 28.2698505,27.4598244 28.4773271,27.4598244 L28.5233084,27.5192977 C28.5569533,27.9187786 28.2177009,28.158355 27.9177009,28.3378969 C27.7248037,28.4175687 27.3720935,28.3900763 27.3849907,28.7031527 C27.1662991,28.9028931 26.9593832,28.583645 26.6857383,28.6700496 C26.5584486,28.6038435 26.6795701,28.4175687 26.5057383,28.3839046 C26.226486,28.5034122 25.8939626,28.2380267 25.6948972,28.5572748 Z M24.0866729,36.0913053 C21.4147103,35.7260496 19.075271,34.5680038 17.0016262,32.773145 L18.3715327,31.3968435 L18.3917196,31.3160496 C20.2853645,33.1456947 22.5788224,34.063042 25.1711589,34.242584 L25.3763925,34.1887214 L25.3102243,34.2891527 L25.3102243,36.0913053 L25.4089159,36.2512099 C24.9967664,36.1244084 24.5122804,36.1642443 24.0866729,36.0913053 Z M14.7216262,29.7871374 C13.7655514,28.011355 13.2003178,26.076229 13.0943364,23.9480954 L14.9408785,23.9615611 L15.122,23.895355 C15.0945234,23.9946641 15.1074206,24.1214656 15.1018131,24.2679046 L15.0883551,24.2477061 C15.0350841,24.2881031 15.1276075,24.3077405 15.122,24.3470153 C15.1545234,25.0517176 15.2801308,25.717145 15.4399439,26.3696679 L15.533028,26.5149847 C15.3934019,26.3898664 15.3406916,26.2361336 15.2347103,26.1025992 C15.0810654,26.1295305 14.9156449,26.1626336 14.8018131,26.2630649 C14.875271,26.4549504 14.6823738,26.3954771 14.5965794,26.4487786 C14.5696636,26.402771 14.5163925,26.3489084 14.4631215,26.3225382 C14.3234953,26.3298321 14.1771402,26.3432977 14.1177009,26.4824427 C14.1373271,26.5817519 14.0240561,26.6283206 13.984243,26.7085534 C13.9444299,27.0076031 13.8451776,27.399229 14.0638692,27.6455382 C14.0705981,27.8654771 14.1771402,28.0646565 14.3363925,28.2043626 C14.4031215,28.2178282 14.4362056,28.1645267 14.4827477,28.1443282 C14.6616262,28.2773015 14.755271,28.6038435 15.0210654,28.5438092 C15.1018131,28.5034122 15.0748972,28.4243015 15.1018131,28.3648282 C15.2414393,28.5034122 15.3070467,28.7895573 15.5661121,28.763187 C15.6322804,28.8299542 15.6653645,28.9489008 15.7724673,28.9561947 C16.0511589,28.8826947 15.950785,29.2748817 16.1577009,29.3876565 C16.317514,29.4880878 16.4044299,29.7276641 16.6360187,29.6143282 L16.7162056,29.514458 C16.7891028,29.5683206 16.7291028,29.7007328 16.795271,29.7736718 C16.9091028,29.9868779 17.1350841,30.1400496 17.3543364,30.1995229 C17.5466729,30.4189008 17.7462991,30.6781145 17.9728411,30.8380191 L17.813028,30.9047863 L16.4896636,32.274355 C15.8851776,31.4563168 15.1948972,30.6640878 14.7216262,29.7871374 Z M13.1868598,22.0135305 C13.5261121,19.2670992 14.6947103,16.8595534 16.5894766,14.7510573 L16.6360187,14.9305992 C17.0891028,15.3766489 17.5399439,15.8490687 17.9728411,16.2547214 C17.5993832,16.5072023 17.3806916,16.9324924 17.0823738,17.2719389 C15.8919065,18.9601947 15.2145234,20.849874 15.0883551,22.9712748 L15.1348972,23.2304885 C14.4704112,23.177187 13.7453645,23.177187 13.0808785,23.2304885 C13.1610654,22.8248359 13.1145234,22.4124504 13.1868598,22.0135305 Z M18.1326542,13.3949542 C20.2388224,11.8789466 22.6113458,10.9672099 25.2838692,10.8611679 L25.2300374,11.0468817 L25.2491028,12.6431221 L25.3102243,12.8030267 C22.7173271,12.9225344 20.4580748,13.8937443 18.5173271,15.6622328 L18.484243,15.7548092 C18.0395701,15.2767786 17.5399439,14.724687 17.0156449,14.3397939 L16.9562056,14.3397939 C17.3677944,14.0996565 17.7266729,13.6738053 18.1326542,13.3949542 Z M25.3298505,18.1034427 C24.9838692,18.0226489 24.6580748,18.1831145 24.3255514,18.2162176 C23.5825607,18.4030534 22.930972,18.8143168 22.3001308,19.2670992 C22.266486,19.3198397 22.2322804,19.3669695 22.1991963,19.4135382 C21.7399439,19.0073244 21.2896636,18.4423282 20.7827477,18.0899771 C22.0662991,17.0318015 23.5292897,16.3276603 25.2177009,16.2075916 L25.3298505,16.1413855 C25.2580748,16.7866145 25.2580748,17.4778511 25.3298505,18.1034427 Z M24.8044299,20.2579466 C24.7646168,20.1648092 24.8778879,20.0643779 24.7713458,20.0049046 C24.4657383,20.1446107 24.5790093,20.4840573 24.3726542,20.7034351 C24.3390093,20.8762443 24.1135888,20.7892786 24.0070467,20.8829771 C23.9268598,20.7567366 23.7676075,20.7629084 23.6548972,20.8364084 C23.4956449,20.8364084 23.468729,20.5109885 23.3027477,20.6765038 C23.2562056,20.7303664 23.282,20.849874 23.1569533,20.8027443 C23.1294766,20.7567366 23.0834953,20.7500038 23.0504112,20.7236336 C23.0431215,20.6232023 23.2169533,20.637229 23.1569533,20.5171603 C23.0369533,20.3039542 22.7773271,20.3376183 22.6180748,20.1782748 L22.4722804,20.1782748 C23.2562056,19.346771 24.239757,18.9809542 25.3102243,18.8412481 C25.2962056,19.3198397 25.2580748,19.8584656 25.4089159,20.2910496 C25.2440561,20.0851374 25.0102243,20.3443511 24.8044299,20.2579466 Z M22.9494766,25.6711374 C23.0694766,25.5510687 23.1833084,25.4046298 23.2231215,25.2385534 L23.4485421,25.3513282 C23.2427477,25.3647939 23.1294766,25.5718282 22.970785,25.6846031 L22.9494766,25.6711374 Z M25.0904112,27.6662977 C24.9967664,27.8183473 25.070785,28.0455802 25.0236822,28.2251221 C24.1399439,28.0713893 23.3425607,27.7050115 22.630972,27.1203779 C23.0302243,26.688355 23.5747103,26.2630649 23.8612523,25.7968168 C23.9016262,26.0100229 24.1534019,26.1098931 24.3255514,26.2097634 C24.6816262,26.3685458 25.1094766,26.6131718 25.5126542,26.443729 C25.4795701,26.468416 25.4543364,26.5065687 25.4229346,26.5278893 C25.5362056,26.6417863 25.3365794,26.7612939 25.4694766,26.8678969 C25.4963925,26.9543015 25.3831215,26.9413969 25.3763925,27.0076031 C25.4425607,27.1271107 25.3562056,27.3403168 25.5485421,27.3795916 C25.5962056,27.4463588 25.5485421,27.546229 25.4694766,27.5524008 C25.3365794,27.5260305 25.1571402,27.5192977 25.0904112,27.6662977 Z M20.9902243,20.4964008 C20.8034953,20.6035649 20.6577009,20.7892786 20.5444299,20.9626489 C20.3846168,21.0625191 20.1788224,21.0557863 20.0459252,21.2353282 C20.0459252,21.3077061 20.1322804,21.4014046 20.0335888,21.4547061 C19.8793832,21.600584 19.5614393,21.4148702 19.4885421,21.6937214 C19.4599439,21.9400305 19.1694766,22.0791756 19.1885421,22.352416 C19.0292897,22.4595802 19.0562056,22.6649313 19.075271,22.8315687 C19.1616262,22.9370496 19.0360187,23.1306183 19.1885421,23.2102901 C18.9300374,23.177187 18.5896636,23.1367901 18.357514,23.2439542 C18.484243,22.9443435 18.4444299,22.5717939 18.5173271,22.2525458 C18.7634953,20.8762443 19.388729,19.6660191 20.3049907,18.5685687 C20.764243,19.0207901 21.2548972,19.5459504 21.7741495,19.9381374 C21.3956449,19.9516031 21.3889159,20.5109885 20.9902243,20.4964008 Z M20.0666729,28.3648282 L19.9993832,27.9518817 C19.6214393,27.6129962 19.7391963,27.0272405 19.6808785,26.5957786 C19.4145234,26.3825725 19.6276075,26.0363931 19.4414393,25.7968168 C19.4476075,25.4113626 18.8425607,25.2789504 19.0292897,24.8525382 C18.9558318,24.7464962 18.8633084,24.6073511 18.9491028,24.4738168 C19.0691028,24.3335496 19.3276075,24.4872824 19.4077944,24.2813702 L19.4599439,23.928458 C19.6006916,23.8487863 19.799757,24.0283282 19.8726542,23.8358817 C20.0066729,23.5031679 19.3808785,23.0975153 19.919757,22.924145 C20.099757,22.9045076 20.3453645,22.8646718 20.4177009,23.0834885 C20.4580748,23.3365305 20.524243,23.6092099 20.4311589,23.8689847 C20.6038692,23.9357519 20.4446168,24.0883626 20.4446168,24.2016985 C20.3380748,24.2477061 20.2388224,24.3537481 20.1120935,24.3139122 C20.0599439,24.2275076 19.9657383,24.0748969 19.8395701,24.0883626 C19.7391963,24.2275076 19.8793832,24.3739466 19.8591963,24.5332901 C19.8261121,24.6269885 19.8524673,24.7330305 19.7935888,24.8059695 C19.7470467,24.7728664 19.7010654,24.7537901 19.6337757,24.7599618 C19.5205047,24.8194351 19.5945234,24.9395038 19.6214393,25.0124427 C19.7391963,25.0859427 19.8261121,25.1987176 19.9657383,25.2054504 L20.0335888,25.1257786 C20.0184486,24.9125725 20.1188224,24.7464962 20.1255514,24.5332901 L20.3184486,24.6331603 C20.4973271,25.4573702 20.8702243,26.2097634 21.3423738,26.9150267 L21.5958318,27.1669466 C20.9902243,27.6921069 20.3986355,28.3176985 19.8866729,28.909626 L19.8866729,28.9225305 C19.8793832,28.8967214 19.8591963,28.7895573 19.7795701,28.8299542 C19.7274206,28.5769122 20.1457383,28.6498511 20.0666729,28.3648282 Z M24.3059252,30.7117786 L24.6249907,30.8576565 C23.468729,30.5726336 22.2261121,30.1731527 21.2285421,29.3410878 C21.0569533,29.2417786 20.9431215,29.0156679 20.7373271,29.0027634 C21.2021869,28.624042 21.6681682,28.1246908 22.0590093,27.6455382 C22.2322804,27.9653473 22.6040561,28.1375954 22.8905981,28.3508015 C23.393028,28.5842061 23.9162056,29.0089351 24.5055514,28.8894275 C24.3227477,28.9561947 24.1539626,29.0583092 24.0070467,29.2154084 C23.9268598,29.3949504 23.9537757,29.6603359 23.7143364,29.7405687 C23.7277944,30.1198511 24.066486,30.4390992 24.3059252,30.7117786 Z M22.3326542,25.5246985 C22.3388224,25.5914656 22.4184486,25.6509389 22.4919065,25.6043702 C22.5648037,25.5050611 22.3326542,25.3316908 22.5048037,25.2722176 C22.6113458,25.3917252 22.557514,25.5914656 22.6180748,25.7306107 C22.6719065,25.8035496 22.6904112,25.8899542 22.6780748,25.9903855 C22.4980748,26.2097634 22.2462991,26.402771 22.1190093,26.6417863 C21.9995701,26.3432977 21.7337757,26.1025992 21.6143364,25.7968168 C21.4214393,25.4511985 21.3227477,25.0584504 21.1354579,24.7133931 C21.295271,24.9125725 21.7214393,24.6864618 21.7214393,25.0657443 C21.7472336,25.0859427 21.7870467,25.0786489 21.8206916,25.0786489 C21.8734019,25.0191756 21.8801308,25.0124427 21.9468598,25.0461069 C21.9805047,25.1117519 22.1391963,25.145416 22.013028,25.2250878 C22.0590093,25.3647939 22.1790093,25.4977672 22.3326542,25.5246985 Z M25.3102243,15.4894237 C24.964243,15.4164847 24.6126542,15.5359924 24.2605047,15.5690954 C22.7773271,15.8754389 21.4023738,16.5072023 20.2719065,17.591187 L20.2248037,17.4643855 C19.7795701,17.052 19.375271,16.5335725 18.8829346,16.2216183 C19.3085421,15.9685763 19.6870467,15.5960267 20.099757,15.3098817 C21.6412523,14.2730267 23.3689159,13.687271 25.2962056,13.5744962 C25.2300374,14.1995267 25.2838692,14.8576603 25.3102243,15.4894237 Z M17.766486,23.2439542 L17.5926542,23.177187 L15.7724673,23.2102901 C15.9384486,21.175855 16.497514,19.3069351 17.6734019,17.6910573 L18.3917196,16.7798817 L18.4034953,16.6530802 C18.8302243,17.1524313 19.3018131,17.6175573 19.8059252,18.056874 C18.4971402,19.4668397 17.833215,21.1556565 17.6862991,23.0509466 C17.713215,23.1171527 17.6935888,23.1973855 17.766486,23.2439542 Z M16.4105981,26.3225382 C16.2300374,26.3432977 16.2777009,26.541916 16.2036822,26.6412252 C16.2182617,26.1760992 16.0124673,25.7244389 15.950785,25.2520191 L15.8055514,24.0283282 L15.7253645,23.9149924 C16.3102243,24.0013969 16.9562056,23.9480954 17.5741495,23.9615611 L17.7199439,23.895355 C17.6661121,24.1882328 17.6526542,24.6135229 17.8662991,24.8727366 C17.7922804,24.7930649 17.6862991,24.5602214 17.513028,24.5669542 C17.1748972,24.5871527 17.1485421,25.0326412 16.8092897,25.0461069 C16.5294766,25.2789504 16.4896636,25.6043702 16.430785,25.9236183 C16.5502243,26.0504198 16.3365794,26.1760992 16.4105981,26.3225382 Z M18.424243,24.0283282 L18.3244299,23.8689847 C18.5240561,24.0148626 18.7304112,23.9682939 18.9625607,23.928458 C18.6367664,24.0350611 18.7567664,24.434542 18.6305981,24.6802901 C18.6104112,24.7997977 18.7898505,24.8329008 18.7702243,24.9529695 C18.6104112,25.0326412 18.5896636,25.2054504 18.5173271,25.3316908 C18.6104112,24.8862023 18.4371402,24.467645 18.424243,24.0283282 Z M25.3892897,33.6169924 L25.2031215,33.4901908 C22.730785,33.3583397 20.6178879,32.3472939 18.7702243,30.731416 C19.0691028,30.698313 19.1812523,31.0972328 19.5076075,30.9968015 C19.866486,30.9569656 20.1457383,30.6713817 20.524243,30.731416 C20.710972,30.7381489 20.9431215,30.731416 21.0569533,30.5524351 C21.1158318,30.3532557 20.9038692,30.2522634 20.8634953,30.0929198 C22.1190093,31.0304656 23.5354579,31.6223931 25.1504112,31.7020649 L25.3102243,31.6358588 L25.3102243,33.3914427 L25.3892897,33.6169924 Z M25.6948972,21.282458 L25.8070467,21.3413702 C25.6679813,21.3481031 25.5098505,21.2616985 25.3892897,21.3615687 C25.3102243,21.4216031 25.3629346,21.527645 25.3892897,21.600584 C25.6281682,21.6937214 25.682,22.0864695 26.0010654,21.9338588 C26.1339626,21.960229 26.2993832,21.9865992 26.346486,22.139771 C26.5388224,22.2127099 26.5651776,22.5521565 26.826486,22.4786565 C26.8119065,22.6048969 26.7726542,22.8248359 26.9251776,22.924145 C26.8859252,23.0374809 26.7395701,23.0840496 26.7462991,23.2304885 C26.7126542,23.2703244 26.6795701,23.3365305 26.7199439,23.3903931 C26.9655514,23.4162023 26.9526542,23.6956145 27.0653645,23.8487863 C27.0115327,24.0412328 27.0793832,24.2409733 27.2448037,24.3470153 C27.2195701,24.573687 27.1180748,24.7661336 27.0193832,24.965874 C26.759757,25.0921145 26.3324673,24.7728664 26.2405047,25.2385534 C26.0941495,25.398458 26.2203178,25.7502481 25.9343364,25.7637137 C25.3892897,25.8035496 24.8840561,25.6846031 24.4657383,25.3647939 C24.7377009,25.2250878 25.2031215,25.4180954 25.2962056,25.0124427 C25.3696636,24.9529695 25.3960187,24.8463664 25.3629346,24.7599618 C25.4896636,24.6331603 25.5362056,24.467645 25.6018131,24.3139122 C25.5025607,24.2151641 25.5485421,24.1613015 25.5698505,24.0412328 C25.2962056,23.7623817 24.9255514,23.9082595 24.5790093,23.9149924 C24.3726542,24.0350611 24.5717196,24.2611718 24.4320935,24.4070496 C24.1668598,24.4407137 24.1601308,24.6999275 23.9739626,24.8525382 C23.8674206,24.8059695 23.7877944,24.6600916 23.7945234,24.5534885 L23.8281682,24.5534885 C23.8147103,24.6073511 23.8477944,24.6533588 23.8943364,24.6668244 C24.1466729,24.7072214 24.066486,24.4210763 24.1466729,24.2942748 C24.1870467,24.1349313 24.5593832,23.9149924 24.2605047,23.8022176 C24.2453645,23.7360115 24.2991963,23.6490458 24.2134019,23.6092099 C24.1203178,23.6490458 23.9666729,23.6490458 23.9537757,23.7887519 C24.0008785,23.9082595 23.9537757,24.0283282 23.8477944,24.108 L23.7945234,24.108 C23.8147103,24.0283282 23.7541495,23.9744656 23.7014393,23.9480954 C23.5483551,23.9553893 23.4227477,24.0681641 23.2685421,24.0283282 C23.0565794,24.0748969 22.8165794,24.1147328 22.5984486,24.1214656 C22.5715327,23.9946641 22.7705981,24.0350611 22.810972,23.9149924 C22.7773271,23.715813 22.910785,23.5963053 22.9977009,23.4498664 C23.0504112,23.3965649 23.1496636,23.4162023 23.210785,23.4364008 C23.2623738,23.4897023 23.3167664,23.5357099 23.3958318,23.5160725 L23.462,23.4027366 C23.6621869,23.5228053 23.5483551,24.0945344 23.939757,23.8487863 C24.0008785,23.6030382 23.9476075,23.3101603 24.0541495,23.0834885 C23.9666729,22.8714046 24.193215,22.7844389 24.2605047,22.6385611 C24.4657383,22.6581985 24.4461121,22.4264771 24.5324673,22.319313 C24.844243,22.2261756 25.1773271,22.1526756 25.3763925,21.8205229 C25.2962056,21.6538855 25.3494766,21.4148702 25.2177009,21.282458 C25.3562056,21.2353282 25.5889159,21.1623893 25.6948972,21.282458 Z M26.8119065,13.6210649 C27.9777009,13.7602099 29.0094766,14.079458 30.0412523,14.5457061 C30.1943364,14.7779885 30.4943364,14.8907634 30.5341495,15.1842023 C30.3816262,15.5892939 31.0735888,15.5825611 30.7618131,15.9949466 C30.7410654,16.1279198 30.8548972,16.2014198 30.899757,16.3012901 C30.9401308,16.4140649 30.8812523,16.5874351 31.0147103,16.6530802 C31.2535888,16.7069427 31.3539626,16.3871336 31.5928411,16.4735382 C31.9051776,16.6996489 31.9719065,17.0721985 31.9719065,17.4183779 C32.0122804,17.6377557 32.1984486,17.7836336 32.3913458,17.8638664 C32.7844299,17.7437977 32.5982617,18.1831145 32.8713458,18.2958893 C33.177514,18.3357252 33.3300374,18.7284733 33.6681682,18.6953702 C33.968729,18.9214809 34.1341495,19.2536336 34.3999439,19.5061145 C34.393215,19.5661489 34.4274206,19.6194504 34.4801308,19.6390878 C34.6399439,19.6794847 34.739757,19.5661489 34.8777009,19.559416 C35.3902243,20.6102977 35.642,21.7739542 35.7429346,23.0043779 L35.8029346,23.1306183 C35.1580748,23.1238855 34.5137757,23.1367901 33.8554579,23.177187 C33.8358318,22.7984656 33.8621869,22.3989847 33.6496636,22.0926412 C33.7562056,21.8934618 33.7747103,21.633687 33.7623738,21.4081374 C33.722,21.3077061 33.6345234,21.3952328 33.5896636,21.4081374 C33.3771402,21.6140496 33.3496636,21.9001947 33.2369533,22.139771 C33.057514,22.3989847 33.0311589,22.7911718 33.1371402,23.0840496 L33.2173271,23.1642824 L32.4726542,23.1502557 C32.650972,23.0374809 32.3190093,22.817542 32.4984486,22.638 L32.8382617,22.5717939 C32.9431215,22.3254847 33.2105981,22.1465038 33.2038692,21.854187 C33.3496636,21.674084 33.4831215,21.4418015 33.3771402,21.2016641 C33.2173271,20.8364084 33.6496636,20.4638588 33.3165794,20.1182405 C33.3496636,20.0183702 33.2773271,19.8719313 33.1567664,19.8786641 C33.050785,19.8455611 32.9302243,19.8786641 32.9302243,19.7322252 C32.9913458,19.6390878 33.1438692,19.5459504 33.1096636,19.4000725 C33.0311589,19.3002023 32.9038692,19.3866069 32.8040561,19.379874 C32.7782617,19.2199695 33.0771402,19.0477214 32.817514,18.9007214 C32.6386355,18.8681794 32.5382617,19.093729 32.3582617,19.0140573 C32.2786355,18.9478511 32.2191963,18.8350763 32.2915327,18.7419389 L31.8928411,18.2498817 C31.8524673,18.203313 31.739757,18.2756908 31.7319065,18.1831145 C31.7593832,17.7903664 31.2799439,17.5709885 31.2535888,17.1793626 C31.1066729,17.0458282 31.2261121,16.7995191 31.033215,16.6867443 C30.9261121,16.6070725 30.8066729,16.5139351 30.6608785,16.5734084 C30.4943364,16.3338321 30.3008785,16.1015496 30.0737757,15.8883435 C30.0092897,15.8692672 29.9621869,15.908542 29.9285421,15.9483779 C29.9621869,16.1346527 30.1814393,16.2406947 30.1679813,16.447729 C30.1354579,16.4404351 30.1079813,16.447729 30.0872336,16.4735382 C30.115271,16.6665458 30.2689159,16.8197176 30.3939626,16.9526908 C29.348729,16.1486794 28.1178879,15.729 26.8119065,15.516916 C26.5584486,15.5096221 26.2993832,15.4030191 26.0470467,15.4894237 C26.1076075,14.9115229 26.0672336,14.2528282 26.0812523,13.6339695 L26.0145234,13.507729 C26.2606916,13.6407023 26.526486,13.581229 26.8119065,13.6210649 Z M27.3261121,10.9543053 C29.9885421,11.3206832 32.3795701,12.3771756 34.3870467,14.2926641 L34.1610654,14.3858015 C33.7954579,14.7779885 33.3704112,15.0972366 33.1567664,15.549458 C33.1304112,15.4226565 32.9431215,15.336813 32.884243,15.2167443 C32.8438692,14.8509275 32.4922804,14.5053092 32.1788224,14.3190344 C31.9191963,14.2730267 31.8603178,13.8802786 31.5395701,14.0003473 C31.273215,13.7742366 30.9401308,13.940313 30.6816262,14.0665534 L30.6816262,14.1002176 C29.4154579,13.3814885 28.0040561,12.936 26.4793832,12.8232252 C26.406486,12.8232252 26.3661121,12.8821374 26.2881682,12.8697939 C26.3661121,12.8164924 26.3262991,12.6565878 26.3195701,12.5634504 C26.2791963,12.4972443 26.2001308,12.4175725 26.1076075,12.470313 C26.0739626,12.5168817 26.0470467,12.5707443 26.0470467,12.6302176 C26.0868598,12.0382901 26.1076075,11.3206832 26.0274206,10.7944008 C26.4328411,10.9212023 26.8977009,10.8813664 27.3261121,10.9543053 Z M28.5704112,28.0977595 C29.1563925,28.1510611 29.7092897,28.2773015 30.2347103,28.477042 C30.3676075,28.477042 30.5139626,28.4635763 30.6008785,28.3648282 C30.5677944,28.1443282 30.8341495,28.0455802 30.8066729,27.8250802 C30.9205047,27.6399275 30.8403178,27.3795916 30.9995701,27.2208092 C31.0203178,26.9868435 30.9872336,26.7276298 30.8403178,26.5492099 C30.6939626,26.4549504 30.5599439,26.5755802 30.4208785,26.5957786 C30.2621869,26.7147252 30.3216262,27.0676374 30.0412523,26.9946985 C29.9745234,27.0872748 29.8483551,27.0872748 29.755271,27.0603435 C29.7356449,27.0272405 29.6874206,27.0210687 29.7025607,26.9812328 C29.9021869,26.8808015 30.2548972,26.9475687 30.2806916,26.6283206 C30.4276075,26.5015191 30.6541495,26.5553817 30.793215,26.402771 C30.893028,26.2428664 30.9401308,26.1025992 31.0803178,25.9567214 C31.0937757,25.8899542 31.1201308,25.8237481 31.1134019,25.7502481 C31.1526542,25.8439466 31.1526542,25.970187 31.273215,26.0234885 C31.4262991,26.0694962 31.4941495,25.9432557 31.5603178,25.8439466 C31.5535888,25.790645 31.5928411,25.7109733 31.6534019,25.7637137 C31.8199439,25.8972481 32.053215,25.7833511 32.2455514,25.7968168 C32.410972,25.7440763 32.5920935,25.7109733 32.7715327,25.7036794 C32.6117196,26.435874 32.2371402,27.1198168 31.7986355,27.758874 C31.6343364,27.9653473 31.4857383,28.1847252 31.3006916,28.3839046 C31.2401308,28.2312939 31.2468598,28.0253817 31.1134019,27.8856756 L31.033215,27.905874 C30.9261121,28.117958 30.7135888,28.2975 30.7410654,28.5438092 C30.5812523,28.795729 30.1814393,28.583645 29.9414393,28.7166183 C29.6554579,28.8030229 29.5023738,28.5236107 29.275271,28.4635763 C29.0223738,28.3569733 28.7302243,28.3508015 28.4902243,28.2251221 C28.4823738,28.1645267 28.5165794,28.117958 28.5704112,28.0977595 Z M30.3939626,18.2498817 C30.0412523,18.6482405 29.588729,19.0073244 29.2898505,19.4264427 L29.2427477,19.2872977 C28.370785,18.5753015 27.3586355,18.2229504 26.2528411,18.0697786 L26.0812523,18.1034427 L26.0941495,16.3012901 L26.0274206,16.1542901 C26.759757,16.267626 27.4988224,16.3674962 28.1705981,16.6070725 C29.0369533,16.912855 29.8343364,17.378542 30.5677944,17.9901069 L30.7276075,18.056874 L30.3939626,18.2498817 Z M33.1713458,23.895355 C33.057514,24.2544389 33.0704112,24.6668244 32.9784486,25.0326412 C32.9588224,25.0921145 32.9588224,25.1656145 32.9184486,25.2250878 C32.8040561,24.9995382 32.710972,24.6999275 32.4519065,24.5669542 C32.2315327,24.4474466 32.3717196,24.1478359 32.1659252,24.0086908 L31.9590093,23.8022176 C32.3122804,23.9553893 32.7715327,23.9149924 33.1713458,23.895355 Z M32.0061121,20.3707214 C32.2248037,20.4178511 32.3582617,20.6765038 32.5786355,20.7236336 C32.7782617,21.029416 32.8511589,21.3817672 32.950972,21.7268244 C32.7715327,21.9265649 32.7580748,22.3726145 32.3717196,22.2996756 C32.2786355,22.0864695 32.5455514,21.960229 32.4844299,21.7610496 C32.5511589,21.707187 32.6588224,21.6808168 32.6784486,21.5809466 C32.6638692,21.3817672 32.410972,21.4216031 32.3717196,21.2156908 C32.2915327,21.102355 32.1580748,21.1158206 32.053215,21.0759847 C31.7986355,20.955916 31.5603178,21.5871183 31.4941495,21.0894504 C31.573215,21.0226832 31.6191963,20.922813 31.5603178,20.8364084 C31.3399439,20.7163397 31.3203178,20.4099962 31.0803178,20.2910496 C30.7539626,20.2983435 30.4539626,20.1513435 30.1354579,20.2248435 C29.9285421,20.1782748 29.6874206,20.0385687 29.528729,20.2579466 C29.515271,20.4234618 29.4289159,20.5631679 29.4025607,20.7236336 C29.3291028,20.6832366 29.2623738,20.6102977 29.222,20.5300649 C29.8091028,19.8786641 30.4814393,19.2199695 31.0937757,18.5820344 L31.1262991,18.5018015 C31.433028,18.881084 31.7924673,19.2603664 32.0190093,19.6856565 C32.0717196,19.9381374 31.5799439,20.204084 32.0061121,20.3707214 Z M28.2373271,26.7416565 C28.2238692,26.9812328 27.8846168,26.9745 27.7248037,27.1405763 C27.6317196,27.1069122 27.7051776,27.0137748 27.7248037,26.9615954 C27.8846168,26.8347939 28.0040561,26.7085534 28.2373271,26.7416565 Z M27.6777009,21.2353282 C27.5711589,21.2751641 27.4573271,21.3481031 27.3390093,21.2953626 C27.2240561,21.175855 27.0793832,21.0159504 26.8920935,20.9957519 C26.7653645,21.029416 26.6795701,21.1887595 26.526486,21.102355 C26.7653645,20.8425802 27.1926542,20.7960115 27.3720935,20.4374885 C27.4248037,20.2646794 27.4719065,20.0851374 27.4522804,19.9050344 C27.3849907,19.8253626 27.2857383,19.7524237 27.1977009,19.8253626 C27.0653645,20.0447405 26.759757,20.0913092 26.6190093,20.3241527 L26.1412523,20.1648092 C26.0610654,19.7260534 26.1737757,19.167229 26.0470467,18.7873855 C26.2993832,18.881084 26.5791963,18.8872557 26.8461121,18.9478511 C27.5240561,19.1200992 28.144243,19.4399084 28.7431215,19.8118969 C28.6029346,19.8584656 28.4565794,20.0251031 28.3433084,20.131145 C28.3382617,20.2512137 28.4705981,20.2175496 28.5233084,20.2910496 L28.6500374,20.2444809 C28.444243,20.7629084 27.7522804,20.6832366 27.6777009,21.2353282 Z M31.3993832,31.5432824 C31.0528411,31.2234733 31.6124673,30.9569656 31.7201308,30.6640878 C31.6595701,30.3532557 31.3124673,30.1793244 31.0477944,30.0929198 C30.9205047,30.0199809 30.9608785,29.8606374 30.9535888,29.7540344 C31.0735888,29.6339656 31.193028,29.5346565 31.2535888,29.3747519 L31.3006916,29.5009924 L32.1188224,30.3454008 C32.1188224,30.5389695 32.1513458,30.7044847 32.337514,30.7908893 C32.4317196,30.8312863 32.5326542,30.7510534 32.6117196,30.7779847 L32.5646168,30.7779847 C32.210785,31.164 31.7801308,31.4563168 31.3791963,31.7688321 L31.2861121,31.8950725 C31.2401308,31.7626603 31.5120935,31.7020649 31.3993832,31.5432824 Z M32.9644299,29.6277939 C32.7978879,29.4678893 32.7911589,29.155374 32.4984486,29.1621069 C32.3991963,29.1492023 32.3582617,29.2417786 32.3582617,29.3214504 C32.3520935,29.3680191 32.3717196,29.4213206 32.337514,29.4549847 L31.7319065,28.9225305 C32.0190093,28.7760916 32.2315327,28.3900763 32.4519065,28.1112252 C33.0115327,27.333584 33.3378879,26.4611221 33.6171402,25.5718282 C33.7091028,25.6442061 33.8296636,25.6509389 33.9216262,25.5914656 C34.0091028,25.5179656 34.0276075,25.3782595 33.968729,25.2851221 L33.7483551,25.0461069 C33.7747103,24.647187 33.8829346,24.2544389 33.8425607,23.8487863 L33.9883551,23.895355 C34.6068598,23.8886221 35.2377009,23.928458 35.8360187,23.8689847 L35.7429346,23.9744656 C35.5892897,26.3752786 34.7526542,28.5438092 33.0771402,30.3128588 C33.1505981,30.0794542 32.9302243,29.8808359 32.9644299,29.6277939 Z M38.3745234,22.4320878 C38.4076075,22.6581985 38.3548972,22.9308779 38.4805047,23.1171527 L36.5649907,23.1502557 C36.5212523,23.1844809 36.4679813,23.2102901 36.4062991,23.2102901 L36.4601308,23.1306183 C36.4208785,21.6275153 36.0283551,20.278145 35.4502243,19.0000305 C35.4294766,18.4288626 34.8777009,18.0439695 34.6399439,17.5446183 C34.2148972,17.2517405 34.0876075,16.7327519 33.6025607,16.4735382 C33.5094766,16.3736679 33.4702243,16.2075916 33.3300374,16.1744885 L33.5565794,16.1279198 C34.0147103,15.6555 34.5137757,15.1971069 34.8777009,14.7044885 C36.8599439,16.9397863 38.1227477,19.4730115 38.3745234,22.4320878 Z M37.7492897,17.737626 C35.5696636,13.0953435 30.7803178,10.1502939 25.7616262,10.143 C23.5691028,10.1828359 21.5543364,10.6681603 19.7134019,11.5793359 C16.4363925,13.1419122 13.7588224,16.5403053 12.8683551,19.9050344 C11.3986355,25.5718282 13.3870467,31.3093168 18.244243,34.6415038 C21.7399439,37.1483588 27.3120935,37.6275115 31.2401308,35.7058511 C34.7251776,34.242584 37.7162056,30.6444504 38.6274206,27.0872748 C39.5246168,24.0748969 39.1315327,20.4043855 37.7492897,17.737626 Z" id="Fill-27" fill="#FEFEFE"></path>
            <path d="M31.6531776,13.5546344 C31.6464486,13.6275733 31.6599065,13.6943405 31.6991589,13.7470809 C31.9784112,13.8469511 32.0126168,14.2531649 32.3714953,14.1600275 C32.4791589,14.0393977 32.3036449,13.9125962 32.3378505,13.7605466 C32.2918692,13.6208405 32.1713084,13.5608061 32.0384112,13.5204092 C31.8982243,13.6545046 31.7804673,13.4020237 31.6531776,13.5546344" id="Fill-28" fill="#FEFEFE"></path>
            <path d="M26.3324112,12.4240248 C26.6856822,12.8762462 27.2985794,12.6232042 27.7376449,12.5367996 C28.0578318,12.6697729 28.3645607,12.5098683 28.6028785,12.31125 L28.6028785,12.2641202 C28.3763364,11.9448721 27.9512897,11.8983034 27.5638131,11.8652004 L26.6049346,12.2775859 C26.5264299,12.2444828 26.3733458,12.2040859 26.3200748,12.31125 C26.2791402,12.3443531 26.3200748,12.3909218 26.3324112,12.4240248" id="Fill-29" fill="#FEFEFE"></path>
        </g>
    </g>
</svg>