<?xml version="1.0" encoding="UTF-8"?>
<svg width="222px" height="102px" viewBox="0 0 222 102" version="1.1" xmlns="http://www.w3.org/2000/svg" xmlns:xlink="http://www.w3.org/1999/xlink">
    <!-- Generator: Sketch 49.3 (51167) - http://www.bohemiancoding.com/sketch -->
    <title>Artboard</title>
    <desc>Created with Sketch.</desc>
    <defs></defs>
    <g id="Artboard" stroke="none" stroke-width="1" fill="none" fill-rule="evenodd">
        <g id="techo" transform="translate(45.000000, 27.000000)" fill="#8E9BA6">
            <path d="M13.4794893,41.7921485 L13.4794893,45.8033564 C13.4794893,47.690099 12.4074155,48.8078812 10.5847439,48.8078812 C8.75038229,48.8078812 7.67830849,47.690099 7.67830849,45.8033564 L7.67830849,41.7921485 L8.5438583,41.7921485 L8.5438583,45.8455644 C8.5438583,47.1792376 9.25256679,48.0030198 10.5847439,48.0030198 C11.9154598,48.0030198 12.611017,47.1792376 12.611017,45.8455644 L12.611017,41.7921485 L13.4794893,41.7921485 Z" id="Fill-1"></path>
            <polygon id="Fill-3" points="20.8761166 41.7921485 20.8761166 48.6623366 20.0675557 48.6623366 16.1431129 43.5013267 16.0081904 43.2810693 16.0262125 43.5653663 16.0262125 48.6623366 15.1708915 48.6623366 15.1708915 41.7921485 15.9692236 41.7921485 19.9009727 46.9245347 20.0285889 47.151099 20.011541 46.8643762 20.011541 41.7921485"></polygon>
            <polygon id="Fill-5" points="31.3141993 41.7921485 31.3141993 42.5863366 29.0127232 42.5863366 29.0127232 48.6623366 28.1583764 48.6623366 28.1583764 42.5863366 25.8763838 42.5863366 25.8763838 41.7921485"></polygon>
            <polygon id="Fill-7" points="37.1896605 47.8679059 37.1896605 48.6625792 32.4995203 48.6625792 32.4995203 41.7923911 37.1326716 41.7923911 37.1326716 42.5860941 33.358738 42.5860941 33.358738 44.6576782 36.3923026 44.6576782 36.3923026 45.434401 33.358738 45.434401 33.358738 47.8679059"></polygon>
            <path d="M43.5256118,43.6858287 C43.0726229,42.9479178 42.2148664,42.4904228 41.2669993,42.4904228 C39.7219661,42.4904228 38.579752,43.6004426 38.579752,45.228601 C38.579752,46.8528782 39.7507041,47.953195 41.2669993,47.953195 C42.3147188,47.953195 43.2192354,47.4069178 43.6503055,46.5729475 L44.5085491,46.8072743 C43.9279439,48.0235416 42.7209476,48.7973535 41.2669993,48.7973535 C39.291383,48.7973535 37.6917963,47.296304 37.6917963,45.228601 C37.6917963,43.1536208 39.291383,41.6535416 41.2669993,41.6535416 C42.6274273,41.6535416 43.7930214,42.3589475 44.4018775,43.4519871 L43.5256118,43.6858287 Z" id="Fill-9"></path>
            <polygon id="Fill-11" points="51.0858509 41.7921485 51.0858509 48.6623366 50.2354007 48.6623366 50.2354007 45.5093564 46.5243011 45.5093564 46.5243011 48.6623366 45.6689801 48.6623366 45.6689801 41.7921485 46.5243011 41.7921485 46.5243011 44.7074059 50.2354007 44.7074059 50.2354007 41.7921485"></polygon>
            <path d="M56.0575749,47.9669248 C57.5957889,47.9669248 58.7565122,46.8462317 58.7565122,45.2282614 C58.7565122,43.587004 57.5957889,42.4905683 56.0575749,42.4905683 C54.5222834,42.4905683 53.3654568,43.587004 53.3654568,45.2282614 C53.3654568,46.8462317 54.5222834,47.9669248 56.0575749,47.9669248 M56.0575749,41.653202 C58.0370878,41.653202 59.6430066,43.1576475 59.6430066,45.2282614 C59.6430066,47.2964495 58.0370878,48.797499 56.0575749,48.797499 C54.0770878,48.797499 52.4852945,47.2964495 52.4852945,45.2282614 C52.4852945,43.1576475 54.0770878,41.653202 56.0575749,41.653202" id="Fill-13"></path>
            <path d="M66.918983,45.391902 C68.0227173,45.391902 68.6286509,44.8635752 68.6286509,43.9907931 C68.6286509,43.0898723 67.9730347,42.5862881 66.918983,42.5862881 L65.6364886,42.5862881 L65.6364886,45.391902 L66.918983,45.391902 Z M66.9292118,41.7921 C68.5468207,41.7921 69.507352,42.6178228 69.507352,43.9907931 C69.507352,45.3666743 68.5468207,46.1972485 66.9292118,46.1972485 L65.6364886,46.1972485 L65.6364886,48.6622881 L64.7792192,48.6622881 L64.7792192,41.7921 L66.9292118,41.7921 Z" id="Fill-15"></path>
            <path d="M74.3898421,46.1973455 L72.9125137,43.2568604 L72.8448089,43.0477614 L72.7771041,43.2568604 L71.295879,46.1973455 L74.3898421,46.1973455 Z M74.785355,46.9915337 L70.9042627,46.9915337 L70.0669638,48.6623851 L69.1229934,48.6623851 L72.5710672,41.792197 L73.1224472,41.792197 L76.5695469,48.6623851 L75.6265506,48.6623851 L74.785355,46.9915337 Z" id="Fill-17"></path>
            <path d="M79.7962893,45.3137446 C80.8683631,45.3137446 81.4231528,44.7538832 81.4231528,43.9514475 C81.4231528,43.1038931 80.821603,42.5862396 79.7962893,42.5862396 L78.4397579,42.5862396 L78.4397579,45.3137446 L79.7962893,45.3137446 Z M81.6097063,48.6622396 L80.0028133,46.108903 C79.9180605,46.1190911 79.8104148,46.1190911 79.7076399,46.1190911 L78.4397579,46.1190911 L78.4397579,48.6622396 L77.5776177,48.6622396 L77.5776177,41.7920515 L79.7076399,41.7920515 C81.3354775,41.7920515 82.3106214,42.6177743 82.3106214,43.9514475 C82.3106214,44.9309624 81.7874923,45.6363683 80.8683631,45.9454079 L82.578031,48.6622396 L81.6097063,48.6622396 Z" id="Fill-19"></path>
            <path d="M88.4325476,46.1973455 L86.954245,43.2568604 L86.8865402,43.0477614 L86.8188354,43.2568604 L85.3376103,46.1973455 L88.4325476,46.1973455 Z M88.8236768,46.9915337 L84.9459941,46.9915337 L84.1057727,48.6623851 L83.1583926,48.6623851 L86.6127985,41.792197 L87.1617432,41.792197 L90.6122524,48.6623851 L89.6643852,48.6623851 L88.8236768,46.9915337 Z" id="Fill-21"></path>
            <path d="M100.625841,43.6005881 C100.145575,42.8379347 99.2551838,42.3629743 98.2722465,42.3629743 C96.6692502,42.3629743 95.4793018,43.505499 95.4793018,45.1787762 C95.4793018,46.856905 96.7052945,47.9848752 98.2722465,47.9848752 C99.3433461,47.9848752 100.284394,47.4206475 100.750534,46.5449545 L101.555199,46.7647267 C100.978003,47.9921525 99.7325269,48.7858554 98.2722465,48.7858554 C96.2600989,48.7858554 94.6400546,47.2721921 94.6400546,45.1787762 C94.6400546,43.0897267 96.2600989,41.5712119 98.2722465,41.5712119 C99.6468,41.5712119 100.825545,42.2848653 101.455346,43.3948851 L100.625841,43.6005881 Z" id="Fill-23"></path>
            <polygon id="Fill-25" points="108.475311 41.7102069 108.475311 48.6517119 107.669672 48.6517119 107.669672 45.4346921 103.830956 45.4346921 103.830956 48.6517119 103.007783 48.6517119 103.007783 41.7102069 103.830956 41.7102069 103.830956 44.6720386 107.669672 44.6720386 107.669672 41.7102069"></polygon>
            <polygon id="Fill-27" points="110.611129 48.6516634 111.430406 48.6516634 111.430406 41.7101584 110.611129 41.7101584"></polygon>
            <polygon id="Fill-29" points="118.132353 47.8854198 118.132353 48.6514693 113.55619 48.6514693 113.55619 41.7099644 114.375467 41.7099644 114.375467 47.8854198"></polygon>
            <polygon id="Fill-30" points="124.265628 47.8854198 124.265628 48.6514693 119.522396 48.6514693 119.522396 41.7099644 124.196949 41.7099644 124.196949 42.473103 120.344108 42.473103 120.344108 44.6155188 123.442942 44.6155188 123.442942 45.3383901 120.344108 45.3383901 120.344108 47.8854198"></polygon>
            <path d="M126.799979,17.4551584 L122.438134,17.4551584 C122.014858,17.4551584 121.672437,17.7957327 121.672437,18.2178119 L121.672437,25.7196634 C121.672437,26.1383465 121.330503,26.4794059 120.906252,26.4794059 L108.681883,26.4794059 C108.261042,26.4794059 107.919596,26.1383465 107.919596,25.7196634 L107.919596,18.2178119 C107.919596,17.7957327 107.577175,17.4551584 107.153898,17.4551584 L103.146651,17.4551584 C102.727271,17.4551584 102.619625,17.2106436 102.908954,16.9054851 L114.44702,4.81509901 C114.734887,4.50848515 115.208821,4.50848515 115.498149,4.81509901 L127.035728,16.9054851 C127.327979,17.2106436 127.220334,17.4551584 126.799979,17.4551584 Z M74.8777063,22.9746931 L67.2397284,23.0275743 C66.9591675,23.0314554 66.5880089,23.2192079 66.4102229,23.4389802 C64.7643631,25.4324554 62.4638613,26.4755248 59.6353594,26.4755248 C57.0362745,26.4755248 54.9150199,25.5105644 53.1732044,23.7722772 C51.4245697,22.0344752 50.5770421,19.8707129 50.5770421,17.2887525 C50.5770421,14.7984851 51.4742524,12.7307822 53.2160679,11.0385842 C55.0100015,9.35220792 57.136614,8.50271287 59.6353594,8.50271287 C62.4360974,8.50271287 64.7794627,9.59138614 66.6201565,11.7197327 C66.8047616,11.939505 67.179817,12.1209505 67.4642745,12.1209505 L74.8777063,12.1209505 L74.8777063,22.9746931 Z M114.458223,0.0145544554 C109.290739,0.0145544554 104.649795,2.25448515 101.455492,5.81013861 L101.455492,1.28273267 C101.455492,0.713168317 100.874887,0.767019802 100.874887,0.767019802 L93.1190347,0.767019802 C92.8345771,0.767019802 92.6061343,1.00086139 92.6061343,1.28612871 L92.6061343,12.8263564 C92.6061343,13.1062871 92.3737948,13.341099 92.0854406,13.341099 L84.2618834,13.341099 C83.9735292,13.341099 83.7387542,13.1062871 83.7387542,12.8263564 L83.7387542,1.28612871 C83.7387542,1.00086139 83.5073889,0.767019802 83.2258539,0.767019802 L75.3954775,0.767019802 C75.1061491,0.767019802 74.8777063,1.00086139 74.8777063,1.28612871 L74.8777063,7.83223762 C73.5041269,5.83924752 72.0647911,4.26930693 70.5294996,3.15006931 C67.6522893,1.03239604 64.0668576,0 59.7288797,0 C54.7791232,0 50.5263852,1.64222772 46.9901491,4.88835644 C44.5084517,7.16515842 42.8664886,9.79708911 42.0730273,12.7948218 C42.0014258,13.0679604 41.7198908,13.2945248 41.434459,13.2945248 L31.9942672,13.2945248 C31.7098096,13.2945248 31.4779572,13.0640792 31.4779572,12.7802673 L31.4779572,9.0009604 C31.4779572,8.71520792 31.7098096,8.48524752 31.9942672,8.48524752 L42.67409,8.48524752 C42.9585476,8.48524752 43.1908871,8.25431683 43.1908871,7.96856436 L43.1699424,1.28612871 C43.1699424,1.00086139 42.9346804,0.755861386 42.6492487,0.755861386 L0.520304059,0.755861386 C0.231949815,0.755861386 9.74169742e-05,0.986792079 9.74169742e-05,1.27060396 L9.74169742e-05,7.96856436 C9.74169742e-05,8.25431683 0.231949815,8.48524752 0.520304059,8.48524752 L7.28250332,8.48524752 C7.56501255,8.48524752 7.79637786,8.71520792 7.79637786,9.0009604 L7.79637786,33.5019307 C7.79637786,33.7896238 8.03115277,34.0200693 8.31561033,34.0200693 L16.1002007,34.0200693 C16.3846583,34.0200693 16.6169978,33.7896238 16.6169978,33.5019307 L16.6169978,9.0009604 C16.6169978,8.71520792 16.8493373,8.48524752 17.1362303,8.48524752 L22.2725402,8.48524752 C22.5569978,8.48524752 22.7883631,8.71520792 22.7883631,9.0009604 L22.7883631,33.5198812 C22.7883631,33.8070891 23.0197284,34.0380198 23.3046731,34.0380198 L42.6492487,34.0380198 C42.9346804,34.0380198 43.1660458,33.8070891 43.1660458,33.5198812 L43.1660458,26.7520594 C43.1660458,26.4687327 42.9346804,26.237802 42.6492487,26.237802 L31.9942672,26.237802 C31.7098096,26.237802 31.4779572,26.0034752 31.4779572,25.7196634 L31.4779572,21.4207624 C31.4779572,21.1369505 31.7098096,20.9026238 31.9942672,20.9026238 L41.3497063,20.9026238 C41.6341638,20.9026238 41.9093668,21.1335545 41.9692782,21.4100891 C42.6950347,24.6309901 44.3019277,27.4438812 46.8021343,29.831297 C50.2925845,33.1225446 54.5867247,34.7652574 59.679197,34.7652574 C63.9738244,34.7652574 67.5134701,33.7818614 70.341972,31.7607327 C71.9581196,30.576 73.4710052,28.9444455 74.8777063,26.8481188 L74.8777063,33.5019307 C74.8777063,33.7896238 75.1061491,34.0200693 75.3954775,34.0200693 L83.2258539,34.0200693 C83.5073889,34.0200693 83.7387542,33.7896238 83.7387542,33.5019307 L83.7387542,21.938901 C83.7387542,21.6550891 83.9735292,21.4207624 84.2618834,21.4207624 L92.0854406,21.4207624 C92.3737948,21.4207624 92.6061343,21.6550891 92.6061343,21.938901 L92.6061343,33.5019307 C92.6061343,33.7896238 92.8345771,34.0200693 93.1190347,34.0200693 L101.064363,34.0200693 C101.064363,34.0200693 101.444776,34.0593663 101.455492,33.6688218 L101.455492,28.9546337 C104.649795,32.5088317 109.290739,34.7473069 114.458223,34.7473069 C124.083994,34.7473069 131.893426,26.9752277 131.893426,17.3814158 C131.893426,7.79148515 124.083994,0.0145544554 114.458223,0.0145544554 Z" id="Fill-31"></path>
        </g>
    </g>
</svg>