<?xml version="1.0" encoding="UTF-8"?>
<svg width="311px" height="57px" viewBox="0 0 311 57" version="1.1" xmlns="http://www.w3.org/2000/svg" xmlns:xlink="http://www.w3.org/1999/xlink">
    <!-- Generator: Sketch 52.6 (67491) - http://www.bohemiancoding.com/sketch -->
    <title>Group 2</title>
    <desc>Created with Sketch.</desc>
    <g id="Page-1" stroke="none" stroke-width="1" fill="none" fill-rule="evenodd">
        <g id="Group-2" transform="translate(1.000000, 0.000000)">
            <g id="Group">
                <polygon id="Shape" fill="#17BBC2" points="142.974138 32.4444444 155.445402 32.4444444 155.445402 28 142.974138 28"></polygon>
                <path d="M166.275805,17.76 L166.275805,23.1573333 C166.999736,21.9579199 168.153909,21.3582222 169.738362,21.3582222 C171.049633,21.3582222 172.11161,21.794366 172.924325,22.6666667 C173.73704,23.5389673 174.143391,24.7247332 174.143391,26.224 L174.143391,32.8888889 L170.660345,32.8888889 L170.660345,26.6942222 C170.660345,25.9582186 170.465706,25.3891872 170.076422,24.9871111 C169.687139,24.585035 169.151029,24.384 168.468075,24.384 C167.785122,24.384 167.24901,24.585035 166.859727,24.9871111 C166.470444,25.3891872 166.275805,25.9582186 166.275805,26.6942222 L166.275805,32.8888889 L162.77227,32.8888889 L162.77227,17.76 L166.275805,17.76 Z M181.97,33.032 C180.303593,33.032 178.937706,32.4970424 177.872299,31.4271111 C176.806891,30.3571798 176.274195,28.9363052 176.274195,27.1644444 C176.274195,25.3925837 176.803477,23.9819312 177.862055,22.9324444 C178.920632,21.8829577 180.289935,21.3582222 181.97,21.3582222 C183.650065,21.3582222 185.043271,21.8761429 186.149655,22.912 C187.25604,23.9478571 187.809224,25.3857685 187.809224,27.2257778 C187.809224,27.621039 187.781907,27.9890353 187.72727,28.3297778 L179.859684,28.3297778 C179.927979,28.8340766 180.153351,29.2463688 180.535805,29.5666667 C180.918258,29.8869645 181.331439,30.0471111 181.775359,30.0471111 C182.219279,30.0471111 182.550506,30.0028153 182.769052,29.9142222 C182.987597,29.8256292 183.148088,29.7370375 183.250532,29.6484444 C183.352975,29.5598514 183.486149,29.4133343 183.650057,29.2088889 L187.440431,29.2088889 C187.112613,30.3537835 186.456988,31.2771817 185.473534,31.9791111 C184.490081,32.6810405 183.322249,33.032 181.97,33.032 Z M183.465661,24.844 C183.055889,24.5100724 182.570999,24.3431111 182.010977,24.3431111 C181.450955,24.3431111 180.979724,24.5100724 180.59727,24.844 C180.214817,25.1779276 179.975786,25.610664 179.880172,26.1422222 L184.16227,26.1422222 C184.107634,25.610664 183.875433,25.1779276 183.465661,24.844 Z M193.566494,21.4808889 L193.566494,23.6071111 C194.386039,22.1078444 195.478748,21.3582222 196.844655,21.3582222 L196.844655,24.9155556 L195.984138,24.9155556 C195.178253,24.9155556 194.573848,25.1063684 194.170905,25.488 C193.767962,25.8696316 193.566494,26.5374767 193.566494,27.4915556 L193.566494,32.8888889 L190.06296,32.8888889 L190.06296,21.4808889 L193.566494,21.4808889 Z M202.253621,21.4808889 L202.253621,23.6071111 C203.073165,22.1078444 204.165874,21.3582222 205.531782,21.3582222 L205.531782,24.9155556 L204.671264,24.9155556 C203.865379,24.9155556 203.260975,25.1063684 202.858032,25.488 C202.455089,25.8696316 202.253621,26.5374767 202.253621,27.4915556 L202.253621,32.8888889 L198.750086,32.8888889 L198.750086,21.4808889 L202.253621,21.4808889 Z M215.161379,27.1848889 C215.161379,26.2853288 214.90869,25.5936321 214.403305,25.1097778 C213.897919,24.6259235 213.317417,24.384 212.661782,24.384 C212.006146,24.384 211.425644,24.6293308 210.920259,25.12 C210.414873,25.6106692 210.162184,26.3057732 210.162184,27.2053333 C210.162184,28.1048934 210.414873,28.7965901 210.920259,29.2804444 C211.425644,29.7642988 212.006146,30.0062222 212.661782,30.0062222 C213.317417,30.0062222 213.897919,29.7608914 214.403305,29.2702222 C214.90869,28.7795531 215.161379,28.084449 215.161379,27.1848889 Z M206.597184,27.2053333 C206.597184,25.5016211 207.102562,24.1011907 208.113333,23.004 C209.124104,21.9068093 210.356818,21.3582222 211.811509,21.3582222 C213.2662,21.3582222 214.382813,21.8965872 215.161379,22.9733333 L215.161379,21.4808889 L218.664914,21.4808889 L218.664914,32.8888889 L215.161379,32.8888889 L215.161379,31.2328889 C214.314517,32.4323023 213.180831,33.032 211.760287,33.032 C210.339744,33.032 209.124104,32.4868203 208.113333,31.3964444 C207.102562,30.3060686 206.597184,28.9090455 206.597184,27.2053333 Z M225.241724,21.4808889 L225.241724,23.1573333 C225.965655,21.9579199 227.119829,21.3582222 228.704282,21.3582222 C229.551144,21.3582222 230.305797,21.5490351 230.968261,21.9306667 C231.630726,22.3122982 232.146349,22.857478 232.515144,23.5662222 C232.938575,22.898367 233.488344,22.3634094 234.164468,21.9613333 C234.840593,21.5592572 235.595245,21.3582222 236.428448,21.3582222 C237.821674,21.3582222 238.928042,21.7875513 239.747586,22.6462222 C240.567131,23.5048932 240.976897,24.6974739 240.976897,26.224 L240.976897,32.8888889 L237.493851,32.8888889 L237.493851,26.6942222 C237.493851,25.9582186 237.299212,25.3891872 236.909928,24.9871111 C236.520645,24.585035 235.984535,24.384 235.30158,24.384 C234.618627,24.384 234.082516,24.585035 233.693233,24.9871111 C233.303949,25.3891872 233.10931,25.9582186 233.10931,26.6942222 L233.10931,32.8888889 L229.626264,32.8888889 L229.626264,26.6942222 C229.626264,25.9582186 229.431625,25.3891872 229.042342,24.9871111 C228.653059,24.585035 228.116948,24.384 227.433994,24.384 C226.751041,24.384 226.21493,24.585035 225.825647,24.9871111 C225.436363,25.3891872 225.241724,25.9582186 225.241724,26.6942222 L225.241724,32.8888889 L221.73819,32.8888889 L221.73819,21.4808889 L225.241724,21.4808889 Z M245.689253,20.7857778 C245.115572,20.7857778 244.630682,20.5881501 244.234569,20.1928889 C243.838456,19.7976276 243.640402,19.3103732 243.640402,18.7311111 C243.640402,18.151849 243.838456,17.6645946 244.234569,17.2693333 C244.630682,16.8740721 245.115572,16.6764444 245.689253,16.6764444 C246.262934,16.6764444 246.747824,16.8740721 247.143937,17.2693333 C247.54005,17.6645946 247.738103,18.151849 247.738103,18.7311111 C247.738103,19.3103732 247.54005,19.7976276 247.143937,20.1928889 C246.747824,20.5881501 246.262934,20.7857778 245.689253,20.7857778 Z M243.94773,32.8888889 L243.94773,21.4808889 L247.451264,21.4808889 L247.451264,32.8888889 L243.94773,32.8888889 Z M255.380316,33.032 C253.713909,33.032 252.348023,32.4970424 251.282615,31.4271111 C250.217207,30.3571798 249.684511,28.9363052 249.684511,27.1644444 C249.684511,25.3925837 250.213793,23.9819312 251.272371,22.9324444 C252.330949,21.8829577 253.700251,21.3582222 255.380316,21.3582222 C257.060382,21.3582222 258.453587,21.8761429 259.559971,22.912 C260.666356,23.9478571 261.21954,25.3857685 261.21954,27.2257778 C261.21954,27.621039 261.192223,27.9890353 261.137586,28.3297778 L253.27,28.3297778 C253.338295,28.8340766 253.563667,29.2463688 253.946121,29.5666667 C254.328574,29.8869645 254.741755,30.0471111 255.185675,30.0471111 C255.629595,30.0471111 255.960822,30.0028153 256.179368,29.9142222 C256.397913,29.8256292 256.558404,29.7370375 256.660848,29.6484444 C256.763291,29.5598514 256.896465,29.4133343 257.060374,29.2088889 L260.850747,29.2088889 C260.522929,30.3537835 259.867304,31.2771817 258.883851,31.9791111 C257.900397,32.6810405 256.732565,33.032 255.380316,33.032 Z M256.875977,24.844 C256.466205,24.5100724 255.981315,24.3431111 255.421293,24.3431111 C254.861271,24.3431111 254.39004,24.5100724 254.007586,24.844 C253.625133,25.1779276 253.386102,25.610664 253.290489,26.1422222 L257.572586,26.1422222 C257.51795,25.610664 257.285749,25.1779276 256.875977,24.844 Z M266.97681,21.4808889 L266.97681,23.1573333 C267.700741,21.9579199 268.854915,21.3582222 270.439368,21.3582222 C271.750638,21.3582222 272.812616,21.794366 273.62533,22.6666667 C274.438045,23.5389673 274.844397,24.7247332 274.844397,26.224 L274.844397,32.8888889 L271.361351,32.8888889 L271.361351,26.6942222 C271.361351,25.9582186 271.166712,25.3891872 270.777428,24.9871111 C270.388145,24.585035 269.852035,24.384 269.16908,24.384 C268.486127,24.384 267.950016,24.585035 267.560733,24.9871111 C267.171449,25.3891872 266.97681,25.9582186 266.97681,26.6942222 L266.97681,32.8888889 L263.473276,32.8888889 L263.473276,21.4808889 L266.97681,21.4808889 Z M282.671006,29.9244444 L283.920805,29.9244444 L283.920805,32.8888889 L282.138305,32.8888889 C280.854351,32.8888889 279.86067,32.6060769 279.157227,32.0404444 C278.453784,31.474812 278.102069,30.5037106 278.102069,29.1271111 L278.102069,24.384 L277.036667,24.384 L277.036667,21.4808889 L278.102069,21.4808889 L278.102069,18.7004444 L281.605603,18.7004444 L281.605603,21.4808889 L283.900316,21.4808889 L283.900316,24.384 L281.605603,24.384 L281.605603,29.1271111 C281.605603,29.6586693 281.960734,29.9244444 282.671006,29.9244444 Z M294.042126,27.1848889 C294.042126,26.2853288 293.789437,25.5936321 293.284052,25.1097778 C292.778666,24.6259235 292.198164,24.384 291.542529,24.384 C290.886893,24.384 290.306391,24.6293308 289.801006,25.12 C289.29562,25.6106692 289.042931,26.3057732 289.042931,27.2053333 C289.042931,28.1048934 289.29562,28.7965901 289.801006,29.2804444 C290.306391,29.7642988 290.886893,30.0062222 291.542529,30.0062222 C292.198164,30.0062222 292.778666,29.7608914 293.284052,29.2702222 C293.789437,28.7795531 294.042126,28.084449 294.042126,27.1848889 Z M285.477931,27.2053333 C285.477931,25.5016211 285.983309,24.1011907 286.99408,23.004 C288.004851,21.9068093 289.237565,21.3582222 290.692256,21.3582222 C292.146947,21.3582222 293.26356,21.8965872 294.042126,22.9733333 L294.042126,21.4808889 L297.545661,21.4808889 L297.545661,32.8888889 L294.042126,32.8888889 L294.042126,31.2328889 C293.195264,32.4323023 292.061578,33.032 290.641034,33.032 C289.220491,33.032 288.004851,32.4868203 286.99408,31.3964444 C285.983309,30.3060686 285.477931,28.9090455 285.477931,27.2053333 Z M299.840374,24.9155556 C299.840374,23.906958 300.270628,23.0619293 301.131149,22.3804444 C301.991671,21.6989596 303.156089,21.3582222 304.62444,21.3582222 C306.09279,21.3582222 307.277697,21.6921448 308.179195,22.36 C309.080694,23.0278552 309.558754,23.9410312 309.613391,25.0995556 L306.027902,25.0995556 C305.986925,24.7042943 305.850336,24.4351118 305.618132,24.292 C305.385928,24.1488882 305.037627,24.0773333 304.573218,24.0773333 C303.658061,24.0773333 303.200489,24.356738 303.200489,24.9155556 C303.200489,25.4198544 303.760502,25.7674065 304.880546,25.9582222 C306.014249,26.149038 307.045493,26.4420721 307.97431,26.8373333 C308.452378,27.0281491 308.8519,27.3450348 309.172888,27.788 C309.493876,28.2309652 309.654368,28.7727375 309.654368,29.4133333 C309.654368,30.4764498 309.196795,31.34533 308.281638,32.02 C307.366481,32.69467 306.212306,33.032 304.81908,33.032 C303.425855,33.032 302.264851,32.7151143 301.336034,32.0813333 C300.407217,31.4475524 299.901839,30.5105247 299.819885,29.2702222 L303.405374,29.2702222 C303.500987,29.9653368 303.992706,30.3128889 304.880546,30.3128889 C305.290318,30.3128889 305.628376,30.2174824 305.894727,30.0266667 C306.161078,29.8358509 306.294253,29.59052 306.294253,29.2906667 C306.294253,28.9908133 306.072296,28.7522972 305.628376,28.5751111 C305.184456,28.3979251 304.648346,28.2480006 304.020029,28.1253333 C303.391711,28.002666 302.759989,27.8493342 302.124842,27.6653333 C301.489695,27.4813324 300.95017,27.1610393 300.50625,26.7044444 C300.06233,26.2478496 299.840374,25.6515592 299.840374,24.9155556 Z" id="herramientas" fill="#17BBC2" fill-rule="nonzero"></path>
                <path d="M10.5119703,43.1264368 C9.77070462,43.1264368 9.04576045,43.495043 8.62026946,44.1686324 C7.95947761,45.2135449 8.27230532,46.6087239 9.32435852,47.2700868 C9.69884493,47.5096356 10.1177621,47.6244287 10.5314654,47.6244287 C11.1135969,47.6244287 11.6853009,47.3973329 12.1087517,46.9725754 C12.2220951,46.8591407 12.326371,46.7266869 12.413192,46.5863087 C13.0776108,45.5355093 12.7600227,44.1464436 11.7138634,43.4780618 C11.3402836,43.2398715 10.9236335,43.1264368 10.5119703,43.1264368" id="Fill-1" stroke="#17BBC2" stroke-width="0.747599976" fill="#17BBC2"></path>
                <path d="M4.10561597,33.7394636 C3.36438638,33.7394636 2.63970918,34.1082591 2.21478893,34.7808751 C1.55360034,35.8259088 1.86650852,37.2209474 2.91769861,37.8831492 C3.29228146,38.122674 3.71085283,38.2374556 4.12443582,38.2374556 C4.70649038,38.2374556 5.27856817,38.0101562 5.70258143,37.5845358 C5.81754117,37.4713389 5.92048343,37.3400306 6.00732679,37.1996664 C6.67191655,36.1489728 6.35424673,34.7598204 5.30759154,34.0917324 C4.93391568,33.8531132 4.51715826,33.7394636 4.10561597,33.7394636" id="Fill-2" stroke="#17BBC2" stroke-width="0.747599976" fill="#17BBC2"></path>
                <path d="M2.23703758,22.7432954 C1.49567271,22.7432954 0.77153835,23.1114301 0.345990382,23.7843064 C-0.315116636,24.8305247 -0.000886757264,26.2242749 1.05040037,26.8878685 C1.42471027,27.1269524 1.84300329,27.241287 2.25630853,27.241287 C2.83829129,27.241287 3.41052522,27.014429 3.83471288,26.5894665 C3.94852486,26.474679 4.05168113,26.3438169 4.13828705,26.2032193 C4.8037017,25.1522464 4.48629778,23.7632507 3.43977171,23.0949026 C3.06546181,22.8567244 2.64852909,22.743069 2.23703758,22.7432954" id="Fill-3" stroke="#17BBC2" stroke-width="0.747599976" fill="#17BBC2"></path>
                <path d="M4.10516248,11.210728 C3.36415963,11.210728 2.63970918,11.5793341 2.21478893,12.2511122 C1.55360034,13.2973833 1.86650852,14.6923359 2.91769861,15.3548308 C3.2925082,15.5941532 3.71130632,15.7087199 4.12511605,15.7087199 C4.70694387,15.7087199 5.27856817,15.4820769 5.70258143,15.0566402 C5.81754117,14.942979 5.92048343,14.8118838 6.00732679,14.6715055 C6.67191655,13.6204797 6.35424673,12.2302819 5.30759154,11.5630322 C4.93391568,11.3243891 4.51693151,11.210728 4.10516248,11.210728" id="Fill-4" stroke="#17BBC2" stroke-width="0.747599976" fill="#17BBC2"></path>
                <path d="M10.5124237,2.09195403 C9.77093133,2.09218044 9.04598716,2.46078665 8.62026946,3.13301751 C7.95947761,4.17928853 8.27230532,5.57401476 9.32435852,6.23673609 C9.69861831,6.4756056 10.117082,6.58994596 10.5305586,6.58994596 C11.1129169,6.58994596 11.6850742,6.36307653 12.1087517,5.93831902 C12.2220951,5.82443147 12.326371,5.69243067 12.413192,5.55295804 C13.0776108,4.50215858 12.7600227,3.11173431 11.7138634,2.44357899 C11.3405103,2.20561515 10.9238601,2.09195403 10.5124237,2.09195403" id="Fill-5" stroke="#17BBC2" stroke-width="0.747599976" fill="#17BBC2"></path>
                <path d="M39.8489657,50.6036196 C39.1869198,51.6508118 39.5011648,53.0443518 40.5536364,53.7080716 C40.9270574,53.946893 41.3451439,54.0612104 41.7582424,54.0612104 C42.3407067,54.0612104 42.9136484,53.8341603 43.3380833,53.4083564 C43.4505403,53.29585 43.5543818,53.1636493 43.6414454,53.0232993 C44.3057585,51.9727114 43.9883393,50.5836989 42.9417626,49.915678 C42.5681149,49.677083 42.1513888,49.5632184 41.7396507,49.5632184 C40.9984768,49.5634448 40.273854,49.9319768 39.8489657,50.6036196 Z" id="Fill-11" stroke="#17BBC2" stroke-width="0.747599976" fill="#17BBC2"></path>
                <path d="M30.2609412,51.4406133 C29.520219,51.4406133 28.7962747,51.8089375 28.3716121,52.4810668 C27.7106984,53.5274062 28.023357,54.9219217 29.0746973,55.5843165 C29.4494797,55.8240555 29.8680206,55.938605 30.2813468,55.938605 C30.8633589,55.938605 31.4349417,55.7115435 31.858924,55.2873028 C31.9727418,55.172527 32.0772636,55.0414516 32.163874,54.8999626 C32.829549,53.8488692 32.5105419,52.4602396 31.4639629,51.7930908 C31.0900875,51.5544837 30.672907,51.440387 30.2609412,51.4406133" id="Fill-12" stroke="#17BBC2" stroke-width="0.747599976" fill="#17BBC2"></path>
                <path d="M19.3195511,49.5632184 C18.5778789,49.5634448 17.8534392,49.9319768 17.4285252,50.6036196 C16.7673465,51.6508118 17.08025,53.0443518 18.1314245,53.7080716 C18.5057751,53.946893 18.9241136,54.0612104 19.3374636,54.0612104 C19.9201898,54.0612104 20.4927127,53.8341603 20.9164928,53.4083564 C21.0298637,53.29585 21.1341649,53.1636493 21.2212337,53.0232993 C21.8855869,51.9727114 21.567695,50.5836989 20.5226425,49.915678 C20.1485187,49.677083 19.731314,49.5632184 19.3195511,49.5632184" id="Fill-13" stroke="#17BBC2" stroke-width="0.747599976" fill="#17BBC2"></path>
                <path d="M14.9335785,41.4071274 C14.1451699,40.909457 13.9100381,39.864746 14.4054705,39.07967 C14.9006822,38.2948144 15.9414434,38.0625095 16.7254365,38.5626043 C17.5103127,39.063801 17.7489768,40.1063079 17.2502327,40.8933676 C17.1853231,40.9993815 17.1076082,41.0987833 17.0230492,41.1827569 C16.4788242,41.7286956 15.6091681,41.8391175 14.9335785,41.4071274" id="Fill-14" stroke="#F8B126" stroke-width="0.747599976" fill="#F8B126"></path>
                <path d="M10.3951218,34.434501 C9.60675355,33.9366153 9.37251711,32.8921355 9.86924864,32.1070676 C10.3644348,31.3222199 11.4029349,31.088595 12.1879914,31.590007 C12.9730481,32.0900966 13.2114792,33.1325929 12.7127608,33.9207465 C12.6467506,34.0267593 12.5701436,34.1246172 12.4855889,34.2112348 C11.9413919,34.7558454 11.0717805,34.8651643 10.3951218,34.434501" id="Fill-15" stroke="#E8453B" stroke-width="0.747599976" fill="#E8453B"></path>
                <path d="M8.79412425,26.3884896 C8.00539771,25.8905394 7.77156193,24.8448218 8.2668345,24.0596519 C8.76232788,23.2758046 9.80211324,23.0432516 10.5873068,23.5436265 C11.3722796,24.0448832 11.6098691,25.0861921 11.1108428,25.8746684 C11.0461461,25.9793724 10.9695257,26.0787861 10.8840729,26.1651945 C10.3393393,26.7098758 9.47090104,26.8192088 8.79412425,26.3884896" id="Fill-16" stroke="#D3326F" stroke-width="0.747599976" fill="#D3326F"></path>
                <path d="M10.3951218,17.8052584 C9.60675355,17.3074639 9.37251711,16.262955 9.86924864,15.479353 C10.3644348,14.6946492 11.4029349,14.4599652 12.1879914,14.9612853 C12.9730481,15.4623852 13.2114792,16.505572 12.7127608,17.2913776 C12.6467506,17.397371 12.5701436,17.497635 12.4855889,17.5820332 C11.9413919,18.126544 11.0717805,18.2380464 10.3951218,17.8052584" id="Fill-17" stroke="#17BBC2" stroke-width="0.747599976" fill="#17BBC2"></path>
                <path d="M14.9335785,11.3691638 C14.1451699,10.8703522 13.9100381,9.82602053 14.4054705,9.04255147 C14.9006822,8.25776044 15.9414434,8.02333662 16.7254365,8.52435138 C17.5103127,9.02536622 17.7489768,10.0685963 17.2502327,10.8555906 C17.1853231,10.9613457 17.1076082,11.0604911 17.0230492,11.1448748 C16.4788242,11.6903949 15.6091681,11.8005565 14.9335785,11.3691638" id="Fill-18" stroke="#17BBC2" stroke-width="0.747599976" fill="#17BBC2"></path>
                <path d="M37.8877847,46.2344134 C37.0982935,45.736562 36.8645581,44.6906113 37.3596179,43.9058177 C37.856002,43.1234484 38.8940164,42.8898395 39.6788726,43.3898947 C40.4648325,43.88995 40.7032027,44.9334764 40.2037287,45.7217962 C40.138839,45.8264794 40.0622516,45.924551 39.9752905,46.0111627 C39.4323359,46.5555155 38.5629465,46.667251 37.8877847,46.2344134" id="Fill-24" stroke="#17BBC2" stroke-width="0.747599976" fill="#17BBC2"></path>
                <path d="M29.3456327,47.5765808 C28.5582966,47.0777388 28.3231554,46.0322417 28.8183868,45.2485044 C29.313839,44.4638859 30.3535379,44.2305494 31.1386662,44.7315948 C31.9237946,45.2328605 32.1622475,46.2748323 31.6623795,47.0616542 C31.5985713,47.1676361 31.5208533,47.2665673 31.4362908,47.3509562 C30.8909401,47.8976112 30.0212494,48.0071185 29.3456327,47.5765808" id="Fill-25" stroke="#17BBC2" stroke-width="0.747599976" fill="#17BBC2"></path>
                <path d="M21.6072535,46.2344134 C20.8176379,45.736562 20.5828277,44.6906113 21.0780478,43.9058177 C21.5750333,43.1234484 22.6144659,42.8898395 23.3981229,43.3898947 C24.1828834,43.88995 24.4225487,44.9334764 23.9215909,45.7217962 C23.8564884,45.8264794 23.7803516,45.924551 23.6945046,46.0111627 C23.1505129,46.5555155 22.2825536,46.667251 21.6072535,46.2344134" id="Fill-26" stroke="#17BBC2" stroke-width="0.747599976" fill="#17BBC2"></path>
                <path d="M30.4685081,14.5551401 C30.8092983,14.5551401 31.089229,14.6649532 31.3083085,14.8845828 C31.5273879,15.1042124 31.636926,15.3848461 31.636926,15.7264922 C31.636926,16.0681382 31.5273879,16.3487719 31.3083085,16.5684015 C31.089229,16.7880311 30.8092983,16.8978443 30.4685081,16.8978443 C28.8619255,16.8978443 27.4866139,17.471313 26.3425324,18.6182676 C25.1984508,19.7652222 24.6264186,21.1439875 24.6264186,22.7546046 C24.6264186,23.0962507 24.5168805,23.3768844 24.2978011,23.596514 C24.0787216,23.8161436 23.798791,23.9259567 23.4580006,23.9259567 C23.1172104,23.9259567 22.8372797,23.8161436 22.6182003,23.596514 C22.3991208,23.3768844 22.2895828,23.0962507 22.2895828,22.7546046 C22.2895828,21.2904072 22.6547097,19.9238435 23.3849745,18.6548724 C24.1152394,17.3859012 25.113253,16.3853814 26.3790455,15.6532827 C27.6448378,14.921184 29.0079784,14.5551401 30.4685081,14.5551401 Z M30.5152448,9.86973182 C32.86059,9.86973182 35.0226726,10.4470236 37.0015575,11.6016246 C38.9804424,12.7562257 40.5439824,14.3284247 41.6922243,16.318269 C42.8404662,18.3081133 43.4145786,20.4821698 43.4145786,22.8405037 C43.4145786,24.4618584 43.1336299,25.9972091 42.5717244,27.4466018 C42.0098187,28.8959945 41.2158336,30.2102547 40.1897451,31.3894217 C39.3102406,32.3720608 38.4796101,33.6249069 37.6978284,35.1479976 C36.9160467,36.5236924 36.476301,37.5308825 36.3785783,38.169598 L24.6519113,38.169598 C24.5541886,37.5800144 24.1388733,36.5728244 23.405953,35.1479976 C22.5753099,33.6249069 21.720249,32.3720608 20.8407446,31.3894217 C19.8146561,30.2102547 19.020671,28.8959945 18.4587653,27.4466018 C17.8968597,25.9972091 17.6159111,24.4618584 17.6159111,22.8405037 C17.6159111,20.5804337 18.1655932,18.4555084 19.2649737,16.4656642 C20.3643542,14.4758198 21.8912487,12.891338 23.8457029,11.712171 C25.8490186,10.4838721 28.072177,9.86973182 30.5152448,9.86973182 Z M38.5305916,29.9431923 C39.4108042,28.9592516 40.0709537,27.864634 40.51106,26.6593068 C40.9511663,25.4539795 41.1712162,24.211773 41.1712162,22.9326501 C41.1712162,21.0139659 40.6944415,19.2428992 39.7408779,17.6193972 C38.7873143,15.995895 37.5036903,14.7044923 35.8899672,13.7451501 C34.2762442,12.785808 32.4913955,12.3061441 30.5353675,12.3061441 C28.5793397,12.3061441 26.794491,12.785808 25.1807679,13.7451501 C23.5670449,14.7044923 22.3078709,16.0081941 21.403208,17.6562948 C20.498545,19.3043953 20.0462204,21.0631628 20.0462204,22.9326501 C20.0462204,25.58929 20.9264198,27.926114 22.6868448,29.9431923 C23.2736533,30.5827538 23.8849028,31.4190908 24.5206119,32.4522284 C25.2541223,33.6329572 25.8653718,34.7890702 26.3543788,35.920602 L34.8630577,35.920602 C35.3520647,34.7890702 35.9633142,33.6329572 36.6968247,32.4522284 C37.3325337,31.4190908 37.9437833,30.5827538 38.5305916,29.9431923 Z" id="-copy" fill="#111111" fill-rule="nonzero" transform="translate(30.515245, 24.019665) scale(-1, 1) rotate(-180.000000) translate(-30.515245, -24.019665) "></path>
                <path d="M26.9600176,0.482758622 L34.6223971,0.482758622 C35.6555505,0.482758622 36.4930868,1.31849374 36.4930868,2.34942525 L36.4930868,3.10658729 L25.089328,3.10658729 L25.089328,2.34942525 C25.089328,1.31849374 25.9268643,0.482758622 26.9600176,0.482758622 Z" id="Rectangle-Copy-2" fill="#111111"></path>
                <rect id="Rectangle-Copy" fill="#111111" x="25.089328" y="5.3103448" width="11.4037588" height="2.62382865"></rect>
                <g id="Group-2" transform="translate(43.239055, 38.183908)" fill="#17BBC2" stroke="#17BBC2" stroke-width="0.747599976">
                    <path d="M5.9547353,6.53081671 C5.29375462,7.57572924 5.60667172,8.97090827 6.65675801,9.6322712 C7.03180502,9.87181991 7.45084184,9.98661316 7.86466336,9.98661316 C8.44696127,9.98661316 9.01905537,9.75951724 9.44308068,9.33475973 C9.5564565,9.22132507 9.65962842,9.08887138 9.7464742,8.94849307 C10.4122167,7.89769369 10.0947645,6.50862791 9.04807957,5.84024613 C8.67439304,5.60205582 8.25762374,5.48862116 7.84606974,5.48862116 C7.10459227,5.48862116 6.37989441,5.85722738 5.9547353,6.53081671 Z" id="Fill-10"></path>
                    <path d="M1.34774383,3.72407324 C0.55900594,3.22640293 0.325166796,2.181692 0.820446494,1.396616 C1.31683025,0.611760356 2.3555265,0.379455467 3.14073141,0.879550222 C3.92593631,1.38074693 4.16330844,2.42325387 3.66471657,3.21031351 C3.60090212,3.31632747 3.52317655,3.41572924 3.43772258,3.49970284 C2.89298115,4.04564151 2.02475121,4.15606347 1.34774383,3.72407324" id="Fill-23"></path>
                </g>
            </g>
            <path d="M56.8575418,6.49439076 C58.1859482,6.49439076 59.2855571,6.84539751 60.1564013,7.54742142 C61.0272456,8.24944533 61.5905799,9.19864658 61.8464211,10.3950535 L59.1748615,10.3950535 C58.9780605,9.91055813 58.6754836,9.52988889 58.2671215,9.2530344 C57.8587596,8.97617991 57.3741445,8.83775476 56.8132618,8.83775476 C56.0752582,8.83775476 55.4799442,9.10966133 55.027302,9.65348267 C54.5746598,10.197304 54.3483422,10.9240362 54.3483422,11.8337011 C54.3483422,12.7433659 54.5746598,13.4676261 55.027302,14.0065036 C55.4799442,14.5453812 56.0752582,14.8148159 56.8132618,14.8148159 C57.3741445,14.8148159 57.8587596,14.6763908 58.2671215,14.3995363 C58.6754836,14.1226817 58.9780605,13.7469563 59.1748615,13.2723485 L61.8464211,13.2723485 C61.5905799,14.4588678 61.0272456,15.4055972 60.1564013,16.112565 C59.2855571,16.8195327 58.1859482,17.1730113 56.8575418,17.1730113 C55.8440169,17.1730113 54.9535059,16.9480704 54.1859821,16.4981818 C53.4184584,16.0482932 52.8256044,15.4179643 52.4074024,14.6071761 C51.9892004,13.7963879 51.7801024,12.8719054 51.7801024,11.8337011 C51.7801024,10.7954966 51.9892004,9.87101422 52.4074024,9.06022596 C52.8256044,8.24943778 53.4184584,7.6191088 54.1859821,7.16922027 C54.9535059,6.71933173 55.8440169,6.49439076 56.8575418,6.49439076 Z M63.2351081,6.47955938 C63.2351081,6.09394062 63.3728668,5.77506827 63.6483881,5.52293298 C63.9239094,5.2707976 64.2879857,5.14473182 64.740628,5.14473182 C65.1932702,5.14473182 65.5573465,5.2707976 65.8328678,5.52293298 C66.1083892,5.77506827 66.2461478,6.09394062 66.2461478,6.47955938 C66.2461478,6.85529049 66.1083892,7.16921902 65.8328678,7.4213544 C65.5573465,7.67348969 65.1932702,7.79955547 64.740628,7.79955547 C64.2879857,7.79955547 63.9239094,7.67348969 63.6483881,7.4213544 C63.3728668,7.16921902 63.2351081,6.85529049 63.2351081,6.47955938 Z M65.9952278,8.80809191 L65.9952278,17.0840228 L63.4712681,17.0840228 L63.4712681,8.80809191 L65.9952278,8.80809191 Z M76.1365937,8.80809191 L76.1365937,17.0840228 L73.597874,17.0840228 L73.597874,15.5860496 C73.3617129,16.070545 73.0099365,16.456158 72.5425342,16.7429002 C72.0751319,17.0296423 71.5314774,17.1730113 70.9115544,17.1730113 C69.9669098,17.1730113 69.2166174,16.8566108 68.6606547,16.2238005 C68.104692,15.5909902 67.8267148,14.7208892 67.8267148,13.6134711 L67.8267148,8.80809191 L70.3359145,8.80809191 L70.3359145,13.3020114 C70.3359145,13.865608 70.481053,14.3031305 70.7713345,14.6145918 C71.0616158,14.9260531 71.4527519,15.0817814 71.9447543,15.0817814 C72.4564367,15.0817814 72.8598727,14.9186375 73.1550741,14.5923446 C73.4502755,14.2660518 73.597874,13.8013388 73.597874,13.1981915 L73.597874,8.80809191 L76.1365937,8.80809191 Z M81.2152803,8.704272 C81.8450434,8.704272 82.3862378,8.84764089 82.83888,9.13438311 C83.2915223,9.42112524 83.6211589,9.81168196 83.8277999,10.3060651 L83.8277999,6.10877396 L86.3517596,6.10877396 L86.3517596,17.0840228 L83.8277999,17.0840228 L83.8277999,15.5860496 C83.6211589,16.0804327 83.2915223,16.4709894 82.83888,16.7577316 C82.3862378,17.0444738 81.8450434,17.1878427 81.2152803,17.1878427 C80.536317,17.1878427 79.9287031,17.0172831 79.3924205,16.6761588 C78.8561379,16.3350345 78.4330222,15.8431308 78.1230607,15.2004328 C77.8130992,14.5577348 77.6581208,13.8062838 77.6581208,12.9460573 C77.6581208,12.0759432 77.8130992,11.3220204 78.1230607,10.6842662 C78.4330222,10.0465121 78.8561379,9.55708018 79.3924205,9.21595582 C79.9287031,8.87483156 80.536317,8.704272 81.2152803,8.704272 Z M82.0270802,10.9289845 C81.4858776,10.9289845 81.050462,11.1069598 80.7208204,11.4629156 C80.3911787,11.8188714 80.2263604,12.313247 80.2263604,12.9460573 C80.2263604,13.5788676 80.3911787,14.0732433 80.7208204,14.4291991 C81.050462,14.7851548 81.4858776,14.9631301 82.0270802,14.9631301 C82.5584427,14.9631301 82.9938583,14.7802111 83.33334,14.4143676 C83.6728216,14.0485242 83.8425599,13.5590924 83.8425599,12.9460573 C83.8425599,12.3231347 83.6728216,11.8312309 83.33334,11.4703313 C82.9938583,11.1094316 82.5584427,10.9289845 82.0270802,10.9289845 Z M91.4304459,8.704272 C92.0602092,8.704272 92.6014041,8.84764089 93.054046,9.13438311 C93.5066879,9.42112524 93.8412447,9.81168196 94.0577262,10.3060651 L94.0577262,8.80809191 L96.5669259,8.80809191 L96.5669259,17.0840228 L94.0577262,17.0840228 L94.0577262,15.5860496 C93.8412447,16.0804327 93.5066879,16.4709894 93.054046,16.7577316 C92.6014041,17.0444738 92.0602092,17.1878427 91.4304459,17.1878427 C90.7514827,17.1878427 90.1438693,17.0172831 89.6075863,16.6761588 C89.0713038,16.3350345 88.6481881,15.8431308 88.3382266,15.2004328 C88.0282651,14.5577348 87.8732866,13.8062838 87.8732866,12.9460573 C87.8732866,12.0759432 88.0282651,11.3220204 88.3382266,10.6842662 C88.6481881,10.0465121 89.0713038,9.55708018 89.6075863,9.21595582 C90.1438693,8.87483156 90.7514827,8.704272 91.4304459,8.704272 Z M92.242246,10.9289845 C91.701043,10.9289845 91.2656275,11.1069598 90.9359861,11.4629156 C90.6063448,11.8188714 90.4415264,12.313247 90.4415264,12.9460573 C90.4415264,13.5788676 90.6063448,14.0732433 90.9359861,14.4291991 C91.2656275,14.7851548 91.701043,14.9631301 92.242246,14.9631301 C92.7736082,14.9631301 93.2090246,14.7802111 93.5485058,14.4143676 C93.8879879,14.0485242 94.0577262,13.5590924 94.0577262,12.9460573 C94.0577262,12.3231347 93.8879879,11.8312309 93.5485058,11.4703313 C93.2090246,11.1094316 92.7736082,10.9289845 92.242246,10.9289845 Z M101.645612,8.704272 C102.275375,8.704272 102.81657,8.84764089 103.269211,9.13438311 C103.721854,9.42112524 104.051491,9.81168196 104.258132,10.3060651 L104.258132,6.10877396 L106.782091,6.10877396 L106.782091,17.0840228 L104.258132,17.0840228 L104.258132,15.5860496 C104.051491,16.0804327 103.721854,16.4709894 103.269211,16.7577316 C102.81657,17.0444738 102.275375,17.1878427 101.645612,17.1878427 C100.966649,17.1878427 100.359035,17.0172831 99.8227526,16.6761588 C99.2864695,16.3350345 98.8633543,15.8431308 98.5533926,15.2004328 C98.2434309,14.5577348 98.0884522,13.8062838 98.0884522,12.9460573 C98.0884522,12.0759432 98.2434309,11.3220204 98.5533926,10.6842662 C98.8633543,10.0465121 99.2864695,9.55708018 99.8227526,9.21595582 C100.359035,8.87483156 100.966649,8.704272 101.645612,8.704272 Z M102.457412,10.9289845 C101.916209,10.9289845 101.480794,11.1069598 101.151152,11.4629156 C100.82151,11.8188714 100.656692,12.313247 100.656692,12.9460573 C100.656692,13.5788676 100.82151,14.0732433 101.151152,14.4291991 C101.480794,14.7851548 101.916209,14.9631301 102.457412,14.9631301 C102.988775,14.9631301 103.42419,14.7802111 103.763672,14.4143676 C104.103153,14.0485242 104.272892,13.5590924 104.272892,12.9460573 C104.272892,12.3231347 104.103153,11.8312309 103.763672,11.4703313 C103.42419,11.1094316 102.988775,10.9289845 102.457412,10.9289845 Z M111.860778,8.704272 C112.490541,8.704272 113.031736,8.84764089 113.484378,9.13438311 C113.93702,9.42112524 114.271576,9.81168196 114.488058,10.3060651 L114.488058,8.80809191 L116.997258,8.80809191 L116.997258,17.0840228 L114.488058,17.0840228 L114.488058,15.5860496 C114.271576,16.0804327 113.93702,16.4709894 113.484378,16.7577316 C113.031736,17.0444738 112.490541,17.1878427 111.860778,17.1878427 C111.181814,17.1878427 110.574201,17.0172831 110.037918,16.6761588 C109.501636,16.3350345 109.07852,15.8431308 108.768558,15.2004328 C108.458597,14.5577348 108.303619,13.8062838 108.303619,12.9460573 C108.303619,12.0759432 108.458597,11.3220204 108.768558,10.6842662 C109.07852,10.0465121 109.501636,9.55708018 110.037918,9.21595582 C110.574201,8.87483156 111.181814,8.704272 111.860778,8.704272 Z M112.672578,10.9289845 C112.131376,10.9289845 111.695959,11.1069598 111.366318,11.4629156 C111.036677,11.8188714 110.871858,12.313247 110.871858,12.9460573 C110.871858,13.5788676 111.036677,14.0732433 111.366318,14.4291991 C111.695959,14.7851548 112.131376,14.9631301 112.672578,14.9631301 C113.20394,14.9631301 113.639356,14.7802111 113.978838,14.4143676 C114.31832,14.0485242 114.488058,13.5590924 114.488058,12.9460573 C114.488058,12.3231347 114.31832,11.8312309 113.978838,11.4703313 C113.639356,11.1094316 113.20394,10.9289845 112.672578,10.9289845 Z M124.171864,8.71910338 C125.116508,8.71910338 125.8668,9.03550382 126.422763,9.66831413 C126.978726,10.3011244 127.256703,11.1712255 127.256703,12.2786436 L127.256703,17.0840228 L124.732744,17.0840228 L124.732744,12.5752719 C124.732744,12.0215628 124.587605,11.5889842 124.297324,11.2775228 C124.007042,10.9660616 123.620826,10.8103332 123.138664,10.8103332 C122.626981,10.8103332 122.221085,10.9734772 121.920964,11.29977 C121.620843,11.6260628 121.470784,12.0907759 121.470784,12.6939232 L121.470784,17.0840228 L118.946825,17.0840228 L118.946825,8.80809191 L121.470784,8.80809191 L121.470784,10.3208964 C121.706945,9.82651342 122.058721,9.43595662 122.526124,9.14921449 C122.993526,8.86247236 123.542101,8.71910338 124.171864,8.71910338 Z M131.936869,8.80809191 L131.936869,17.0840228 L129.41291,17.0840228 L129.41291,8.80809191 L131.936869,8.80809191 Z M132.79295,6.6871992 L129.23579,8.2148352 L129.23579,6.49439076 L132.79295,4.7739464 L132.79295,6.6871992 Z M137.295996,8.704272 C137.925759,8.704272 138.466954,8.84764089 138.919596,9.13438311 C139.372238,9.42112524 139.706795,9.81168196 139.923276,10.3060651 L139.923276,8.80809191 L142.432475,8.80809191 L142.432475,17.0840228 L139.923276,17.0840228 L139.923276,15.5860496 C139.706795,16.0804327 139.372238,16.4709894 138.919596,16.7577316 C138.466954,17.0444738 137.925759,17.1878427 137.295996,17.1878427 C136.617033,17.1878427 136.009419,17.0172831 135.473137,16.6761588 C134.936854,16.3350345 134.513738,15.8431308 134.203776,15.2004328 C133.893815,14.5577348 133.738837,13.8062838 133.738837,12.9460573 C133.738837,12.0759432 133.893815,11.3220204 134.203776,10.6842662 C134.513738,10.0465121 134.936854,9.55708018 135.473137,9.21595582 C136.009419,8.87483156 136.617033,8.704272 137.295996,8.704272 Z M138.107796,10.9289845 C137.566593,10.9289845 137.131178,11.1069598 136.801536,11.4629156 C136.471895,11.8188714 136.307077,12.313247 136.307077,12.9460573 C136.307077,13.5788676 136.471895,14.0732433 136.801536,14.4291991 C137.131178,14.7851548 137.566593,14.9631301 138.107796,14.9631301 C138.639159,14.9631301 139.074574,14.7802111 139.414056,14.4143676 C139.753537,14.0485242 139.923276,13.5590924 139.923276,12.9460573 C139.923276,12.3231347 139.753537,11.8312309 139.414056,11.4703313 C139.074574,11.1094316 138.639159,10.9289845 138.107796,10.9289845 Z M54.614022,22.2610457 L54.614022,32.7468578 L52.0900624,32.7468578 L52.0900624,22.2610457 L54.614022,22.2610457 Z M61.7886284,24.3819383 C62.7332729,24.3819383 63.4835654,24.6983388 64.039528,25.3311491 C64.5954908,25.9639594 64.8734679,26.8340604 64.8734679,27.9414785 L64.8734679,32.7468578 L62.3495083,32.7468578 L62.3495083,28.2381068 C62.3495083,27.6843979 62.2043697,27.2518191 61.9140883,26.9403579 C61.623807,26.6288965 61.2375909,26.4731682 60.7554285,26.4731682 C60.243746,26.4731682 59.8378501,26.6363122 59.5377287,26.962605 C59.2376072,27.2888978 59.0875488,27.7536108 59.0875488,28.3567582 L59.0875488,32.7468578 L56.5635891,32.7468578 L56.5635891,24.4709268 L59.0875488,24.4709268 L59.0875488,25.9837314 C59.3237099,25.4893484 59.6754863,25.0987916 60.1428886,24.8120494 C60.6102908,24.5253073 61.1588653,24.3819383 61.7886284,24.3819383 Z M71.4133943,30.5666394 L71.4133943,32.7468578 L70.2768745,32.7468578 C69.3125498,32.7468578 68.5622574,32.5070855 68.0259748,32.027534 C67.4896922,31.5479824 67.2215549,30.7545095 67.2215549,29.6470915 L67.2215549,26.6066509 L66.1145551,26.6066509 L66.1145551,24.4709268 L67.2215549,24.4709268 L67.2215549,22.4390227 L69.7455145,22.4390227 L69.7455145,24.4709268 L71.3986343,24.4709268 L71.3986343,26.6066509 L69.7455145,26.6066509 L69.7455145,29.6915858 C69.7455145,30.0178786 69.8119339,30.2452914 69.9447745,30.3738309 C70.0776152,30.5023706 70.3014729,30.5666394 70.6163544,30.5666394 L71.4133943,30.5666394 Z M80.8610403,28.3864211 C80.8610403,28.5940619 80.8364406,28.8214747 80.7872404,29.0686662 L75.0751211,29.0686662 C75.1046412,29.6915889 75.2620796,30.1389988 75.547441,30.4109095 C75.8328025,30.6828202 76.1968787,30.8187735 76.6396809,30.8187735 C77.0136027,30.8187735 77.3235596,30.7248421 77.5695608,30.5369765 C77.8155619,30.349111 77.9779203,30.1068669 78.0566407,29.8102371 L80.7282003,29.8102371 C80.6199598,30.3936091 80.3838022,30.9151754 80.0197204,31.3749516 C79.6556386,31.8347278 79.1931633,32.195622 78.6322806,32.4576451 C78.0713979,32.7196681 77.4465642,32.8506777 76.7577609,32.8506777 C75.9508769,32.8506777 75.2350242,32.680118 74.6101812,32.3389938 C73.9853381,31.9978694 73.495803,31.5059657 73.1415613,30.8632677 C72.7873196,30.2205698 72.6102015,29.4691188 72.6102015,28.6088923 C72.6102015,27.7387781 72.7848596,26.9848553 73.1341814,26.3471012 C73.4835031,25.709347 73.9730381,25.2199151 74.6028012,24.8787908 C75.2325642,24.5376665 75.9508769,24.3671069 76.7577609,24.3671069 C77.5744848,24.3671069 78.2927976,24.5351947 78.9127206,24.8713751 C79.5326436,25.2075556 80.0123387,25.6796844 80.3518204,26.2877755 C80.691302,26.8958666 80.8610403,27.5954082 80.8610403,28.3864211 Z M78.3075607,28.0008042 C78.3174007,27.4569828 78.1722622,27.0491229 77.8721407,26.7772123 C77.5720192,26.5053016 77.200563,26.3693483 76.7577609,26.3693483 C76.2952786,26.3693483 75.9115225,26.5077734 75.606481,26.7846279 C75.3014396,27.0614825 75.1292413,27.4668705 75.0898811,28.0008042 L78.3075607,28.0008042 Z M84.906527,21.7716089 L84.906527,32.7468578 L82.3825673,32.7468578 L82.3825673,21.7716089 L84.906527,21.7716089 Z M86.6199341,22.1423943 C86.6199341,21.7567756 86.7576927,21.4379033 87.033214,21.1857679 C87.3087353,20.9336325 87.6728117,20.8075668 88.1254538,20.8075668 C88.578096,20.8075668 88.9421723,20.9336325 89.2176936,21.1857679 C89.493215,21.4379033 89.6309734,21.7567756 89.6309734,22.1423943 C89.6309734,22.5181254 89.493215,22.832054 89.2176936,23.0841893 C88.9421723,23.3363247 88.578096,23.4623905 88.1254538,23.4623905 C87.6728117,23.4623905 87.3087353,23.3363247 87.033214,23.0841893 C86.7576927,22.832054 86.6199341,22.5181254 86.6199341,22.1423943 Z M89.3800534,24.4709268 L89.3800534,32.7468578 L86.8560941,32.7468578 L86.8560941,24.4709268 L89.3800534,24.4709268 Z M94.4587406,24.3671069 C95.088503,24.3671069 95.6296979,24.5104758 96.0823398,24.797218 C96.5349826,25.0839602 96.8695385,25.474517 97.08602,25.9689 L97.08602,24.4709268 L99.5952197,24.4709268 L99.5952197,32.7023635 C99.5952197,33.4736011 99.4476214,34.1681988 99.1524195,34.7861776 C98.8572184,35.4041564 98.4045828,35.8960602 97.7945001,36.2619036 C97.1844165,36.6277471 96.4267445,36.8106661 95.5214598,36.8106661 C94.2816139,36.8106661 93.2902437,36.5165126 92.5473207,35.9281968 C91.8043968,35.3398809 91.3591415,34.5414643 91.2115405,33.5329228 L93.7059805,33.5329228 C93.7847009,33.8691033 93.9642791,34.1311224 94.2447204,34.318988 C94.5251617,34.5068535 94.8916975,34.6007849 95.3443403,34.6007849 C95.8658627,34.6007849 96.2865184,34.4500004 96.60632,34.1484267 C96.9261215,33.846853 97.08602,33.3648368 97.08602,32.7023635 L97.08602,31.2488846 C96.8695385,31.7432676 96.5349826,32.1338244 96.0823398,32.4205666 C95.6296979,32.7073087 95.088503,32.8506777 94.4587406,32.8506777 C93.7797774,32.8506777 93.1721631,32.680118 92.6358809,32.3389938 C92.0995979,31.9978694 91.6764826,31.5059657 91.3665209,30.8632677 C91.0565592,30.2205698 90.9015806,29.4691188 90.9015806,28.6088923 C90.9015806,27.7387781 91.0565592,26.9848553 91.3665209,26.3471012 C91.6764826,25.709347 92.0995979,25.2199151 92.6358809,24.8787908 C93.1721631,24.5376665 93.7797774,24.3671069 94.4587406,24.3671069 Z M95.2705398,26.5918196 C94.7293377,26.5918196 94.2939222,26.7697948 93.9642799,27.1257506 C93.6346386,27.4817063 93.4698201,27.976082 93.4698201,28.6088923 C93.4698201,29.2417026 93.6346386,29.7360782 93.9642799,30.092034 C94.2939222,30.4479898 94.7293377,30.6259651 95.2705398,30.6259651 C95.8019029,30.6259651 96.2373184,30.443046 96.5767996,30.0772026 C96.9162817,29.7113591 97.08602,29.2219273 97.08602,28.6088923 C97.08602,27.9859696 96.9162817,27.4940659 96.5767996,27.1331662 C96.2373184,26.7722667 95.8019029,26.5918196 95.2705398,26.5918196 Z M109.367586,28.3864211 C109.367586,28.5940619 109.342986,28.8214747 109.293785,29.0686662 L103.581666,29.0686662 C103.611187,29.6915889 103.768625,30.1389988 104.053986,30.4109095 C104.339347,30.6828202 104.703424,30.8187735 105.146226,30.8187735 C105.520148,30.8187735 105.830105,30.7248421 106.076106,30.5369765 C106.322107,30.349111 106.484466,30.1068669 106.563186,29.8102371 L109.234745,29.8102371 C109.126505,30.3936091 108.890347,30.9151754 108.526265,31.3749516 C108.162184,31.8347278 107.699708,32.195622 107.138826,32.4576451 C106.577943,32.7196681 105.953109,32.8506777 105.264306,32.8506777 C104.457422,32.8506777 103.741569,32.680118 103.116726,32.3389938 C102.491883,31.9978694 102.002348,31.5059657 101.648107,30.8632677 C101.293865,30.2205698 101.116747,29.4691188 101.116747,28.6088923 C101.116747,27.7387781 101.291405,26.9848553 101.640726,26.3471012 C101.990048,25.709347 102.479584,25.2199151 103.109347,24.8787908 C103.739109,24.5376665 104.457422,24.3671069 105.264306,24.3671069 C106.08103,24.3671069 106.799343,24.5351947 107.419266,24.8713751 C108.039189,25.2075556 108.518884,25.6796844 108.858365,26.2877755 C109.197847,26.8958666 109.367586,27.5954082 109.367586,28.3864211 Z M106.814106,28.0008042 C106.823946,27.4569828 106.678807,27.0491229 106.378686,26.7772123 C106.078564,26.5053016 105.707108,26.3693483 105.264306,26.3693483 C104.801824,26.3693483 104.418068,26.5077734 104.113026,26.7846279 C103.807984,27.0614825 103.635786,27.4668705 103.596426,28.0008042 L106.814106,28.0008042 Z M116.114152,24.3819383 C117.058796,24.3819383 117.809089,24.6983388 118.365052,25.3311491 C118.921014,25.9639594 119.198992,26.8340604 119.198992,27.9414785 L119.198992,32.7468578 L116.675031,32.7468578 L116.675031,28.2381068 C116.675031,27.6843979 116.529893,27.2518191 116.239611,26.9403579 C115.94933,26.6288965 115.563114,26.4731682 115.080952,26.4731682 C114.569269,26.4731682 114.163374,26.6363122 113.863252,26.962605 C113.563131,27.2888978 113.413072,27.7536108 113.413072,28.3567582 L113.413072,32.7468578 L110.889113,32.7468578 L110.889113,24.4709268 L113.413072,24.4709268 L113.413072,25.9837314 C113.649234,25.4893484 114.00101,25.0987916 114.468412,24.8120494 C114.935815,24.5253073 115.484389,24.3819383 116.114152,24.3819383 Z M125.738918,30.5666394 L125.738918,32.7468578 L124.602398,32.7468578 C123.638073,32.7468578 122.887781,32.5070855 122.351498,32.027534 C121.815215,31.5479824 121.547079,30.7545095 121.547079,29.6470915 L121.547079,26.6066509 L120.440078,26.6066509 L120.440078,24.4709268 L121.547079,24.4709268 L121.547079,22.4390227 L124.071038,22.4390227 L124.071038,24.4709268 L125.724158,24.4709268 L125.724158,26.6066509 L124.071038,26.6066509 L124.071038,29.6915858 C124.071038,30.0178786 124.137457,30.2452914 124.270298,30.3738309 C124.403139,30.5023706 124.626996,30.5666394 124.941878,30.5666394 L125.738918,30.5666394 Z M135.186564,28.3864211 C135.186564,28.5940619 135.161964,28.8214747 135.112764,29.0686662 L129.400645,29.0686662 C129.430165,29.6915889 129.587603,30.1389988 129.872964,30.4109095 C130.158325,30.6828202 130.522403,30.8187735 130.965205,30.8187735 C131.339126,30.8187735 131.649083,30.7248421 131.895084,30.5369765 C132.141085,30.349111 132.303444,30.1068669 132.382164,29.8102371 L135.053723,29.8102371 C134.945484,30.3936091 134.709326,30.9151754 134.345244,31.3749516 C133.981162,31.8347278 133.518687,32.195622 132.957805,32.4576451 C132.396921,32.7196681 131.772088,32.8506777 131.083284,32.8506777 C130.276401,32.8506777 129.560548,32.680118 128.935705,32.3389938 C128.310862,31.9978694 127.821326,31.5059657 127.467085,30.8632677 C127.112843,30.2205698 126.935725,29.4691188 126.935725,28.6088923 C126.935725,27.7387781 127.110383,26.9848553 127.459705,26.3471012 C127.809026,25.709347 128.298562,25.2199151 128.928325,24.8787908 C129.558088,24.5376665 130.276401,24.3671069 131.083284,24.3671069 C131.900008,24.3671069 132.618321,24.5351947 133.238244,24.8713751 C133.858167,25.2075556 134.337862,25.6796844 134.677344,26.2877755 C135.016825,26.8958666 135.186564,27.5954082 135.186564,28.3864211 Z M132.633084,28.0008042 C132.642924,27.4569828 132.497786,27.0491229 132.197664,26.7772123 C131.897543,26.5053016 131.526086,26.3693483 131.083284,26.3693483 C130.620802,26.3693483 130.237046,26.5077734 129.932004,26.7846279 C129.626963,27.0614825 129.454764,27.4668705 129.415404,28.0008042 L132.633084,28.0008042 Z" id="Ciudadanía-Inteligen" fill="#111111" fill-rule="nonzero"></path>
        </g>
    </g>
</svg>