<?xml version="1.0" encoding="UTF-8"?>
<svg width="39px" height="25px" viewBox="0 0 39 25" version="1.1" xmlns="http://www.w3.org/2000/svg" xmlns:xlink="http://www.w3.org/1999/xlink">
    <!-- Generator: Sketch 48.2 (47327) - http://www.bohemiancoding.com/sketch -->
    <title>Shape</title>
    <desc>Created with Sketch.</desc>
    <defs></defs>
    <g id="Artboard" stroke="none" stroke-width="1" fill="none" fill-rule="evenodd" transform="translate(-433.000000, -578.000000)">
        <path d="M470.78,580.377 C464.915,580.377 459.849,583.771 457.52,588.652 C458.721,587.935 460.131,587.522 461.638,587.522 C466.007,587.522 469.566,590.993 469.566,595.26 C469.566,599.527 466.007,602.998 461.638,602.998 C457.27,602.998 453.717,599.527 453.717,595.26 C453.717,595.108 453.722,594.958 453.731,594.808 C453.726,594.761 453.717,594.715 453.717,594.667 C453.717,585.475 461.371,578 470.78,578 C471.458,578 472,578.528 472,579.184 C472,579.849 471.458,580.377 470.78,580.377 L470.78,580.377 Z M450.062,580.377 C444.195,580.377 439.125,583.773 436.796,588.657 C437.998,587.937 439.41,587.522 440.921,587.522 C445.289,587.522 448.842,590.993 448.842,595.26 C448.842,599.527 445.289,602.998 440.921,602.998 C436.553,602.998 433,599.527 433,595.26 C433,595.108 433.005,594.958 433.014,594.809 C433.009,594.762 433,594.715 433,594.667 C433,585.475 440.653,578 450.062,578 C450.735,578 451.283,578.528 451.283,579.184 C451.283,579.849 450.735,580.377 450.062,580.377 L450.062,580.377 Z" id="Shape" fill="#E8453B"></path>
    </g>
</svg>